%TF.GenerationSoftware,KiCad,Pcbnew,(5.1.7)-1*%
%TF.CreationDate,2020-12-01T10:33:41+01:00*%
%TF.ProjectId,HeatController,48656174-436f-46e7-9472-6f6c6c65722e,rev?*%
%TF.SameCoordinates,Original*%
%TF.FileFunction,Legend,Top*%
%TF.FilePolarity,Positive*%
%FSLAX46Y46*%
G04 Gerber Fmt 4.6, Leading zero omitted, Abs format (unit mm)*
G04 Created by KiCad (PCBNEW (5.1.7)-1) date 2020-12-01 10:33:41*
%MOMM*%
%LPD*%
G01*
G04 APERTURE LIST*
%ADD10C,0.150000*%
%ADD11C,0.010000*%
%ADD12C,0.120000*%
%ADD13C,0.200000*%
%ADD14C,0.127000*%
%ADD15C,0.015000*%
G04 APERTURE END LIST*
D10*
X151773000Y-56768904D02*
X151725380Y-56864142D01*
X151725380Y-57007000D01*
X151773000Y-57149857D01*
X151868238Y-57245095D01*
X151963476Y-57292714D01*
X152153952Y-57340333D01*
X152296809Y-57340333D01*
X152487285Y-57292714D01*
X152582523Y-57245095D01*
X152677761Y-57149857D01*
X152725380Y-57007000D01*
X152725380Y-56911761D01*
X152677761Y-56768904D01*
X152630142Y-56721285D01*
X152296809Y-56721285D01*
X152296809Y-56911761D01*
X152725380Y-56292714D02*
X151725380Y-56292714D01*
X152725380Y-55721285D01*
X151725380Y-55721285D01*
X152725380Y-55245095D02*
X151725380Y-55245095D01*
X151725380Y-55007000D01*
X151773000Y-54864142D01*
X151868238Y-54768904D01*
X151963476Y-54721285D01*
X152153952Y-54673666D01*
X152296809Y-54673666D01*
X152487285Y-54721285D01*
X152582523Y-54768904D01*
X152677761Y-54864142D01*
X152725380Y-55007000D01*
X152725380Y-55245095D01*
X152344428Y-62420333D02*
X152344428Y-61658428D01*
X152725380Y-62039380D02*
X151963476Y-62039380D01*
X151820619Y-61229857D02*
X151773000Y-61182238D01*
X151725380Y-61087000D01*
X151725380Y-60848904D01*
X151773000Y-60753666D01*
X151820619Y-60706047D01*
X151915857Y-60658428D01*
X152011095Y-60658428D01*
X152153952Y-60706047D01*
X152725380Y-61277476D01*
X152725380Y-60658428D01*
X152058714Y-59801285D02*
X152725380Y-59801285D01*
X151677761Y-60039380D02*
X152392047Y-60277476D01*
X152392047Y-59658428D01*
D11*
%TO.C,G\u002A\u002A\u002A*%
G36*
X178592136Y-66734414D02*
G01*
X178590751Y-66996304D01*
X178575809Y-67120980D01*
X178534500Y-67503423D01*
X178511325Y-67874320D01*
X178509644Y-67959180D01*
X178495774Y-68183042D01*
X178451082Y-68223596D01*
X178409600Y-68173600D01*
X178329457Y-67951279D01*
X178309555Y-67779900D01*
X178285370Y-67617777D01*
X178175156Y-67574812D01*
X177990500Y-67602100D01*
X177741391Y-67646752D01*
X177584934Y-67665597D01*
X177584100Y-67665600D01*
X177507911Y-67749668D01*
X177493644Y-67843400D01*
X177437659Y-68086921D01*
X177393600Y-68173600D01*
X177341716Y-68180281D01*
X177309103Y-68003240D01*
X177294566Y-67634283D01*
X177293555Y-67487800D01*
X177304347Y-67075224D01*
X177335516Y-66784924D01*
X177382686Y-66653570D01*
X177393600Y-66649600D01*
X177456422Y-66739914D01*
X177492112Y-66966307D01*
X177495200Y-67068700D01*
X177503204Y-67332416D01*
X177556322Y-67441836D01*
X177698212Y-67445856D01*
X177812700Y-67424300D01*
X178081175Y-67379009D01*
X178269900Y-67360800D01*
X178375838Y-67266535D01*
X178409600Y-67005200D01*
X178438676Y-66768175D01*
X178510751Y-66652235D01*
X178525009Y-66649600D01*
X178592136Y-66734414D01*
G37*
X178592136Y-66734414D02*
X178590751Y-66996304D01*
X178575809Y-67120980D01*
X178534500Y-67503423D01*
X178511325Y-67874320D01*
X178509644Y-67959180D01*
X178495774Y-68183042D01*
X178451082Y-68223596D01*
X178409600Y-68173600D01*
X178329457Y-67951279D01*
X178309555Y-67779900D01*
X178285370Y-67617777D01*
X178175156Y-67574812D01*
X177990500Y-67602100D01*
X177741391Y-67646752D01*
X177584934Y-67665597D01*
X177584100Y-67665600D01*
X177507911Y-67749668D01*
X177493644Y-67843400D01*
X177437659Y-68086921D01*
X177393600Y-68173600D01*
X177341716Y-68180281D01*
X177309103Y-68003240D01*
X177294566Y-67634283D01*
X177293555Y-67487800D01*
X177304347Y-67075224D01*
X177335516Y-66784924D01*
X177382686Y-66653570D01*
X177393600Y-66649600D01*
X177456422Y-66739914D01*
X177492112Y-66966307D01*
X177495200Y-67068700D01*
X177503204Y-67332416D01*
X177556322Y-67441836D01*
X177698212Y-67445856D01*
X177812700Y-67424300D01*
X178081175Y-67379009D01*
X178269900Y-67360800D01*
X178375838Y-67266535D01*
X178409600Y-67005200D01*
X178438676Y-66768175D01*
X178510751Y-66652235D01*
X178525009Y-66649600D01*
X178592136Y-66734414D01*
G36*
X179513313Y-67206470D02*
G01*
X179616000Y-67294577D01*
X179643728Y-67462555D01*
X179471421Y-67659460D01*
X179171600Y-67847745D01*
X179030385Y-67935904D01*
X179066649Y-67992039D01*
X179159658Y-68030402D01*
X179398207Y-68038611D01*
X179550552Y-67979394D01*
X179745062Y-67904087D01*
X179823165Y-67951110D01*
X179748245Y-68079278D01*
X179685421Y-68131106D01*
X179372415Y-68263596D01*
X179050443Y-68196046D01*
X178993800Y-68165461D01*
X178852648Y-67980078D01*
X178824605Y-67710788D01*
X178878574Y-67538600D01*
X179044091Y-67538600D01*
X179055918Y-67651776D01*
X179188513Y-67633580D01*
X179380781Y-67510213D01*
X179511985Y-67396796D01*
X179467575Y-67370276D01*
X179331958Y-67383213D01*
X179126639Y-67451668D01*
X179044091Y-67538600D01*
X178878574Y-67538600D01*
X178908867Y-67441953D01*
X179001800Y-67325746D01*
X179270175Y-67173841D01*
X179513313Y-67206470D01*
G37*
X179513313Y-67206470D02*
X179616000Y-67294577D01*
X179643728Y-67462555D01*
X179471421Y-67659460D01*
X179171600Y-67847745D01*
X179030385Y-67935904D01*
X179066649Y-67992039D01*
X179159658Y-68030402D01*
X179398207Y-68038611D01*
X179550552Y-67979394D01*
X179745062Y-67904087D01*
X179823165Y-67951110D01*
X179748245Y-68079278D01*
X179685421Y-68131106D01*
X179372415Y-68263596D01*
X179050443Y-68196046D01*
X178993800Y-68165461D01*
X178852648Y-67980078D01*
X178824605Y-67710788D01*
X178878574Y-67538600D01*
X179044091Y-67538600D01*
X179055918Y-67651776D01*
X179188513Y-67633580D01*
X179380781Y-67510213D01*
X179511985Y-67396796D01*
X179467575Y-67370276D01*
X179331958Y-67383213D01*
X179126639Y-67451668D01*
X179044091Y-67538600D01*
X178878574Y-67538600D01*
X178908867Y-67441953D01*
X179001800Y-67325746D01*
X179270175Y-67173841D01*
X179513313Y-67206470D01*
G36*
X180615342Y-67190957D02*
G01*
X180695600Y-67235355D01*
X180759453Y-67374680D01*
X180801331Y-67638335D01*
X180808349Y-67767200D01*
X180806512Y-68048751D01*
X180758243Y-68184515D01*
X180626730Y-68231677D01*
X180503549Y-68240672D01*
X180238168Y-68237052D01*
X180060600Y-68206806D01*
X179965529Y-68073854D01*
X179937256Y-67831547D01*
X179944876Y-67773601D01*
X180048945Y-67773601D01*
X180098931Y-67916662D01*
X180242494Y-68042525D01*
X180378331Y-68051971D01*
X180534429Y-67980975D01*
X180593301Y-67790850D01*
X180597444Y-67691000D01*
X180555744Y-67437201D01*
X180430027Y-67367672D01*
X180230148Y-67486586D01*
X180194857Y-67520457D01*
X180065077Y-67662536D01*
X180048945Y-67773601D01*
X179944876Y-67773601D01*
X179972789Y-67561370D01*
X180069136Y-67344808D01*
X180093257Y-67317257D01*
X180346921Y-67175374D01*
X180615342Y-67190957D01*
G37*
X180615342Y-67190957D02*
X180695600Y-67235355D01*
X180759453Y-67374680D01*
X180801331Y-67638335D01*
X180808349Y-67767200D01*
X180806512Y-68048751D01*
X180758243Y-68184515D01*
X180626730Y-68231677D01*
X180503549Y-68240672D01*
X180238168Y-68237052D01*
X180060600Y-68206806D01*
X179965529Y-68073854D01*
X179937256Y-67831547D01*
X179944876Y-67773601D01*
X180048945Y-67773601D01*
X180098931Y-67916662D01*
X180242494Y-68042525D01*
X180378331Y-68051971D01*
X180534429Y-67980975D01*
X180593301Y-67790850D01*
X180597444Y-67691000D01*
X180555744Y-67437201D01*
X180430027Y-67367672D01*
X180230148Y-67486586D01*
X180194857Y-67520457D01*
X180065077Y-67662536D01*
X180048945Y-67773601D01*
X179944876Y-67773601D01*
X179972789Y-67561370D01*
X180069136Y-67344808D01*
X180093257Y-67317257D01*
X180346921Y-67175374D01*
X180615342Y-67190957D01*
G36*
X181547737Y-66935091D02*
G01*
X181559200Y-67005200D01*
X181640527Y-67139898D01*
X181711600Y-67157600D01*
X181846806Y-67212461D01*
X181864000Y-67259200D01*
X181781708Y-67349337D01*
X181711600Y-67360800D01*
X181611151Y-67420634D01*
X181565396Y-67624083D01*
X181559200Y-67818000D01*
X181539020Y-68090663D01*
X181487963Y-68254221D01*
X181457600Y-68275200D01*
X181397008Y-68184391D01*
X181360661Y-67954634D01*
X181356000Y-67818000D01*
X181336055Y-67516653D01*
X181268238Y-67379390D01*
X181203600Y-67360800D01*
X181068393Y-67305938D01*
X181051200Y-67259200D01*
X181133491Y-67169062D01*
X181203600Y-67157600D01*
X181338298Y-67076272D01*
X181356000Y-67005200D01*
X181410861Y-66869993D01*
X181457600Y-66852800D01*
X181547737Y-66935091D01*
G37*
X181547737Y-66935091D02*
X181559200Y-67005200D01*
X181640527Y-67139898D01*
X181711600Y-67157600D01*
X181846806Y-67212461D01*
X181864000Y-67259200D01*
X181781708Y-67349337D01*
X181711600Y-67360800D01*
X181611151Y-67420634D01*
X181565396Y-67624083D01*
X181559200Y-67818000D01*
X181539020Y-68090663D01*
X181487963Y-68254221D01*
X181457600Y-68275200D01*
X181397008Y-68184391D01*
X181360661Y-67954634D01*
X181356000Y-67818000D01*
X181336055Y-67516653D01*
X181268238Y-67379390D01*
X181203600Y-67360800D01*
X181068393Y-67305938D01*
X181051200Y-67259200D01*
X181133491Y-67169062D01*
X181203600Y-67157600D01*
X181338298Y-67076272D01*
X181356000Y-67005200D01*
X181410861Y-66869993D01*
X181457600Y-66852800D01*
X181547737Y-66935091D01*
G36*
X183162562Y-66762071D02*
G01*
X183184800Y-66853660D01*
X183162843Y-66992120D01*
X183059618Y-66978499D01*
X182974515Y-66929860D01*
X182820641Y-66865521D01*
X182688400Y-66917977D01*
X182515008Y-67106800D01*
X182336929Y-67405976D01*
X182279023Y-67687173D01*
X182338172Y-67903534D01*
X182511257Y-68008202D01*
X182575200Y-68011313D01*
X182849449Y-67972482D01*
X183007000Y-67924243D01*
X183157566Y-67891002D01*
X183177937Y-67952173D01*
X183084283Y-68061222D01*
X182926019Y-68157291D01*
X182621554Y-68261597D01*
X182405560Y-68231135D01*
X182235346Y-68089399D01*
X182091525Y-67792125D01*
X182110325Y-67438405D01*
X182279965Y-67076073D01*
X182558683Y-66776600D01*
X182793331Y-66660395D01*
X183017133Y-66658322D01*
X183162562Y-66762071D01*
G37*
X183162562Y-66762071D02*
X183184800Y-66853660D01*
X183162843Y-66992120D01*
X183059618Y-66978499D01*
X182974515Y-66929860D01*
X182820641Y-66865521D01*
X182688400Y-66917977D01*
X182515008Y-67106800D01*
X182336929Y-67405976D01*
X182279023Y-67687173D01*
X182338172Y-67903534D01*
X182511257Y-68008202D01*
X182575200Y-68011313D01*
X182849449Y-67972482D01*
X183007000Y-67924243D01*
X183157566Y-67891002D01*
X183177937Y-67952173D01*
X183084283Y-68061222D01*
X182926019Y-68157291D01*
X182621554Y-68261597D01*
X182405560Y-68231135D01*
X182235346Y-68089399D01*
X182091525Y-67792125D01*
X182110325Y-67438405D01*
X182279965Y-67076073D01*
X182558683Y-66776600D01*
X182793331Y-66660395D01*
X183017133Y-66658322D01*
X183162562Y-66762071D01*
G36*
X184116540Y-67242455D02*
G01*
X184250898Y-67453079D01*
X184287699Y-67723557D01*
X184211882Y-67987975D01*
X184116599Y-68107053D01*
X183844346Y-68260678D01*
X183594686Y-68220186D01*
X183509920Y-68153280D01*
X183388378Y-67909391D01*
X183400557Y-67702868D01*
X183594219Y-67702868D01*
X183633100Y-67933043D01*
X183750534Y-68065449D01*
X183896309Y-68043310D01*
X184013484Y-67896517D01*
X184048400Y-67715008D01*
X184015946Y-67492281D01*
X183895907Y-67414424D01*
X183846591Y-67411600D01*
X183668331Y-67494867D01*
X183594219Y-67702868D01*
X183400557Y-67702868D01*
X183405321Y-67622087D01*
X183534250Y-67359060D01*
X183748666Y-67188003D01*
X183899682Y-67157600D01*
X184116540Y-67242455D01*
G37*
X184116540Y-67242455D02*
X184250898Y-67453079D01*
X184287699Y-67723557D01*
X184211882Y-67987975D01*
X184116599Y-68107053D01*
X183844346Y-68260678D01*
X183594686Y-68220186D01*
X183509920Y-68153280D01*
X183388378Y-67909391D01*
X183400557Y-67702868D01*
X183594219Y-67702868D01*
X183633100Y-67933043D01*
X183750534Y-68065449D01*
X183896309Y-68043310D01*
X184013484Y-67896517D01*
X184048400Y-67715008D01*
X184015946Y-67492281D01*
X183895907Y-67414424D01*
X183846591Y-67411600D01*
X183668331Y-67494867D01*
X183594219Y-67702868D01*
X183400557Y-67702868D01*
X183405321Y-67622087D01*
X183534250Y-67359060D01*
X183748666Y-67188003D01*
X183899682Y-67157600D01*
X184116540Y-67242455D01*
G36*
X185188724Y-67205712D02*
G01*
X185337489Y-67286623D01*
X185337761Y-67287048D01*
X185391554Y-67455803D01*
X185416311Y-67701089D01*
X185413410Y-67956186D01*
X185384229Y-68154372D01*
X185330147Y-68228928D01*
X185318400Y-68224400D01*
X185253457Y-68091187D01*
X185218656Y-67838502D01*
X185216800Y-67761203D01*
X185196742Y-67508901D01*
X185146721Y-67370092D01*
X185127640Y-67360800D01*
X184966174Y-67452316D01*
X184815835Y-67689615D01*
X184716780Y-67996426D01*
X184659527Y-68195736D01*
X184605223Y-68202291D01*
X184585330Y-68160711D01*
X184556571Y-67955147D01*
X184567510Y-67660646D01*
X184574504Y-67601911D01*
X184627091Y-67343465D01*
X184727609Y-67225725D01*
X184931244Y-67186329D01*
X184943031Y-67185448D01*
X185188724Y-67205712D01*
G37*
X185188724Y-67205712D02*
X185337489Y-67286623D01*
X185337761Y-67287048D01*
X185391554Y-67455803D01*
X185416311Y-67701089D01*
X185413410Y-67956186D01*
X185384229Y-68154372D01*
X185330147Y-68228928D01*
X185318400Y-68224400D01*
X185253457Y-68091187D01*
X185218656Y-67838502D01*
X185216800Y-67761203D01*
X185196742Y-67508901D01*
X185146721Y-67370092D01*
X185127640Y-67360800D01*
X184966174Y-67452316D01*
X184815835Y-67689615D01*
X184716780Y-67996426D01*
X184659527Y-68195736D01*
X184605223Y-68202291D01*
X184585330Y-68160711D01*
X184556571Y-67955147D01*
X184567510Y-67660646D01*
X184574504Y-67601911D01*
X184627091Y-67343465D01*
X184727609Y-67225725D01*
X184931244Y-67186329D01*
X184943031Y-67185448D01*
X185188724Y-67205712D01*
G36*
X180773127Y-52904486D02*
G01*
X181075440Y-53101221D01*
X181439058Y-53391120D01*
X181829131Y-53743098D01*
X182210811Y-54126070D01*
X182549248Y-54508951D01*
X182763186Y-54791014D01*
X183203059Y-55555661D01*
X183552991Y-56415666D01*
X183790601Y-57301999D01*
X183893508Y-58145630D01*
X183896000Y-58285004D01*
X183925744Y-58534367D01*
X184011412Y-58601456D01*
X184016818Y-58599860D01*
X184202262Y-58457632D01*
X184406230Y-58178260D01*
X184589788Y-57819506D01*
X184651938Y-57657580D01*
X184787757Y-57262510D01*
X185140395Y-57968255D01*
X185618844Y-59086525D01*
X185925393Y-60173532D01*
X186059444Y-61215021D01*
X186020404Y-62196735D01*
X185807676Y-63104421D01*
X185420664Y-63923822D01*
X185391175Y-63970991D01*
X185091567Y-64362067D01*
X184684382Y-64787898D01*
X184231968Y-65190882D01*
X183796672Y-65513421D01*
X183591953Y-65633215D01*
X183150416Y-65858470D01*
X183517693Y-65429390D01*
X183921521Y-64808685D01*
X184147438Y-64117690D01*
X184188901Y-63393602D01*
X184039371Y-62673615D01*
X184014344Y-62605068D01*
X183875575Y-62315573D01*
X183648829Y-61923184D01*
X183369377Y-61486560D01*
X183159601Y-61183660D01*
X182735607Y-60548484D01*
X182437697Y-59984386D01*
X182237980Y-59429845D01*
X182119288Y-58888972D01*
X182052879Y-58494344D01*
X181647970Y-58888972D01*
X181180029Y-59473170D01*
X180813866Y-60192730D01*
X180566782Y-60998203D01*
X180456079Y-61840144D01*
X180458806Y-62287521D01*
X180470320Y-62613588D01*
X180450436Y-62775037D01*
X180390215Y-62809205D01*
X180338863Y-62788462D01*
X180024734Y-62510840D01*
X179781474Y-62067982D01*
X179624706Y-61490194D01*
X179605816Y-61366400D01*
X179577531Y-61226588D01*
X179528872Y-61225070D01*
X179431815Y-61379250D01*
X179355487Y-61521857D01*
X179019848Y-62337636D01*
X178849682Y-63177297D01*
X178839095Y-63797994D01*
X178928200Y-64402200D01*
X179121245Y-64900847D01*
X179453996Y-65379796D01*
X179539624Y-65479828D01*
X179715917Y-65687950D01*
X179811484Y-65815447D01*
X179817124Y-65834558D01*
X179717323Y-65786351D01*
X179495243Y-65663641D01*
X179262792Y-65530028D01*
X178660799Y-65091068D01*
X178089325Y-64514076D01*
X177605580Y-63862459D01*
X177363267Y-63424666D01*
X177227079Y-63126926D01*
X177135440Y-62879855D01*
X177079604Y-62630632D01*
X177050825Y-62326437D01*
X177040357Y-61914450D01*
X177039294Y-61468000D01*
X177041950Y-60935228D01*
X177055154Y-60551778D01*
X177088674Y-60263774D01*
X177152277Y-60017338D01*
X177255730Y-59758595D01*
X177407677Y-59436000D01*
X177611888Y-59062001D01*
X177906214Y-58587375D01*
X178253252Y-58069701D01*
X178615601Y-57566559D01*
X178661593Y-57505600D01*
X179257963Y-56682235D01*
X179715310Y-55957195D01*
X180048686Y-55296323D01*
X180273145Y-54665463D01*
X180403736Y-54030460D01*
X180452984Y-53440556D01*
X180478540Y-53119284D01*
X180522783Y-52898745D01*
X180566966Y-52832000D01*
X180773127Y-52904486D01*
G37*
X180773127Y-52904486D02*
X181075440Y-53101221D01*
X181439058Y-53391120D01*
X181829131Y-53743098D01*
X182210811Y-54126070D01*
X182549248Y-54508951D01*
X182763186Y-54791014D01*
X183203059Y-55555661D01*
X183552991Y-56415666D01*
X183790601Y-57301999D01*
X183893508Y-58145630D01*
X183896000Y-58285004D01*
X183925744Y-58534367D01*
X184011412Y-58601456D01*
X184016818Y-58599860D01*
X184202262Y-58457632D01*
X184406230Y-58178260D01*
X184589788Y-57819506D01*
X184651938Y-57657580D01*
X184787757Y-57262510D01*
X185140395Y-57968255D01*
X185618844Y-59086525D01*
X185925393Y-60173532D01*
X186059444Y-61215021D01*
X186020404Y-62196735D01*
X185807676Y-63104421D01*
X185420664Y-63923822D01*
X185391175Y-63970991D01*
X185091567Y-64362067D01*
X184684382Y-64787898D01*
X184231968Y-65190882D01*
X183796672Y-65513421D01*
X183591953Y-65633215D01*
X183150416Y-65858470D01*
X183517693Y-65429390D01*
X183921521Y-64808685D01*
X184147438Y-64117690D01*
X184188901Y-63393602D01*
X184039371Y-62673615D01*
X184014344Y-62605068D01*
X183875575Y-62315573D01*
X183648829Y-61923184D01*
X183369377Y-61486560D01*
X183159601Y-61183660D01*
X182735607Y-60548484D01*
X182437697Y-59984386D01*
X182237980Y-59429845D01*
X182119288Y-58888972D01*
X182052879Y-58494344D01*
X181647970Y-58888972D01*
X181180029Y-59473170D01*
X180813866Y-60192730D01*
X180566782Y-60998203D01*
X180456079Y-61840144D01*
X180458806Y-62287521D01*
X180470320Y-62613588D01*
X180450436Y-62775037D01*
X180390215Y-62809205D01*
X180338863Y-62788462D01*
X180024734Y-62510840D01*
X179781474Y-62067982D01*
X179624706Y-61490194D01*
X179605816Y-61366400D01*
X179577531Y-61226588D01*
X179528872Y-61225070D01*
X179431815Y-61379250D01*
X179355487Y-61521857D01*
X179019848Y-62337636D01*
X178849682Y-63177297D01*
X178839095Y-63797994D01*
X178928200Y-64402200D01*
X179121245Y-64900847D01*
X179453996Y-65379796D01*
X179539624Y-65479828D01*
X179715917Y-65687950D01*
X179811484Y-65815447D01*
X179817124Y-65834558D01*
X179717323Y-65786351D01*
X179495243Y-65663641D01*
X179262792Y-65530028D01*
X178660799Y-65091068D01*
X178089325Y-64514076D01*
X177605580Y-63862459D01*
X177363267Y-63424666D01*
X177227079Y-63126926D01*
X177135440Y-62879855D01*
X177079604Y-62630632D01*
X177050825Y-62326437D01*
X177040357Y-61914450D01*
X177039294Y-61468000D01*
X177041950Y-60935228D01*
X177055154Y-60551778D01*
X177088674Y-60263774D01*
X177152277Y-60017338D01*
X177255730Y-59758595D01*
X177407677Y-59436000D01*
X177611888Y-59062001D01*
X177906214Y-58587375D01*
X178253252Y-58069701D01*
X178615601Y-57566559D01*
X178661593Y-57505600D01*
X179257963Y-56682235D01*
X179715310Y-55957195D01*
X180048686Y-55296323D01*
X180273145Y-54665463D01*
X180403736Y-54030460D01*
X180452984Y-53440556D01*
X180478540Y-53119284D01*
X180522783Y-52898745D01*
X180566966Y-52832000D01*
X180773127Y-52904486D01*
D12*
%TO.C,E_33*%
X156607000Y-95634000D02*
X156607000Y-94434000D01*
X158607000Y-94434000D02*
X158607000Y-95634000D01*
%TO.C,JP1*%
X160020000Y-53467000D02*
X160020000Y-63627000D01*
X161290000Y-53467000D02*
X153670000Y-53467000D01*
X153670000Y-53467000D02*
X153670000Y-63627000D01*
X153670000Y-63627000D02*
X161290000Y-63627000D01*
X161290000Y-63627000D02*
X161290000Y-53467000D01*
%TO.C,J6*%
X216535000Y-114427000D02*
X216535000Y-104267000D01*
X215265000Y-114427000D02*
X222885000Y-114427000D01*
X222885000Y-114427000D02*
X222885000Y-104267000D01*
X222885000Y-104267000D02*
X215265000Y-104267000D01*
X215265000Y-104267000D02*
X215265000Y-114427000D01*
%TO.C,J5*%
X216535000Y-104267000D02*
X216535000Y-94107000D01*
X215265000Y-104267000D02*
X222885000Y-104267000D01*
X222885000Y-104267000D02*
X222885000Y-94107000D01*
X222885000Y-94107000D02*
X215265000Y-94107000D01*
X215265000Y-94107000D02*
X215265000Y-104267000D01*
%TO.C,J4*%
X216535000Y-94107000D02*
X216535000Y-83947000D01*
X215265000Y-94107000D02*
X222885000Y-94107000D01*
X222885000Y-94107000D02*
X222885000Y-83947000D01*
X222885000Y-83947000D02*
X215265000Y-83947000D01*
X215265000Y-83947000D02*
X215265000Y-94107000D01*
%TO.C,J3*%
X216535000Y-83947000D02*
X216535000Y-73787000D01*
X215265000Y-83947000D02*
X222885000Y-83947000D01*
X222885000Y-83947000D02*
X222885000Y-73787000D01*
X222885000Y-73787000D02*
X215265000Y-73787000D01*
X215265000Y-73787000D02*
X215265000Y-83947000D01*
%TO.C,J2*%
X216535000Y-73787000D02*
X216535000Y-63627000D01*
X215265000Y-73787000D02*
X222885000Y-73787000D01*
X222885000Y-73787000D02*
X222885000Y-63627000D01*
X222885000Y-63627000D02*
X215265000Y-63627000D01*
X215265000Y-63627000D02*
X215265000Y-73787000D01*
%TO.C,J1*%
X216535000Y-63627000D02*
X216535000Y-53467000D01*
X215265000Y-63627000D02*
X222885000Y-63627000D01*
X222885000Y-63627000D02*
X222885000Y-53467000D01*
X222885000Y-53467000D02*
X215265000Y-53467000D01*
X215265000Y-53467000D02*
X215265000Y-63627000D01*
D10*
%TO.C,U1*%
X185796000Y-112280000D02*
X185796000Y-79200000D01*
X183796000Y-77200000D02*
X161136000Y-77200000D01*
X159136000Y-79200000D02*
X159136000Y-105280000D01*
X161286000Y-112280000D02*
X169146000Y-112280000D01*
X169146000Y-112280000D02*
X169146000Y-111280000D01*
X169146000Y-111280000D02*
X177366000Y-111280000D01*
X177366000Y-111280000D02*
X177366000Y-112280000D01*
X177366000Y-112280000D02*
X185795999Y-112280000D01*
X161286000Y-112280000D02*
X161286000Y-106280000D01*
X160296000Y-105280000D02*
X159136000Y-105280000D01*
X159136000Y-105280000D02*
X159136000Y-105280000D01*
X161286000Y-106280000D02*
G75*
G03*
X160286000Y-105280000I-1000000J0D01*
G01*
X185796000Y-79200000D02*
G75*
G03*
X183796000Y-77200000I-2000000J0D01*
G01*
X161136000Y-77200000D02*
G75*
G03*
X159136000Y-79200000I0J-2000000D01*
G01*
D12*
%TO.C,Cout2*%
X156820500Y-103767000D02*
X156820500Y-104767000D01*
X158520500Y-104767000D02*
X158520500Y-103767000D01*
%TO.C,Dlj5*%
X210758500Y-102399000D02*
X213558500Y-102399000D01*
X210758500Y-103799000D02*
X213558500Y-103799000D01*
X210758500Y-102399000D02*
X210758500Y-103799000D01*
%TO.C,Q5*%
X205964000Y-94954500D02*
X205964000Y-96464500D01*
X202263000Y-94954500D02*
X202263000Y-96464500D01*
X198993000Y-96464500D02*
X209233000Y-96464500D01*
X209233000Y-94954500D02*
X209233000Y-99595500D01*
X198993000Y-94954500D02*
X198993000Y-99595500D01*
X198993000Y-99595500D02*
X209233000Y-99595500D01*
X198993000Y-94954500D02*
X209233000Y-94954500D01*
D13*
%TO.C,U_OC5*%
X188321000Y-95206500D02*
G75*
G03*
X188321000Y-95206500I-100000J0D01*
G01*
D14*
X190991000Y-95016500D02*
X195391000Y-95016500D01*
X190991000Y-99116500D02*
X195391000Y-99116500D01*
D12*
%TO.C,Rioc5*%
X192624000Y-104099000D02*
X191424000Y-104099000D01*
X191424000Y-102099000D02*
X192624000Y-102099000D01*
%TO.C,Rlj5*%
X206999000Y-104099000D02*
X205799000Y-104099000D01*
X205799000Y-102099000D02*
X206999000Y-102099000D01*
%TO.C,Rpd5*%
X201608000Y-102099000D02*
X202808000Y-102099000D01*
X202808000Y-104099000D02*
X201608000Y-104099000D01*
%TO.C,D5*%
X211509000Y-94397500D02*
X211509000Y-99697500D01*
X213989000Y-94397500D02*
X213989000Y-99697500D01*
X213989000Y-94397500D02*
X211529000Y-94397500D01*
%TO.C,Roo5*%
X197290000Y-102099000D02*
X198490000Y-102099000D01*
X198490000Y-104099000D02*
X197290000Y-104099000D01*
%TO.C,D6*%
X211509000Y-104494000D02*
X211509000Y-109794000D01*
X213989000Y-104494000D02*
X213989000Y-109794000D01*
X213989000Y-104494000D02*
X211529000Y-104494000D01*
D13*
%TO.C,U_OC6*%
X188321000Y-105303000D02*
G75*
G03*
X188321000Y-105303000I-100000J0D01*
G01*
D14*
X190991000Y-105113000D02*
X195391000Y-105113000D01*
X190991000Y-109213000D02*
X195391000Y-109213000D01*
D12*
%TO.C,Rioc6*%
X192624000Y-114195500D02*
X191424000Y-114195500D01*
X191424000Y-112195500D02*
X192624000Y-112195500D01*
%TO.C,Rpd6*%
X201608000Y-112195500D02*
X202808000Y-112195500D01*
X202808000Y-114195500D02*
X201608000Y-114195500D01*
%TO.C,Roo6*%
X197290000Y-112195500D02*
X198490000Y-112195500D01*
X198490000Y-114195500D02*
X197290000Y-114195500D01*
%TO.C,Q6*%
X205964000Y-105051000D02*
X205964000Y-106561000D01*
X202263000Y-105051000D02*
X202263000Y-106561000D01*
X198993000Y-106561000D02*
X209233000Y-106561000D01*
X209233000Y-105051000D02*
X209233000Y-109692000D01*
X198993000Y-105051000D02*
X198993000Y-109692000D01*
X198993000Y-109692000D02*
X209233000Y-109692000D01*
X198993000Y-105051000D02*
X209233000Y-105051000D01*
%TO.C,Dlj6*%
X210758500Y-112495500D02*
X213558500Y-112495500D01*
X210758500Y-113895500D02*
X213558500Y-113895500D01*
X210758500Y-112495500D02*
X210758500Y-113895500D01*
%TO.C,Rlj6*%
X206999000Y-114195500D02*
X205799000Y-114195500D01*
X205799000Y-112195500D02*
X206999000Y-112195500D01*
%TO.C,Dlj3*%
X210758500Y-82079000D02*
X213558500Y-82079000D01*
X210758500Y-83479000D02*
X213558500Y-83479000D01*
X210758500Y-82079000D02*
X210758500Y-83479000D01*
%TO.C,Q3*%
X205964000Y-74634500D02*
X205964000Y-76144500D01*
X202263000Y-74634500D02*
X202263000Y-76144500D01*
X198993000Y-76144500D02*
X209233000Y-76144500D01*
X209233000Y-74634500D02*
X209233000Y-79275500D01*
X198993000Y-74634500D02*
X198993000Y-79275500D01*
X198993000Y-79275500D02*
X209233000Y-79275500D01*
X198993000Y-74634500D02*
X209233000Y-74634500D01*
D13*
%TO.C,U_OC3*%
X188321000Y-74886500D02*
G75*
G03*
X188321000Y-74886500I-100000J0D01*
G01*
D14*
X190991000Y-74696500D02*
X195391000Y-74696500D01*
X190991000Y-78796500D02*
X195391000Y-78796500D01*
D12*
%TO.C,Rioc3*%
X192624000Y-83779000D02*
X191424000Y-83779000D01*
X191424000Y-81779000D02*
X192624000Y-81779000D01*
%TO.C,Rlj3*%
X206999000Y-83779000D02*
X205799000Y-83779000D01*
X205799000Y-81779000D02*
X206999000Y-81779000D01*
%TO.C,Rpd3*%
X201608000Y-81779000D02*
X202808000Y-81779000D01*
X202808000Y-83779000D02*
X201608000Y-83779000D01*
%TO.C,D3*%
X211509000Y-74077500D02*
X211509000Y-79377500D01*
X213989000Y-74077500D02*
X213989000Y-79377500D01*
X213989000Y-74077500D02*
X211529000Y-74077500D01*
%TO.C,Roo3*%
X197290000Y-81779000D02*
X198490000Y-81779000D01*
X198490000Y-83779000D02*
X197290000Y-83779000D01*
%TO.C,D4*%
X211509000Y-84237500D02*
X211509000Y-89537500D01*
X213989000Y-84237500D02*
X213989000Y-89537500D01*
X213989000Y-84237500D02*
X211529000Y-84237500D01*
D13*
%TO.C,U_OC4*%
X188321000Y-85046500D02*
G75*
G03*
X188321000Y-85046500I-100000J0D01*
G01*
D14*
X190991000Y-84856500D02*
X195391000Y-84856500D01*
X190991000Y-88956500D02*
X195391000Y-88956500D01*
D12*
%TO.C,Rioc4*%
X192624000Y-93939000D02*
X191424000Y-93939000D01*
X191424000Y-91939000D02*
X192624000Y-91939000D01*
%TO.C,Rpd4*%
X201608000Y-91939000D02*
X202808000Y-91939000D01*
X202808000Y-93939000D02*
X201608000Y-93939000D01*
%TO.C,Roo4*%
X197290000Y-91939000D02*
X198490000Y-91939000D01*
X198490000Y-93939000D02*
X197290000Y-93939000D01*
%TO.C,Q4*%
X205964000Y-84794500D02*
X205964000Y-86304500D01*
X202263000Y-84794500D02*
X202263000Y-86304500D01*
X198993000Y-86304500D02*
X209233000Y-86304500D01*
X209233000Y-84794500D02*
X209233000Y-89435500D01*
X198993000Y-84794500D02*
X198993000Y-89435500D01*
X198993000Y-89435500D02*
X209233000Y-89435500D01*
X198993000Y-84794500D02*
X209233000Y-84794500D01*
%TO.C,Dlj4*%
X210758500Y-92239000D02*
X213558500Y-92239000D01*
X210758500Y-93639000D02*
X213558500Y-93639000D01*
X210758500Y-92239000D02*
X210758500Y-93639000D01*
%TO.C,Rlj4*%
X206999000Y-93939000D02*
X205799000Y-93939000D01*
X205799000Y-91939000D02*
X206999000Y-91939000D01*
%TO.C,Dlj2*%
X210734500Y-71880500D02*
X213534500Y-71880500D01*
X210734500Y-73280500D02*
X213534500Y-73280500D01*
X210734500Y-71880500D02*
X210734500Y-73280500D01*
%TO.C,Q2*%
X205940000Y-64436000D02*
X205940000Y-65946000D01*
X202239000Y-64436000D02*
X202239000Y-65946000D01*
X198969000Y-65946000D02*
X209209000Y-65946000D01*
X209209000Y-64436000D02*
X209209000Y-69077000D01*
X198969000Y-64436000D02*
X198969000Y-69077000D01*
X198969000Y-69077000D02*
X209209000Y-69077000D01*
X198969000Y-64436000D02*
X209209000Y-64436000D01*
D13*
%TO.C,U_OC2*%
X188297000Y-64688000D02*
G75*
G03*
X188297000Y-64688000I-100000J0D01*
G01*
D14*
X190967000Y-64498000D02*
X195367000Y-64498000D01*
X190967000Y-68598000D02*
X195367000Y-68598000D01*
D12*
%TO.C,Rioc2*%
X192600000Y-73580500D02*
X191400000Y-73580500D01*
X191400000Y-71580500D02*
X192600000Y-71580500D01*
%TO.C,Rlj2*%
X206975000Y-73580500D02*
X205775000Y-73580500D01*
X205775000Y-71580500D02*
X206975000Y-71580500D01*
%TO.C,Rpd2*%
X201584000Y-71580500D02*
X202784000Y-71580500D01*
X202784000Y-73580500D02*
X201584000Y-73580500D01*
%TO.C,D2*%
X211485000Y-63879000D02*
X211485000Y-69179000D01*
X213965000Y-63879000D02*
X213965000Y-69179000D01*
X213965000Y-63879000D02*
X211505000Y-63879000D01*
%TO.C,Roo2*%
X197266000Y-71580500D02*
X198466000Y-71580500D01*
X198466000Y-73580500D02*
X197266000Y-73580500D01*
%TO.C,Rlpow1*%
X166271500Y-58213500D02*
X165071500Y-58213500D01*
X165071500Y-56213500D02*
X166271500Y-56213500D01*
%TO.C,Dlpow1*%
X163935000Y-54037000D02*
X166735000Y-54037000D01*
X163935000Y-55437000D02*
X166735000Y-55437000D01*
X163935000Y-54037000D02*
X163935000Y-55437000D01*
%TO.C,D1*%
X211485000Y-53465000D02*
X211485000Y-58765000D01*
X213965000Y-53465000D02*
X213965000Y-58765000D01*
X213965000Y-53465000D02*
X211505000Y-53465000D01*
%TO.C,Roo1*%
X197266000Y-61166500D02*
X198466000Y-61166500D01*
X198466000Y-63166500D02*
X197266000Y-63166500D01*
%TO.C,Rfbt1*%
X162214000Y-68850000D02*
X163414000Y-68850000D01*
X163414000Y-70850000D02*
X162214000Y-70850000D01*
%TO.C,Rfbb1*%
X166786000Y-68850000D02*
X167986000Y-68850000D01*
X167986000Y-70850000D02*
X166786000Y-70850000D01*
%TO.C,Rlj1*%
X206975000Y-63166500D02*
X205775000Y-63166500D01*
X205775000Y-61166500D02*
X206975000Y-61166500D01*
%TO.C,Rpd1*%
X201584000Y-61166500D02*
X202784000Y-61166500D01*
X202784000Y-63166500D02*
X201584000Y-63166500D01*
%TO.C,Rioc1*%
X192600000Y-63166500D02*
X191400000Y-63166500D01*
X191400000Y-61166500D02*
X192600000Y-61166500D01*
%TO.C,Cout1*%
X158584000Y-99721000D02*
X158584000Y-98721000D01*
X156884000Y-98721000D02*
X156884000Y-99721000D01*
%TO.C,Cboot1*%
X166759000Y-64223000D02*
X167759000Y-64223000D01*
X167759000Y-62523000D02*
X166759000Y-62523000D01*
%TO.C,C1*%
X157622000Y-107112000D02*
X156322000Y-107112000D01*
X156972000Y-106512000D02*
X156972000Y-107712000D01*
X157440000Y-113163000D02*
X156504000Y-113163000D01*
X157648000Y-113123000D02*
X156296000Y-113123000D01*
X157806000Y-113083000D02*
X156138000Y-113083000D01*
X157938000Y-113043000D02*
X156006000Y-113043000D01*
X158053000Y-113003000D02*
X155891000Y-113003000D01*
X158156000Y-112963000D02*
X155788000Y-112963000D01*
X158250000Y-112923000D02*
X155694000Y-112923000D01*
X158336000Y-112883000D02*
X155608000Y-112883000D01*
X158417000Y-112843000D02*
X155527000Y-112843000D01*
X158492000Y-112803000D02*
X155452000Y-112803000D01*
X158563000Y-112763000D02*
X155381000Y-112763000D01*
X158630000Y-112723000D02*
X155314000Y-112723000D01*
X158693000Y-112683000D02*
X155251000Y-112683000D01*
X158753000Y-112643000D02*
X155191000Y-112643000D01*
X158811000Y-112603000D02*
X155133000Y-112603000D01*
X158866000Y-112563000D02*
X155078000Y-112563000D01*
X158918000Y-112523000D02*
X155026000Y-112523000D01*
X158969000Y-112483000D02*
X154975000Y-112483000D01*
X159017000Y-112443000D02*
X154927000Y-112443000D01*
X159064000Y-112403000D02*
X154880000Y-112403000D01*
X159109000Y-112363000D02*
X154835000Y-112363000D01*
X159152000Y-112323000D02*
X154792000Y-112323000D01*
X159194000Y-112283000D02*
X154750000Y-112283000D01*
X159234000Y-112243000D02*
X154710000Y-112243000D01*
X159273000Y-112203000D02*
X154671000Y-112203000D01*
X155992000Y-112163000D02*
X154633000Y-112163000D01*
X159311000Y-112163000D02*
X157952000Y-112163000D01*
X155992000Y-112123000D02*
X154597000Y-112123000D01*
X159347000Y-112123000D02*
X157952000Y-112123000D01*
X155992000Y-112083000D02*
X154561000Y-112083000D01*
X159383000Y-112083000D02*
X157952000Y-112083000D01*
X155992000Y-112043000D02*
X154527000Y-112043000D01*
X159417000Y-112043000D02*
X157952000Y-112043000D01*
X155992000Y-112003000D02*
X154494000Y-112003000D01*
X159450000Y-112003000D02*
X157952000Y-112003000D01*
X155992000Y-111963000D02*
X154462000Y-111963000D01*
X159482000Y-111963000D02*
X157952000Y-111963000D01*
X155992000Y-111923000D02*
X154432000Y-111923000D01*
X159512000Y-111923000D02*
X157952000Y-111923000D01*
X155992000Y-111883000D02*
X154402000Y-111883000D01*
X159542000Y-111883000D02*
X157952000Y-111883000D01*
X155992000Y-111843000D02*
X154373000Y-111843000D01*
X159571000Y-111843000D02*
X157952000Y-111843000D01*
X155992000Y-111803000D02*
X154345000Y-111803000D01*
X159599000Y-111803000D02*
X157952000Y-111803000D01*
X155992000Y-111763000D02*
X154318000Y-111763000D01*
X159626000Y-111763000D02*
X157952000Y-111763000D01*
X155992000Y-111723000D02*
X154291000Y-111723000D01*
X159653000Y-111723000D02*
X157952000Y-111723000D01*
X155992000Y-111683000D02*
X154266000Y-111683000D01*
X159678000Y-111683000D02*
X157952000Y-111683000D01*
X155992000Y-111643000D02*
X154241000Y-111643000D01*
X159703000Y-111643000D02*
X157952000Y-111643000D01*
X155992000Y-111603000D02*
X154217000Y-111603000D01*
X159727000Y-111603000D02*
X157952000Y-111603000D01*
X155992000Y-111563000D02*
X154194000Y-111563000D01*
X159750000Y-111563000D02*
X157952000Y-111563000D01*
X155992000Y-111523000D02*
X154172000Y-111523000D01*
X159772000Y-111523000D02*
X157952000Y-111523000D01*
X155992000Y-111483000D02*
X154150000Y-111483000D01*
X159794000Y-111483000D02*
X157952000Y-111483000D01*
X155992000Y-111443000D02*
X154129000Y-111443000D01*
X159815000Y-111443000D02*
X157952000Y-111443000D01*
X155992000Y-111403000D02*
X154109000Y-111403000D01*
X159835000Y-111403000D02*
X157952000Y-111403000D01*
X155992000Y-111363000D02*
X154090000Y-111363000D01*
X159854000Y-111363000D02*
X157952000Y-111363000D01*
X155992000Y-111323000D02*
X154071000Y-111323000D01*
X159873000Y-111323000D02*
X157952000Y-111323000D01*
X155992000Y-111283000D02*
X154053000Y-111283000D01*
X159891000Y-111283000D02*
X157952000Y-111283000D01*
X155992000Y-111243000D02*
X154035000Y-111243000D01*
X159909000Y-111243000D02*
X157952000Y-111243000D01*
X155992000Y-111203000D02*
X154018000Y-111203000D01*
X159926000Y-111203000D02*
X157952000Y-111203000D01*
X155992000Y-111163000D02*
X154002000Y-111163000D01*
X159942000Y-111163000D02*
X157952000Y-111163000D01*
X155992000Y-111123000D02*
X153986000Y-111123000D01*
X159958000Y-111123000D02*
X157952000Y-111123000D01*
X155992000Y-111083000D02*
X153971000Y-111083000D01*
X159973000Y-111083000D02*
X157952000Y-111083000D01*
X155992000Y-111043000D02*
X153957000Y-111043000D01*
X159987000Y-111043000D02*
X157952000Y-111043000D01*
X155992000Y-111003000D02*
X153943000Y-111003000D01*
X160001000Y-111003000D02*
X157952000Y-111003000D01*
X155992000Y-110963000D02*
X153930000Y-110963000D01*
X160014000Y-110963000D02*
X157952000Y-110963000D01*
X155992000Y-110923000D02*
X153917000Y-110923000D01*
X160027000Y-110923000D02*
X157952000Y-110923000D01*
X155992000Y-110883000D02*
X153905000Y-110883000D01*
X160039000Y-110883000D02*
X157952000Y-110883000D01*
X155992000Y-110843000D02*
X153893000Y-110843000D01*
X160051000Y-110843000D02*
X157952000Y-110843000D01*
X155992000Y-110803000D02*
X153882000Y-110803000D01*
X160062000Y-110803000D02*
X157952000Y-110803000D01*
X155992000Y-110763000D02*
X153872000Y-110763000D01*
X160072000Y-110763000D02*
X157952000Y-110763000D01*
X155992000Y-110723000D02*
X153862000Y-110723000D01*
X160082000Y-110723000D02*
X157952000Y-110723000D01*
X155992000Y-110683000D02*
X153853000Y-110683000D01*
X160091000Y-110683000D02*
X157952000Y-110683000D01*
X155992000Y-110642000D02*
X153844000Y-110642000D01*
X160100000Y-110642000D02*
X157952000Y-110642000D01*
X155992000Y-110602000D02*
X153835000Y-110602000D01*
X160109000Y-110602000D02*
X157952000Y-110602000D01*
X155992000Y-110562000D02*
X153828000Y-110562000D01*
X160116000Y-110562000D02*
X157952000Y-110562000D01*
X155992000Y-110522000D02*
X153820000Y-110522000D01*
X160124000Y-110522000D02*
X157952000Y-110522000D01*
X155992000Y-110482000D02*
X153814000Y-110482000D01*
X160130000Y-110482000D02*
X157952000Y-110482000D01*
X155992000Y-110442000D02*
X153807000Y-110442000D01*
X160137000Y-110442000D02*
X157952000Y-110442000D01*
X155992000Y-110402000D02*
X153802000Y-110402000D01*
X160142000Y-110402000D02*
X157952000Y-110402000D01*
X155992000Y-110362000D02*
X153796000Y-110362000D01*
X160148000Y-110362000D02*
X157952000Y-110362000D01*
X155992000Y-110322000D02*
X153792000Y-110322000D01*
X160152000Y-110322000D02*
X157952000Y-110322000D01*
X155992000Y-110282000D02*
X153787000Y-110282000D01*
X160157000Y-110282000D02*
X157952000Y-110282000D01*
X155992000Y-110242000D02*
X153784000Y-110242000D01*
X160160000Y-110242000D02*
X157952000Y-110242000D01*
X160164000Y-110202000D02*
X153780000Y-110202000D01*
X160166000Y-110162000D02*
X153778000Y-110162000D01*
X160169000Y-110122000D02*
X153775000Y-110122000D01*
X160170000Y-110082000D02*
X153774000Y-110082000D01*
X160172000Y-110042000D02*
X153772000Y-110042000D01*
X160172000Y-110002000D02*
X153772000Y-110002000D01*
X160172000Y-109962000D02*
X153772000Y-109962000D01*
X158151136Y-112979820D02*
G75*
G03*
X158152000Y-106944518I-1179136J3017820D01*
G01*
X155792864Y-112979820D02*
G75*
G02*
X155792000Y-106944518I1179136J3017820D01*
G01*
X155792864Y-112979820D02*
G75*
G03*
X158152000Y-112979482I1179136J3017820D01*
G01*
D10*
%TO.C,D7*%
X171704000Y-63019000D02*
X171154000Y-62669000D01*
X171154000Y-62669000D02*
X172254000Y-62669000D01*
X172254000Y-62669000D02*
X171754000Y-63019000D01*
D12*
%TO.C,U2*%
X164859000Y-65598000D02*
X165659000Y-64798000D01*
X165659000Y-64798000D02*
X169659000Y-64798000D01*
X169659000Y-64798000D02*
X169659000Y-68298000D01*
X169659000Y-68298000D02*
X164859000Y-68298000D01*
X164859000Y-68298000D02*
X164859000Y-65598000D01*
%TO.C,Cin1*%
X170811000Y-67961000D02*
X170811000Y-69961000D01*
X172851000Y-69961000D02*
X172851000Y-67961000D01*
D13*
%TO.C,U_OC1*%
X188297000Y-54274000D02*
G75*
G03*
X188297000Y-54274000I-100000J0D01*
G01*
D14*
X190967000Y-54084000D02*
X195367000Y-54084000D01*
X190967000Y-58184000D02*
X195367000Y-58184000D01*
D12*
%TO.C,Dlj1*%
X210734500Y-61466500D02*
X213534500Y-61466500D01*
X210734500Y-62866500D02*
X213534500Y-62866500D01*
X210734500Y-61466500D02*
X210734500Y-62866500D01*
%TO.C,Q1*%
X205940000Y-54022000D02*
X205940000Y-55532000D01*
X202239000Y-54022000D02*
X202239000Y-55532000D01*
X198969000Y-55532000D02*
X209209000Y-55532000D01*
X209209000Y-54022000D02*
X209209000Y-58663000D01*
X198969000Y-54022000D02*
X198969000Y-58663000D01*
X198969000Y-58663000D02*
X209209000Y-58663000D01*
X198969000Y-54022000D02*
X209209000Y-54022000D01*
%TO.C,L1*%
D10*
X156170333Y-70175380D02*
X155694142Y-70175380D01*
X155694142Y-69175380D01*
X157027476Y-70175380D02*
X156456047Y-70175380D01*
X156741761Y-70175380D02*
X156741761Y-69175380D01*
X156646523Y-69318238D01*
X156551285Y-69413476D01*
X156456047Y-69461095D01*
%TO.C,E_33*%
X153201880Y-95026071D02*
X153535214Y-95026071D01*
X153678071Y-95549880D02*
X153201880Y-95549880D01*
X153201880Y-94549880D01*
X153678071Y-94549880D01*
X153868547Y-95645119D02*
X154630452Y-95645119D01*
X154773309Y-94549880D02*
X155392357Y-94549880D01*
X155059023Y-94930833D01*
X155201880Y-94930833D01*
X155297119Y-94978452D01*
X155344738Y-95026071D01*
X155392357Y-95121309D01*
X155392357Y-95359404D01*
X155344738Y-95454642D01*
X155297119Y-95502261D01*
X155201880Y-95549880D01*
X154916166Y-95549880D01*
X154820928Y-95502261D01*
X154773309Y-95454642D01*
X155725690Y-94549880D02*
X156344738Y-94549880D01*
X156011404Y-94930833D01*
X156154261Y-94930833D01*
X156249500Y-94978452D01*
X156297119Y-95026071D01*
X156344738Y-95121309D01*
X156344738Y-95359404D01*
X156297119Y-95454642D01*
X156249500Y-95502261D01*
X156154261Y-95549880D01*
X155868547Y-95549880D01*
X155773309Y-95502261D01*
X155725690Y-95454642D01*
%TO.C,JP1*%
X156519666Y-52093880D02*
X156519666Y-52808166D01*
X156472047Y-52951023D01*
X156376809Y-53046261D01*
X156233952Y-53093880D01*
X156138714Y-53093880D01*
X156995857Y-53093880D02*
X156995857Y-52093880D01*
X157376809Y-52093880D01*
X157472047Y-52141500D01*
X157519666Y-52189119D01*
X157567285Y-52284357D01*
X157567285Y-52427214D01*
X157519666Y-52522452D01*
X157472047Y-52570071D01*
X157376809Y-52617690D01*
X156995857Y-52617690D01*
X158519666Y-53093880D02*
X157948238Y-53093880D01*
X158233952Y-53093880D02*
X158233952Y-52093880D01*
X158138714Y-52236738D01*
X158043476Y-52331976D01*
X157948238Y-52379595D01*
%TO.C,J6*%
X223607380Y-109680333D02*
X224321666Y-109680333D01*
X224464523Y-109727952D01*
X224559761Y-109823190D01*
X224607380Y-109966047D01*
X224607380Y-110061285D01*
X223607380Y-108775571D02*
X223607380Y-108966047D01*
X223655000Y-109061285D01*
X223702619Y-109108904D01*
X223845476Y-109204142D01*
X224035952Y-109251761D01*
X224416904Y-109251761D01*
X224512142Y-109204142D01*
X224559761Y-109156523D01*
X224607380Y-109061285D01*
X224607380Y-108870809D01*
X224559761Y-108775571D01*
X224512142Y-108727952D01*
X224416904Y-108680333D01*
X224178809Y-108680333D01*
X224083571Y-108727952D01*
X224035952Y-108775571D01*
X223988333Y-108870809D01*
X223988333Y-109061285D01*
X224035952Y-109156523D01*
X224083571Y-109204142D01*
X224178809Y-109251761D01*
%TO.C,J5*%
X223607380Y-99520333D02*
X224321666Y-99520333D01*
X224464523Y-99567952D01*
X224559761Y-99663190D01*
X224607380Y-99806047D01*
X224607380Y-99901285D01*
X223607380Y-98567952D02*
X223607380Y-99044142D01*
X224083571Y-99091761D01*
X224035952Y-99044142D01*
X223988333Y-98948904D01*
X223988333Y-98710809D01*
X224035952Y-98615571D01*
X224083571Y-98567952D01*
X224178809Y-98520333D01*
X224416904Y-98520333D01*
X224512142Y-98567952D01*
X224559761Y-98615571D01*
X224607380Y-98710809D01*
X224607380Y-98948904D01*
X224559761Y-99044142D01*
X224512142Y-99091761D01*
%TO.C,J4*%
X223607380Y-89360333D02*
X224321666Y-89360333D01*
X224464523Y-89407952D01*
X224559761Y-89503190D01*
X224607380Y-89646047D01*
X224607380Y-89741285D01*
X223940714Y-88455571D02*
X224607380Y-88455571D01*
X223559761Y-88693666D02*
X224274047Y-88931761D01*
X224274047Y-88312714D01*
%TO.C,J3*%
X223607380Y-79200333D02*
X224321666Y-79200333D01*
X224464523Y-79247952D01*
X224559761Y-79343190D01*
X224607380Y-79486047D01*
X224607380Y-79581285D01*
X223607380Y-78819380D02*
X223607380Y-78200333D01*
X223988333Y-78533666D01*
X223988333Y-78390809D01*
X224035952Y-78295571D01*
X224083571Y-78247952D01*
X224178809Y-78200333D01*
X224416904Y-78200333D01*
X224512142Y-78247952D01*
X224559761Y-78295571D01*
X224607380Y-78390809D01*
X224607380Y-78676523D01*
X224559761Y-78771761D01*
X224512142Y-78819380D01*
%TO.C,J2*%
X223607380Y-69040333D02*
X224321666Y-69040333D01*
X224464523Y-69087952D01*
X224559761Y-69183190D01*
X224607380Y-69326047D01*
X224607380Y-69421285D01*
X223702619Y-68611761D02*
X223655000Y-68564142D01*
X223607380Y-68468904D01*
X223607380Y-68230809D01*
X223655000Y-68135571D01*
X223702619Y-68087952D01*
X223797857Y-68040333D01*
X223893095Y-68040333D01*
X224035952Y-68087952D01*
X224607380Y-68659380D01*
X224607380Y-68040333D01*
%TO.C,J1*%
X223607380Y-58880333D02*
X224321666Y-58880333D01*
X224464523Y-58927952D01*
X224559761Y-59023190D01*
X224607380Y-59166047D01*
X224607380Y-59261285D01*
X224607380Y-57880333D02*
X224607380Y-58451761D01*
X224607380Y-58166047D02*
X223607380Y-58166047D01*
X223750238Y-58261285D01*
X223845476Y-58356523D01*
X223893095Y-58451761D01*
%TO.C,U1*%
X171704095Y-112732380D02*
X171704095Y-113541904D01*
X171751714Y-113637142D01*
X171799333Y-113684761D01*
X171894571Y-113732380D01*
X172085047Y-113732380D01*
X172180285Y-113684761D01*
X172227904Y-113637142D01*
X172275523Y-113541904D01*
X172275523Y-112732380D01*
X173275523Y-113732380D02*
X172704095Y-113732380D01*
X172989809Y-113732380D02*
X172989809Y-112732380D01*
X172894571Y-112875238D01*
X172799333Y-112970476D01*
X172704095Y-113018095D01*
%TO.C,Cout2*%
X153074857Y-104687642D02*
X153027238Y-104735261D01*
X152884380Y-104782880D01*
X152789142Y-104782880D01*
X152646285Y-104735261D01*
X152551047Y-104640023D01*
X152503428Y-104544785D01*
X152455809Y-104354309D01*
X152455809Y-104211452D01*
X152503428Y-104020976D01*
X152551047Y-103925738D01*
X152646285Y-103830500D01*
X152789142Y-103782880D01*
X152884380Y-103782880D01*
X153027238Y-103830500D01*
X153074857Y-103878119D01*
X153646285Y-104782880D02*
X153551047Y-104735261D01*
X153503428Y-104687642D01*
X153455809Y-104592404D01*
X153455809Y-104306690D01*
X153503428Y-104211452D01*
X153551047Y-104163833D01*
X153646285Y-104116214D01*
X153789142Y-104116214D01*
X153884380Y-104163833D01*
X153932000Y-104211452D01*
X153979619Y-104306690D01*
X153979619Y-104592404D01*
X153932000Y-104687642D01*
X153884380Y-104735261D01*
X153789142Y-104782880D01*
X153646285Y-104782880D01*
X154836761Y-104116214D02*
X154836761Y-104782880D01*
X154408190Y-104116214D02*
X154408190Y-104640023D01*
X154455809Y-104735261D01*
X154551047Y-104782880D01*
X154693904Y-104782880D01*
X154789142Y-104735261D01*
X154836761Y-104687642D01*
X155170095Y-104116214D02*
X155551047Y-104116214D01*
X155312952Y-103782880D02*
X155312952Y-104640023D01*
X155360571Y-104735261D01*
X155455809Y-104782880D01*
X155551047Y-104782880D01*
X155836761Y-103878119D02*
X155884380Y-103830500D01*
X155979619Y-103782880D01*
X156217714Y-103782880D01*
X156312952Y-103830500D01*
X156360571Y-103878119D01*
X156408190Y-103973357D01*
X156408190Y-104068595D01*
X156360571Y-104211452D01*
X155789142Y-104782880D01*
X156408190Y-104782880D01*
%TO.C,Dlj5*%
X211320404Y-101836880D02*
X211320404Y-100836880D01*
X211558500Y-100836880D01*
X211701357Y-100884500D01*
X211796595Y-100979738D01*
X211844214Y-101074976D01*
X211891833Y-101265452D01*
X211891833Y-101408309D01*
X211844214Y-101598785D01*
X211796595Y-101694023D01*
X211701357Y-101789261D01*
X211558500Y-101836880D01*
X211320404Y-101836880D01*
X212463261Y-101836880D02*
X212368023Y-101789261D01*
X212320404Y-101694023D01*
X212320404Y-100836880D01*
X212844214Y-101170214D02*
X212844214Y-102027357D01*
X212796595Y-102122595D01*
X212701357Y-102170214D01*
X212653738Y-102170214D01*
X212844214Y-100836880D02*
X212796595Y-100884500D01*
X212844214Y-100932119D01*
X212891833Y-100884500D01*
X212844214Y-100836880D01*
X212844214Y-100932119D01*
X213796595Y-100836880D02*
X213320404Y-100836880D01*
X213272785Y-101313071D01*
X213320404Y-101265452D01*
X213415642Y-101217833D01*
X213653738Y-101217833D01*
X213748976Y-101265452D01*
X213796595Y-101313071D01*
X213844214Y-101408309D01*
X213844214Y-101646404D01*
X213796595Y-101741642D01*
X213748976Y-101789261D01*
X213653738Y-101836880D01*
X213415642Y-101836880D01*
X213320404Y-101789261D01*
X213272785Y-101741642D01*
%TO.C,Q5*%
X200144261Y-96280619D02*
X200049023Y-96233000D01*
X199953785Y-96137761D01*
X199810928Y-95994904D01*
X199715690Y-95947285D01*
X199620452Y-95947285D01*
X199668071Y-96185380D02*
X199572833Y-96137761D01*
X199477595Y-96042523D01*
X199429976Y-95852047D01*
X199429976Y-95518714D01*
X199477595Y-95328238D01*
X199572833Y-95233000D01*
X199668071Y-95185380D01*
X199858547Y-95185380D01*
X199953785Y-95233000D01*
X200049023Y-95328238D01*
X200096642Y-95518714D01*
X200096642Y-95852047D01*
X200049023Y-96042523D01*
X199953785Y-96137761D01*
X199858547Y-96185380D01*
X199668071Y-96185380D01*
X201001404Y-95185380D02*
X200525214Y-95185380D01*
X200477595Y-95661571D01*
X200525214Y-95613952D01*
X200620452Y-95566333D01*
X200858547Y-95566333D01*
X200953785Y-95613952D01*
X201001404Y-95661571D01*
X201049023Y-95756809D01*
X201049023Y-95994904D01*
X201001404Y-96090142D01*
X200953785Y-96137761D01*
X200858547Y-96185380D01*
X200620452Y-96185380D01*
X200525214Y-96137761D01*
X200477595Y-96090142D01*
%TO.C,U_OC5*%
D15*
X191018362Y-96580871D02*
X191018362Y-97392626D01*
X191066112Y-97488127D01*
X191113862Y-97535877D01*
X191209363Y-97583627D01*
X191400364Y-97583627D01*
X191495864Y-97535877D01*
X191543615Y-97488127D01*
X191591365Y-97392626D01*
X191591365Y-96580871D01*
X191830116Y-97679128D02*
X192594121Y-97679128D01*
X193023874Y-96580871D02*
X193214875Y-96580871D01*
X193310375Y-96628622D01*
X193405876Y-96724122D01*
X193453626Y-96915123D01*
X193453626Y-97249375D01*
X193405876Y-97440376D01*
X193310375Y-97535877D01*
X193214875Y-97583627D01*
X193023874Y-97583627D01*
X192928373Y-97535877D01*
X192832872Y-97440376D01*
X192785122Y-97249375D01*
X192785122Y-96915123D01*
X192832872Y-96724122D01*
X192928373Y-96628622D01*
X193023874Y-96580871D01*
X194456382Y-97488127D02*
X194408632Y-97535877D01*
X194265381Y-97583627D01*
X194169880Y-97583627D01*
X194026630Y-97535877D01*
X193931129Y-97440376D01*
X193883379Y-97344876D01*
X193835628Y-97153875D01*
X193835628Y-97010624D01*
X193883379Y-96819623D01*
X193931129Y-96724122D01*
X194026630Y-96628622D01*
X194169880Y-96580871D01*
X194265381Y-96580871D01*
X194408632Y-96628622D01*
X194456382Y-96676372D01*
X195363638Y-96580871D02*
X194886135Y-96580871D01*
X194838384Y-97058374D01*
X194886135Y-97010624D01*
X194981635Y-96962874D01*
X195220387Y-96962874D01*
X195315887Y-97010624D01*
X195363638Y-97058374D01*
X195411388Y-97153875D01*
X195411388Y-97392626D01*
X195363638Y-97488127D01*
X195315887Y-97535877D01*
X195220387Y-97583627D01*
X194981635Y-97583627D01*
X194886135Y-97535877D01*
X194838384Y-97488127D01*
%TO.C,Rioc5*%
D10*
X190698785Y-101900380D02*
X190365452Y-101424190D01*
X190127357Y-101900380D02*
X190127357Y-100900380D01*
X190508309Y-100900380D01*
X190603547Y-100948000D01*
X190651166Y-100995619D01*
X190698785Y-101090857D01*
X190698785Y-101233714D01*
X190651166Y-101328952D01*
X190603547Y-101376571D01*
X190508309Y-101424190D01*
X190127357Y-101424190D01*
X191127357Y-101900380D02*
X191127357Y-101233714D01*
X191127357Y-100900380D02*
X191079738Y-100948000D01*
X191127357Y-100995619D01*
X191174976Y-100948000D01*
X191127357Y-100900380D01*
X191127357Y-100995619D01*
X191746404Y-101900380D02*
X191651166Y-101852761D01*
X191603547Y-101805142D01*
X191555928Y-101709904D01*
X191555928Y-101424190D01*
X191603547Y-101328952D01*
X191651166Y-101281333D01*
X191746404Y-101233714D01*
X191889261Y-101233714D01*
X191984500Y-101281333D01*
X192032119Y-101328952D01*
X192079738Y-101424190D01*
X192079738Y-101709904D01*
X192032119Y-101805142D01*
X191984500Y-101852761D01*
X191889261Y-101900380D01*
X191746404Y-101900380D01*
X192936880Y-101852761D02*
X192841642Y-101900380D01*
X192651166Y-101900380D01*
X192555928Y-101852761D01*
X192508309Y-101805142D01*
X192460690Y-101709904D01*
X192460690Y-101424190D01*
X192508309Y-101328952D01*
X192555928Y-101281333D01*
X192651166Y-101233714D01*
X192841642Y-101233714D01*
X192936880Y-101281333D01*
X193841642Y-100900380D02*
X193365452Y-100900380D01*
X193317833Y-101376571D01*
X193365452Y-101328952D01*
X193460690Y-101281333D01*
X193698785Y-101281333D01*
X193794023Y-101328952D01*
X193841642Y-101376571D01*
X193889261Y-101471809D01*
X193889261Y-101709904D01*
X193841642Y-101805142D01*
X193794023Y-101852761D01*
X193698785Y-101900380D01*
X193460690Y-101900380D01*
X193365452Y-101852761D01*
X193317833Y-101805142D01*
%TO.C,Rlj5*%
X205668833Y-101900380D02*
X205335500Y-101424190D01*
X205097404Y-101900380D02*
X205097404Y-100900380D01*
X205478357Y-100900380D01*
X205573595Y-100948000D01*
X205621214Y-100995619D01*
X205668833Y-101090857D01*
X205668833Y-101233714D01*
X205621214Y-101328952D01*
X205573595Y-101376571D01*
X205478357Y-101424190D01*
X205097404Y-101424190D01*
X206240261Y-101900380D02*
X206145023Y-101852761D01*
X206097404Y-101757523D01*
X206097404Y-100900380D01*
X206621214Y-101233714D02*
X206621214Y-102090857D01*
X206573595Y-102186095D01*
X206478357Y-102233714D01*
X206430738Y-102233714D01*
X206621214Y-100900380D02*
X206573595Y-100948000D01*
X206621214Y-100995619D01*
X206668833Y-100948000D01*
X206621214Y-100900380D01*
X206621214Y-100995619D01*
X207573595Y-100900380D02*
X207097404Y-100900380D01*
X207049785Y-101376571D01*
X207097404Y-101328952D01*
X207192642Y-101281333D01*
X207430738Y-101281333D01*
X207525976Y-101328952D01*
X207573595Y-101376571D01*
X207621214Y-101471809D01*
X207621214Y-101709904D01*
X207573595Y-101805142D01*
X207525976Y-101852761D01*
X207430738Y-101900380D01*
X207192642Y-101900380D01*
X207097404Y-101852761D01*
X207049785Y-101805142D01*
%TO.C,Rpd5*%
X201136571Y-101901380D02*
X200803238Y-101425190D01*
X200565142Y-101901380D02*
X200565142Y-100901380D01*
X200946095Y-100901380D01*
X201041333Y-100949000D01*
X201088952Y-100996619D01*
X201136571Y-101091857D01*
X201136571Y-101234714D01*
X201088952Y-101329952D01*
X201041333Y-101377571D01*
X200946095Y-101425190D01*
X200565142Y-101425190D01*
X201565142Y-101234714D02*
X201565142Y-102234714D01*
X201565142Y-101282333D02*
X201660380Y-101234714D01*
X201850857Y-101234714D01*
X201946095Y-101282333D01*
X201993714Y-101329952D01*
X202041333Y-101425190D01*
X202041333Y-101710904D01*
X201993714Y-101806142D01*
X201946095Y-101853761D01*
X201850857Y-101901380D01*
X201660380Y-101901380D01*
X201565142Y-101853761D01*
X202898476Y-101901380D02*
X202898476Y-100901380D01*
X202898476Y-101853761D02*
X202803238Y-101901380D01*
X202612761Y-101901380D01*
X202517523Y-101853761D01*
X202469904Y-101806142D01*
X202422285Y-101710904D01*
X202422285Y-101425190D01*
X202469904Y-101329952D01*
X202517523Y-101282333D01*
X202612761Y-101234714D01*
X202803238Y-101234714D01*
X202898476Y-101282333D01*
X203850857Y-100901380D02*
X203374666Y-100901380D01*
X203327047Y-101377571D01*
X203374666Y-101329952D01*
X203469904Y-101282333D01*
X203708000Y-101282333D01*
X203803238Y-101329952D01*
X203850857Y-101377571D01*
X203898476Y-101472809D01*
X203898476Y-101710904D01*
X203850857Y-101806142D01*
X203803238Y-101853761D01*
X203708000Y-101901380D01*
X203469904Y-101901380D01*
X203374666Y-101853761D01*
X203327047Y-101806142D01*
%TO.C,D5*%
X210915380Y-98185595D02*
X209915380Y-98185595D01*
X209915380Y-97947500D01*
X209963000Y-97804642D01*
X210058238Y-97709404D01*
X210153476Y-97661785D01*
X210343952Y-97614166D01*
X210486809Y-97614166D01*
X210677285Y-97661785D01*
X210772523Y-97709404D01*
X210867761Y-97804642D01*
X210915380Y-97947500D01*
X210915380Y-98185595D01*
X209915380Y-96709404D02*
X209915380Y-97185595D01*
X210391571Y-97233214D01*
X210343952Y-97185595D01*
X210296333Y-97090357D01*
X210296333Y-96852261D01*
X210343952Y-96757023D01*
X210391571Y-96709404D01*
X210486809Y-96661785D01*
X210724904Y-96661785D01*
X210820142Y-96709404D01*
X210867761Y-96757023D01*
X210915380Y-96852261D01*
X210915380Y-97090357D01*
X210867761Y-97185595D01*
X210820142Y-97233214D01*
%TO.C,Roo5*%
X196818571Y-101901380D02*
X196485238Y-101425190D01*
X196247142Y-101901380D02*
X196247142Y-100901380D01*
X196628095Y-100901380D01*
X196723333Y-100949000D01*
X196770952Y-100996619D01*
X196818571Y-101091857D01*
X196818571Y-101234714D01*
X196770952Y-101329952D01*
X196723333Y-101377571D01*
X196628095Y-101425190D01*
X196247142Y-101425190D01*
X197390000Y-101901380D02*
X197294761Y-101853761D01*
X197247142Y-101806142D01*
X197199523Y-101710904D01*
X197199523Y-101425190D01*
X197247142Y-101329952D01*
X197294761Y-101282333D01*
X197390000Y-101234714D01*
X197532857Y-101234714D01*
X197628095Y-101282333D01*
X197675714Y-101329952D01*
X197723333Y-101425190D01*
X197723333Y-101710904D01*
X197675714Y-101806142D01*
X197628095Y-101853761D01*
X197532857Y-101901380D01*
X197390000Y-101901380D01*
X198294761Y-101901380D02*
X198199523Y-101853761D01*
X198151904Y-101806142D01*
X198104285Y-101710904D01*
X198104285Y-101425190D01*
X198151904Y-101329952D01*
X198199523Y-101282333D01*
X198294761Y-101234714D01*
X198437619Y-101234714D01*
X198532857Y-101282333D01*
X198580476Y-101329952D01*
X198628095Y-101425190D01*
X198628095Y-101710904D01*
X198580476Y-101806142D01*
X198532857Y-101853761D01*
X198437619Y-101901380D01*
X198294761Y-101901380D01*
X199532857Y-100901380D02*
X199056666Y-100901380D01*
X199009047Y-101377571D01*
X199056666Y-101329952D01*
X199151904Y-101282333D01*
X199390000Y-101282333D01*
X199485238Y-101329952D01*
X199532857Y-101377571D01*
X199580476Y-101472809D01*
X199580476Y-101710904D01*
X199532857Y-101806142D01*
X199485238Y-101853761D01*
X199390000Y-101901380D01*
X199151904Y-101901380D01*
X199056666Y-101853761D01*
X199009047Y-101806142D01*
%TO.C,D6*%
X210915380Y-108282095D02*
X209915380Y-108282095D01*
X209915380Y-108044000D01*
X209963000Y-107901142D01*
X210058238Y-107805904D01*
X210153476Y-107758285D01*
X210343952Y-107710666D01*
X210486809Y-107710666D01*
X210677285Y-107758285D01*
X210772523Y-107805904D01*
X210867761Y-107901142D01*
X210915380Y-108044000D01*
X210915380Y-108282095D01*
X209915380Y-106853523D02*
X209915380Y-107044000D01*
X209963000Y-107139238D01*
X210010619Y-107186857D01*
X210153476Y-107282095D01*
X210343952Y-107329714D01*
X210724904Y-107329714D01*
X210820142Y-107282095D01*
X210867761Y-107234476D01*
X210915380Y-107139238D01*
X210915380Y-106948761D01*
X210867761Y-106853523D01*
X210820142Y-106805904D01*
X210724904Y-106758285D01*
X210486809Y-106758285D01*
X210391571Y-106805904D01*
X210343952Y-106853523D01*
X210296333Y-106948761D01*
X210296333Y-107139238D01*
X210343952Y-107234476D01*
X210391571Y-107282095D01*
X210486809Y-107329714D01*
%TO.C,U_OC6*%
D15*
X191018362Y-106677371D02*
X191018362Y-107489126D01*
X191066112Y-107584627D01*
X191113862Y-107632377D01*
X191209363Y-107680127D01*
X191400364Y-107680127D01*
X191495864Y-107632377D01*
X191543615Y-107584627D01*
X191591365Y-107489126D01*
X191591365Y-106677371D01*
X191830116Y-107775628D02*
X192594121Y-107775628D01*
X193023874Y-106677371D02*
X193214875Y-106677371D01*
X193310375Y-106725122D01*
X193405876Y-106820622D01*
X193453626Y-107011623D01*
X193453626Y-107345875D01*
X193405876Y-107536876D01*
X193310375Y-107632377D01*
X193214875Y-107680127D01*
X193023874Y-107680127D01*
X192928373Y-107632377D01*
X192832872Y-107536876D01*
X192785122Y-107345875D01*
X192785122Y-107011623D01*
X192832872Y-106820622D01*
X192928373Y-106725122D01*
X193023874Y-106677371D01*
X194456382Y-107584627D02*
X194408632Y-107632377D01*
X194265381Y-107680127D01*
X194169880Y-107680127D01*
X194026630Y-107632377D01*
X193931129Y-107536876D01*
X193883379Y-107441376D01*
X193835628Y-107250375D01*
X193835628Y-107107124D01*
X193883379Y-106916123D01*
X193931129Y-106820622D01*
X194026630Y-106725122D01*
X194169880Y-106677371D01*
X194265381Y-106677371D01*
X194408632Y-106725122D01*
X194456382Y-106772872D01*
X195315887Y-106677371D02*
X195124886Y-106677371D01*
X195029386Y-106725122D01*
X194981635Y-106772872D01*
X194886135Y-106916123D01*
X194838384Y-107107124D01*
X194838384Y-107489126D01*
X194886135Y-107584627D01*
X194933885Y-107632377D01*
X195029386Y-107680127D01*
X195220387Y-107680127D01*
X195315887Y-107632377D01*
X195363638Y-107584627D01*
X195411388Y-107489126D01*
X195411388Y-107250375D01*
X195363638Y-107154874D01*
X195315887Y-107107124D01*
X195220387Y-107059374D01*
X195029386Y-107059374D01*
X194933885Y-107107124D01*
X194886135Y-107154874D01*
X194838384Y-107250375D01*
%TO.C,Rioc6*%
D10*
X190698785Y-111996880D02*
X190365452Y-111520690D01*
X190127357Y-111996880D02*
X190127357Y-110996880D01*
X190508309Y-110996880D01*
X190603547Y-111044500D01*
X190651166Y-111092119D01*
X190698785Y-111187357D01*
X190698785Y-111330214D01*
X190651166Y-111425452D01*
X190603547Y-111473071D01*
X190508309Y-111520690D01*
X190127357Y-111520690D01*
X191127357Y-111996880D02*
X191127357Y-111330214D01*
X191127357Y-110996880D02*
X191079738Y-111044500D01*
X191127357Y-111092119D01*
X191174976Y-111044500D01*
X191127357Y-110996880D01*
X191127357Y-111092119D01*
X191746404Y-111996880D02*
X191651166Y-111949261D01*
X191603547Y-111901642D01*
X191555928Y-111806404D01*
X191555928Y-111520690D01*
X191603547Y-111425452D01*
X191651166Y-111377833D01*
X191746404Y-111330214D01*
X191889261Y-111330214D01*
X191984500Y-111377833D01*
X192032119Y-111425452D01*
X192079738Y-111520690D01*
X192079738Y-111806404D01*
X192032119Y-111901642D01*
X191984500Y-111949261D01*
X191889261Y-111996880D01*
X191746404Y-111996880D01*
X192936880Y-111949261D02*
X192841642Y-111996880D01*
X192651166Y-111996880D01*
X192555928Y-111949261D01*
X192508309Y-111901642D01*
X192460690Y-111806404D01*
X192460690Y-111520690D01*
X192508309Y-111425452D01*
X192555928Y-111377833D01*
X192651166Y-111330214D01*
X192841642Y-111330214D01*
X192936880Y-111377833D01*
X193794023Y-110996880D02*
X193603547Y-110996880D01*
X193508309Y-111044500D01*
X193460690Y-111092119D01*
X193365452Y-111234976D01*
X193317833Y-111425452D01*
X193317833Y-111806404D01*
X193365452Y-111901642D01*
X193413071Y-111949261D01*
X193508309Y-111996880D01*
X193698785Y-111996880D01*
X193794023Y-111949261D01*
X193841642Y-111901642D01*
X193889261Y-111806404D01*
X193889261Y-111568309D01*
X193841642Y-111473071D01*
X193794023Y-111425452D01*
X193698785Y-111377833D01*
X193508309Y-111377833D01*
X193413071Y-111425452D01*
X193365452Y-111473071D01*
X193317833Y-111568309D01*
%TO.C,Rpd6*%
X201136571Y-111997880D02*
X200803238Y-111521690D01*
X200565142Y-111997880D02*
X200565142Y-110997880D01*
X200946095Y-110997880D01*
X201041333Y-111045500D01*
X201088952Y-111093119D01*
X201136571Y-111188357D01*
X201136571Y-111331214D01*
X201088952Y-111426452D01*
X201041333Y-111474071D01*
X200946095Y-111521690D01*
X200565142Y-111521690D01*
X201565142Y-111331214D02*
X201565142Y-112331214D01*
X201565142Y-111378833D02*
X201660380Y-111331214D01*
X201850857Y-111331214D01*
X201946095Y-111378833D01*
X201993714Y-111426452D01*
X202041333Y-111521690D01*
X202041333Y-111807404D01*
X201993714Y-111902642D01*
X201946095Y-111950261D01*
X201850857Y-111997880D01*
X201660380Y-111997880D01*
X201565142Y-111950261D01*
X202898476Y-111997880D02*
X202898476Y-110997880D01*
X202898476Y-111950261D02*
X202803238Y-111997880D01*
X202612761Y-111997880D01*
X202517523Y-111950261D01*
X202469904Y-111902642D01*
X202422285Y-111807404D01*
X202422285Y-111521690D01*
X202469904Y-111426452D01*
X202517523Y-111378833D01*
X202612761Y-111331214D01*
X202803238Y-111331214D01*
X202898476Y-111378833D01*
X203803238Y-110997880D02*
X203612761Y-110997880D01*
X203517523Y-111045500D01*
X203469904Y-111093119D01*
X203374666Y-111235976D01*
X203327047Y-111426452D01*
X203327047Y-111807404D01*
X203374666Y-111902642D01*
X203422285Y-111950261D01*
X203517523Y-111997880D01*
X203708000Y-111997880D01*
X203803238Y-111950261D01*
X203850857Y-111902642D01*
X203898476Y-111807404D01*
X203898476Y-111569309D01*
X203850857Y-111474071D01*
X203803238Y-111426452D01*
X203708000Y-111378833D01*
X203517523Y-111378833D01*
X203422285Y-111426452D01*
X203374666Y-111474071D01*
X203327047Y-111569309D01*
%TO.C,Roo6*%
X196818571Y-111997880D02*
X196485238Y-111521690D01*
X196247142Y-111997880D02*
X196247142Y-110997880D01*
X196628095Y-110997880D01*
X196723333Y-111045500D01*
X196770952Y-111093119D01*
X196818571Y-111188357D01*
X196818571Y-111331214D01*
X196770952Y-111426452D01*
X196723333Y-111474071D01*
X196628095Y-111521690D01*
X196247142Y-111521690D01*
X197390000Y-111997880D02*
X197294761Y-111950261D01*
X197247142Y-111902642D01*
X197199523Y-111807404D01*
X197199523Y-111521690D01*
X197247142Y-111426452D01*
X197294761Y-111378833D01*
X197390000Y-111331214D01*
X197532857Y-111331214D01*
X197628095Y-111378833D01*
X197675714Y-111426452D01*
X197723333Y-111521690D01*
X197723333Y-111807404D01*
X197675714Y-111902642D01*
X197628095Y-111950261D01*
X197532857Y-111997880D01*
X197390000Y-111997880D01*
X198294761Y-111997880D02*
X198199523Y-111950261D01*
X198151904Y-111902642D01*
X198104285Y-111807404D01*
X198104285Y-111521690D01*
X198151904Y-111426452D01*
X198199523Y-111378833D01*
X198294761Y-111331214D01*
X198437619Y-111331214D01*
X198532857Y-111378833D01*
X198580476Y-111426452D01*
X198628095Y-111521690D01*
X198628095Y-111807404D01*
X198580476Y-111902642D01*
X198532857Y-111950261D01*
X198437619Y-111997880D01*
X198294761Y-111997880D01*
X199485238Y-110997880D02*
X199294761Y-110997880D01*
X199199523Y-111045500D01*
X199151904Y-111093119D01*
X199056666Y-111235976D01*
X199009047Y-111426452D01*
X199009047Y-111807404D01*
X199056666Y-111902642D01*
X199104285Y-111950261D01*
X199199523Y-111997880D01*
X199390000Y-111997880D01*
X199485238Y-111950261D01*
X199532857Y-111902642D01*
X199580476Y-111807404D01*
X199580476Y-111569309D01*
X199532857Y-111474071D01*
X199485238Y-111426452D01*
X199390000Y-111378833D01*
X199199523Y-111378833D01*
X199104285Y-111426452D01*
X199056666Y-111474071D01*
X199009047Y-111569309D01*
%TO.C,Q6*%
X200144261Y-106377119D02*
X200049023Y-106329500D01*
X199953785Y-106234261D01*
X199810928Y-106091404D01*
X199715690Y-106043785D01*
X199620452Y-106043785D01*
X199668071Y-106281880D02*
X199572833Y-106234261D01*
X199477595Y-106139023D01*
X199429976Y-105948547D01*
X199429976Y-105615214D01*
X199477595Y-105424738D01*
X199572833Y-105329500D01*
X199668071Y-105281880D01*
X199858547Y-105281880D01*
X199953785Y-105329500D01*
X200049023Y-105424738D01*
X200096642Y-105615214D01*
X200096642Y-105948547D01*
X200049023Y-106139023D01*
X199953785Y-106234261D01*
X199858547Y-106281880D01*
X199668071Y-106281880D01*
X200953785Y-105281880D02*
X200763309Y-105281880D01*
X200668071Y-105329500D01*
X200620452Y-105377119D01*
X200525214Y-105519976D01*
X200477595Y-105710452D01*
X200477595Y-106091404D01*
X200525214Y-106186642D01*
X200572833Y-106234261D01*
X200668071Y-106281880D01*
X200858547Y-106281880D01*
X200953785Y-106234261D01*
X201001404Y-106186642D01*
X201049023Y-106091404D01*
X201049023Y-105853309D01*
X201001404Y-105758071D01*
X200953785Y-105710452D01*
X200858547Y-105662833D01*
X200668071Y-105662833D01*
X200572833Y-105710452D01*
X200525214Y-105758071D01*
X200477595Y-105853309D01*
%TO.C,Dlj6*%
X211320404Y-111933380D02*
X211320404Y-110933380D01*
X211558500Y-110933380D01*
X211701357Y-110981000D01*
X211796595Y-111076238D01*
X211844214Y-111171476D01*
X211891833Y-111361952D01*
X211891833Y-111504809D01*
X211844214Y-111695285D01*
X211796595Y-111790523D01*
X211701357Y-111885761D01*
X211558500Y-111933380D01*
X211320404Y-111933380D01*
X212463261Y-111933380D02*
X212368023Y-111885761D01*
X212320404Y-111790523D01*
X212320404Y-110933380D01*
X212844214Y-111266714D02*
X212844214Y-112123857D01*
X212796595Y-112219095D01*
X212701357Y-112266714D01*
X212653738Y-112266714D01*
X212844214Y-110933380D02*
X212796595Y-110981000D01*
X212844214Y-111028619D01*
X212891833Y-110981000D01*
X212844214Y-110933380D01*
X212844214Y-111028619D01*
X213748976Y-110933380D02*
X213558500Y-110933380D01*
X213463261Y-110981000D01*
X213415642Y-111028619D01*
X213320404Y-111171476D01*
X213272785Y-111361952D01*
X213272785Y-111742904D01*
X213320404Y-111838142D01*
X213368023Y-111885761D01*
X213463261Y-111933380D01*
X213653738Y-111933380D01*
X213748976Y-111885761D01*
X213796595Y-111838142D01*
X213844214Y-111742904D01*
X213844214Y-111504809D01*
X213796595Y-111409571D01*
X213748976Y-111361952D01*
X213653738Y-111314333D01*
X213463261Y-111314333D01*
X213368023Y-111361952D01*
X213320404Y-111409571D01*
X213272785Y-111504809D01*
%TO.C,Rlj6*%
X205668833Y-111996880D02*
X205335500Y-111520690D01*
X205097404Y-111996880D02*
X205097404Y-110996880D01*
X205478357Y-110996880D01*
X205573595Y-111044500D01*
X205621214Y-111092119D01*
X205668833Y-111187357D01*
X205668833Y-111330214D01*
X205621214Y-111425452D01*
X205573595Y-111473071D01*
X205478357Y-111520690D01*
X205097404Y-111520690D01*
X206240261Y-111996880D02*
X206145023Y-111949261D01*
X206097404Y-111854023D01*
X206097404Y-110996880D01*
X206621214Y-111330214D02*
X206621214Y-112187357D01*
X206573595Y-112282595D01*
X206478357Y-112330214D01*
X206430738Y-112330214D01*
X206621214Y-110996880D02*
X206573595Y-111044500D01*
X206621214Y-111092119D01*
X206668833Y-111044500D01*
X206621214Y-110996880D01*
X206621214Y-111092119D01*
X207525976Y-110996880D02*
X207335500Y-110996880D01*
X207240261Y-111044500D01*
X207192642Y-111092119D01*
X207097404Y-111234976D01*
X207049785Y-111425452D01*
X207049785Y-111806404D01*
X207097404Y-111901642D01*
X207145023Y-111949261D01*
X207240261Y-111996880D01*
X207430738Y-111996880D01*
X207525976Y-111949261D01*
X207573595Y-111901642D01*
X207621214Y-111806404D01*
X207621214Y-111568309D01*
X207573595Y-111473071D01*
X207525976Y-111425452D01*
X207430738Y-111377833D01*
X207240261Y-111377833D01*
X207145023Y-111425452D01*
X207097404Y-111473071D01*
X207049785Y-111568309D01*
%TO.C,Dlj3*%
X211320404Y-81516880D02*
X211320404Y-80516880D01*
X211558500Y-80516880D01*
X211701357Y-80564500D01*
X211796595Y-80659738D01*
X211844214Y-80754976D01*
X211891833Y-80945452D01*
X211891833Y-81088309D01*
X211844214Y-81278785D01*
X211796595Y-81374023D01*
X211701357Y-81469261D01*
X211558500Y-81516880D01*
X211320404Y-81516880D01*
X212463261Y-81516880D02*
X212368023Y-81469261D01*
X212320404Y-81374023D01*
X212320404Y-80516880D01*
X212844214Y-80850214D02*
X212844214Y-81707357D01*
X212796595Y-81802595D01*
X212701357Y-81850214D01*
X212653738Y-81850214D01*
X212844214Y-80516880D02*
X212796595Y-80564500D01*
X212844214Y-80612119D01*
X212891833Y-80564500D01*
X212844214Y-80516880D01*
X212844214Y-80612119D01*
X213225166Y-80516880D02*
X213844214Y-80516880D01*
X213510880Y-80897833D01*
X213653738Y-80897833D01*
X213748976Y-80945452D01*
X213796595Y-80993071D01*
X213844214Y-81088309D01*
X213844214Y-81326404D01*
X213796595Y-81421642D01*
X213748976Y-81469261D01*
X213653738Y-81516880D01*
X213368023Y-81516880D01*
X213272785Y-81469261D01*
X213225166Y-81421642D01*
%TO.C,Q3*%
X200144261Y-75960619D02*
X200049023Y-75913000D01*
X199953785Y-75817761D01*
X199810928Y-75674904D01*
X199715690Y-75627285D01*
X199620452Y-75627285D01*
X199668071Y-75865380D02*
X199572833Y-75817761D01*
X199477595Y-75722523D01*
X199429976Y-75532047D01*
X199429976Y-75198714D01*
X199477595Y-75008238D01*
X199572833Y-74913000D01*
X199668071Y-74865380D01*
X199858547Y-74865380D01*
X199953785Y-74913000D01*
X200049023Y-75008238D01*
X200096642Y-75198714D01*
X200096642Y-75532047D01*
X200049023Y-75722523D01*
X199953785Y-75817761D01*
X199858547Y-75865380D01*
X199668071Y-75865380D01*
X200429976Y-74865380D02*
X201049023Y-74865380D01*
X200715690Y-75246333D01*
X200858547Y-75246333D01*
X200953785Y-75293952D01*
X201001404Y-75341571D01*
X201049023Y-75436809D01*
X201049023Y-75674904D01*
X201001404Y-75770142D01*
X200953785Y-75817761D01*
X200858547Y-75865380D01*
X200572833Y-75865380D01*
X200477595Y-75817761D01*
X200429976Y-75770142D01*
%TO.C,U_OC3*%
D15*
X191018362Y-76260871D02*
X191018362Y-77072626D01*
X191066112Y-77168127D01*
X191113862Y-77215877D01*
X191209363Y-77263627D01*
X191400364Y-77263627D01*
X191495864Y-77215877D01*
X191543615Y-77168127D01*
X191591365Y-77072626D01*
X191591365Y-76260871D01*
X191830116Y-77359128D02*
X192594121Y-77359128D01*
X193023874Y-76260871D02*
X193214875Y-76260871D01*
X193310375Y-76308622D01*
X193405876Y-76404122D01*
X193453626Y-76595123D01*
X193453626Y-76929375D01*
X193405876Y-77120376D01*
X193310375Y-77215877D01*
X193214875Y-77263627D01*
X193023874Y-77263627D01*
X192928373Y-77215877D01*
X192832872Y-77120376D01*
X192785122Y-76929375D01*
X192785122Y-76595123D01*
X192832872Y-76404122D01*
X192928373Y-76308622D01*
X193023874Y-76260871D01*
X194456382Y-77168127D02*
X194408632Y-77215877D01*
X194265381Y-77263627D01*
X194169880Y-77263627D01*
X194026630Y-77215877D01*
X193931129Y-77120376D01*
X193883379Y-77024876D01*
X193835628Y-76833875D01*
X193835628Y-76690624D01*
X193883379Y-76499623D01*
X193931129Y-76404122D01*
X194026630Y-76308622D01*
X194169880Y-76260871D01*
X194265381Y-76260871D01*
X194408632Y-76308622D01*
X194456382Y-76356372D01*
X194790634Y-76260871D02*
X195411388Y-76260871D01*
X195077136Y-76642874D01*
X195220387Y-76642874D01*
X195315887Y-76690624D01*
X195363638Y-76738374D01*
X195411388Y-76833875D01*
X195411388Y-77072626D01*
X195363638Y-77168127D01*
X195315887Y-77215877D01*
X195220387Y-77263627D01*
X194933885Y-77263627D01*
X194838384Y-77215877D01*
X194790634Y-77168127D01*
%TO.C,Rioc3*%
D10*
X190698785Y-81580380D02*
X190365452Y-81104190D01*
X190127357Y-81580380D02*
X190127357Y-80580380D01*
X190508309Y-80580380D01*
X190603547Y-80628000D01*
X190651166Y-80675619D01*
X190698785Y-80770857D01*
X190698785Y-80913714D01*
X190651166Y-81008952D01*
X190603547Y-81056571D01*
X190508309Y-81104190D01*
X190127357Y-81104190D01*
X191127357Y-81580380D02*
X191127357Y-80913714D01*
X191127357Y-80580380D02*
X191079738Y-80628000D01*
X191127357Y-80675619D01*
X191174976Y-80628000D01*
X191127357Y-80580380D01*
X191127357Y-80675619D01*
X191746404Y-81580380D02*
X191651166Y-81532761D01*
X191603547Y-81485142D01*
X191555928Y-81389904D01*
X191555928Y-81104190D01*
X191603547Y-81008952D01*
X191651166Y-80961333D01*
X191746404Y-80913714D01*
X191889261Y-80913714D01*
X191984500Y-80961333D01*
X192032119Y-81008952D01*
X192079738Y-81104190D01*
X192079738Y-81389904D01*
X192032119Y-81485142D01*
X191984500Y-81532761D01*
X191889261Y-81580380D01*
X191746404Y-81580380D01*
X192936880Y-81532761D02*
X192841642Y-81580380D01*
X192651166Y-81580380D01*
X192555928Y-81532761D01*
X192508309Y-81485142D01*
X192460690Y-81389904D01*
X192460690Y-81104190D01*
X192508309Y-81008952D01*
X192555928Y-80961333D01*
X192651166Y-80913714D01*
X192841642Y-80913714D01*
X192936880Y-80961333D01*
X193270214Y-80580380D02*
X193889261Y-80580380D01*
X193555928Y-80961333D01*
X193698785Y-80961333D01*
X193794023Y-81008952D01*
X193841642Y-81056571D01*
X193889261Y-81151809D01*
X193889261Y-81389904D01*
X193841642Y-81485142D01*
X193794023Y-81532761D01*
X193698785Y-81580380D01*
X193413071Y-81580380D01*
X193317833Y-81532761D01*
X193270214Y-81485142D01*
%TO.C,Rlj3*%
X205668833Y-81580380D02*
X205335500Y-81104190D01*
X205097404Y-81580380D02*
X205097404Y-80580380D01*
X205478357Y-80580380D01*
X205573595Y-80628000D01*
X205621214Y-80675619D01*
X205668833Y-80770857D01*
X205668833Y-80913714D01*
X205621214Y-81008952D01*
X205573595Y-81056571D01*
X205478357Y-81104190D01*
X205097404Y-81104190D01*
X206240261Y-81580380D02*
X206145023Y-81532761D01*
X206097404Y-81437523D01*
X206097404Y-80580380D01*
X206621214Y-80913714D02*
X206621214Y-81770857D01*
X206573595Y-81866095D01*
X206478357Y-81913714D01*
X206430738Y-81913714D01*
X206621214Y-80580380D02*
X206573595Y-80628000D01*
X206621214Y-80675619D01*
X206668833Y-80628000D01*
X206621214Y-80580380D01*
X206621214Y-80675619D01*
X207002166Y-80580380D02*
X207621214Y-80580380D01*
X207287880Y-80961333D01*
X207430738Y-80961333D01*
X207525976Y-81008952D01*
X207573595Y-81056571D01*
X207621214Y-81151809D01*
X207621214Y-81389904D01*
X207573595Y-81485142D01*
X207525976Y-81532761D01*
X207430738Y-81580380D01*
X207145023Y-81580380D01*
X207049785Y-81532761D01*
X207002166Y-81485142D01*
%TO.C,Rpd3*%
X201136571Y-81581380D02*
X200803238Y-81105190D01*
X200565142Y-81581380D02*
X200565142Y-80581380D01*
X200946095Y-80581380D01*
X201041333Y-80629000D01*
X201088952Y-80676619D01*
X201136571Y-80771857D01*
X201136571Y-80914714D01*
X201088952Y-81009952D01*
X201041333Y-81057571D01*
X200946095Y-81105190D01*
X200565142Y-81105190D01*
X201565142Y-80914714D02*
X201565142Y-81914714D01*
X201565142Y-80962333D02*
X201660380Y-80914714D01*
X201850857Y-80914714D01*
X201946095Y-80962333D01*
X201993714Y-81009952D01*
X202041333Y-81105190D01*
X202041333Y-81390904D01*
X201993714Y-81486142D01*
X201946095Y-81533761D01*
X201850857Y-81581380D01*
X201660380Y-81581380D01*
X201565142Y-81533761D01*
X202898476Y-81581380D02*
X202898476Y-80581380D01*
X202898476Y-81533761D02*
X202803238Y-81581380D01*
X202612761Y-81581380D01*
X202517523Y-81533761D01*
X202469904Y-81486142D01*
X202422285Y-81390904D01*
X202422285Y-81105190D01*
X202469904Y-81009952D01*
X202517523Y-80962333D01*
X202612761Y-80914714D01*
X202803238Y-80914714D01*
X202898476Y-80962333D01*
X203279428Y-80581380D02*
X203898476Y-80581380D01*
X203565142Y-80962333D01*
X203708000Y-80962333D01*
X203803238Y-81009952D01*
X203850857Y-81057571D01*
X203898476Y-81152809D01*
X203898476Y-81390904D01*
X203850857Y-81486142D01*
X203803238Y-81533761D01*
X203708000Y-81581380D01*
X203422285Y-81581380D01*
X203327047Y-81533761D01*
X203279428Y-81486142D01*
%TO.C,D3*%
X210915380Y-77865595D02*
X209915380Y-77865595D01*
X209915380Y-77627500D01*
X209963000Y-77484642D01*
X210058238Y-77389404D01*
X210153476Y-77341785D01*
X210343952Y-77294166D01*
X210486809Y-77294166D01*
X210677285Y-77341785D01*
X210772523Y-77389404D01*
X210867761Y-77484642D01*
X210915380Y-77627500D01*
X210915380Y-77865595D01*
X209915380Y-76960833D02*
X209915380Y-76341785D01*
X210296333Y-76675119D01*
X210296333Y-76532261D01*
X210343952Y-76437023D01*
X210391571Y-76389404D01*
X210486809Y-76341785D01*
X210724904Y-76341785D01*
X210820142Y-76389404D01*
X210867761Y-76437023D01*
X210915380Y-76532261D01*
X210915380Y-76817976D01*
X210867761Y-76913214D01*
X210820142Y-76960833D01*
%TO.C,Roo3*%
X196818571Y-81581380D02*
X196485238Y-81105190D01*
X196247142Y-81581380D02*
X196247142Y-80581380D01*
X196628095Y-80581380D01*
X196723333Y-80629000D01*
X196770952Y-80676619D01*
X196818571Y-80771857D01*
X196818571Y-80914714D01*
X196770952Y-81009952D01*
X196723333Y-81057571D01*
X196628095Y-81105190D01*
X196247142Y-81105190D01*
X197390000Y-81581380D02*
X197294761Y-81533761D01*
X197247142Y-81486142D01*
X197199523Y-81390904D01*
X197199523Y-81105190D01*
X197247142Y-81009952D01*
X197294761Y-80962333D01*
X197390000Y-80914714D01*
X197532857Y-80914714D01*
X197628095Y-80962333D01*
X197675714Y-81009952D01*
X197723333Y-81105190D01*
X197723333Y-81390904D01*
X197675714Y-81486142D01*
X197628095Y-81533761D01*
X197532857Y-81581380D01*
X197390000Y-81581380D01*
X198294761Y-81581380D02*
X198199523Y-81533761D01*
X198151904Y-81486142D01*
X198104285Y-81390904D01*
X198104285Y-81105190D01*
X198151904Y-81009952D01*
X198199523Y-80962333D01*
X198294761Y-80914714D01*
X198437619Y-80914714D01*
X198532857Y-80962333D01*
X198580476Y-81009952D01*
X198628095Y-81105190D01*
X198628095Y-81390904D01*
X198580476Y-81486142D01*
X198532857Y-81533761D01*
X198437619Y-81581380D01*
X198294761Y-81581380D01*
X198961428Y-80581380D02*
X199580476Y-80581380D01*
X199247142Y-80962333D01*
X199390000Y-80962333D01*
X199485238Y-81009952D01*
X199532857Y-81057571D01*
X199580476Y-81152809D01*
X199580476Y-81390904D01*
X199532857Y-81486142D01*
X199485238Y-81533761D01*
X199390000Y-81581380D01*
X199104285Y-81581380D01*
X199009047Y-81533761D01*
X198961428Y-81486142D01*
%TO.C,D4*%
X210915380Y-88025595D02*
X209915380Y-88025595D01*
X209915380Y-87787500D01*
X209963000Y-87644642D01*
X210058238Y-87549404D01*
X210153476Y-87501785D01*
X210343952Y-87454166D01*
X210486809Y-87454166D01*
X210677285Y-87501785D01*
X210772523Y-87549404D01*
X210867761Y-87644642D01*
X210915380Y-87787500D01*
X210915380Y-88025595D01*
X210248714Y-86597023D02*
X210915380Y-86597023D01*
X209867761Y-86835119D02*
X210582047Y-87073214D01*
X210582047Y-86454166D01*
%TO.C,U_OC4*%
D15*
X191018362Y-86420871D02*
X191018362Y-87232626D01*
X191066112Y-87328127D01*
X191113862Y-87375877D01*
X191209363Y-87423627D01*
X191400364Y-87423627D01*
X191495864Y-87375877D01*
X191543615Y-87328127D01*
X191591365Y-87232626D01*
X191591365Y-86420871D01*
X191830116Y-87519128D02*
X192594121Y-87519128D01*
X193023874Y-86420871D02*
X193214875Y-86420871D01*
X193310375Y-86468622D01*
X193405876Y-86564122D01*
X193453626Y-86755123D01*
X193453626Y-87089375D01*
X193405876Y-87280376D01*
X193310375Y-87375877D01*
X193214875Y-87423627D01*
X193023874Y-87423627D01*
X192928373Y-87375877D01*
X192832872Y-87280376D01*
X192785122Y-87089375D01*
X192785122Y-86755123D01*
X192832872Y-86564122D01*
X192928373Y-86468622D01*
X193023874Y-86420871D01*
X194456382Y-87328127D02*
X194408632Y-87375877D01*
X194265381Y-87423627D01*
X194169880Y-87423627D01*
X194026630Y-87375877D01*
X193931129Y-87280376D01*
X193883379Y-87184876D01*
X193835628Y-86993875D01*
X193835628Y-86850624D01*
X193883379Y-86659623D01*
X193931129Y-86564122D01*
X194026630Y-86468622D01*
X194169880Y-86420871D01*
X194265381Y-86420871D01*
X194408632Y-86468622D01*
X194456382Y-86516372D01*
X195315887Y-86755123D02*
X195315887Y-87423627D01*
X195077136Y-86373121D02*
X194838384Y-87089375D01*
X195459138Y-87089375D01*
%TO.C,Rioc4*%
D10*
X190698785Y-91740380D02*
X190365452Y-91264190D01*
X190127357Y-91740380D02*
X190127357Y-90740380D01*
X190508309Y-90740380D01*
X190603547Y-90788000D01*
X190651166Y-90835619D01*
X190698785Y-90930857D01*
X190698785Y-91073714D01*
X190651166Y-91168952D01*
X190603547Y-91216571D01*
X190508309Y-91264190D01*
X190127357Y-91264190D01*
X191127357Y-91740380D02*
X191127357Y-91073714D01*
X191127357Y-90740380D02*
X191079738Y-90788000D01*
X191127357Y-90835619D01*
X191174976Y-90788000D01*
X191127357Y-90740380D01*
X191127357Y-90835619D01*
X191746404Y-91740380D02*
X191651166Y-91692761D01*
X191603547Y-91645142D01*
X191555928Y-91549904D01*
X191555928Y-91264190D01*
X191603547Y-91168952D01*
X191651166Y-91121333D01*
X191746404Y-91073714D01*
X191889261Y-91073714D01*
X191984500Y-91121333D01*
X192032119Y-91168952D01*
X192079738Y-91264190D01*
X192079738Y-91549904D01*
X192032119Y-91645142D01*
X191984500Y-91692761D01*
X191889261Y-91740380D01*
X191746404Y-91740380D01*
X192936880Y-91692761D02*
X192841642Y-91740380D01*
X192651166Y-91740380D01*
X192555928Y-91692761D01*
X192508309Y-91645142D01*
X192460690Y-91549904D01*
X192460690Y-91264190D01*
X192508309Y-91168952D01*
X192555928Y-91121333D01*
X192651166Y-91073714D01*
X192841642Y-91073714D01*
X192936880Y-91121333D01*
X193794023Y-91073714D02*
X193794023Y-91740380D01*
X193555928Y-90692761D02*
X193317833Y-91407047D01*
X193936880Y-91407047D01*
%TO.C,Rpd4*%
X201136571Y-91741380D02*
X200803238Y-91265190D01*
X200565142Y-91741380D02*
X200565142Y-90741380D01*
X200946095Y-90741380D01*
X201041333Y-90789000D01*
X201088952Y-90836619D01*
X201136571Y-90931857D01*
X201136571Y-91074714D01*
X201088952Y-91169952D01*
X201041333Y-91217571D01*
X200946095Y-91265190D01*
X200565142Y-91265190D01*
X201565142Y-91074714D02*
X201565142Y-92074714D01*
X201565142Y-91122333D02*
X201660380Y-91074714D01*
X201850857Y-91074714D01*
X201946095Y-91122333D01*
X201993714Y-91169952D01*
X202041333Y-91265190D01*
X202041333Y-91550904D01*
X201993714Y-91646142D01*
X201946095Y-91693761D01*
X201850857Y-91741380D01*
X201660380Y-91741380D01*
X201565142Y-91693761D01*
X202898476Y-91741380D02*
X202898476Y-90741380D01*
X202898476Y-91693761D02*
X202803238Y-91741380D01*
X202612761Y-91741380D01*
X202517523Y-91693761D01*
X202469904Y-91646142D01*
X202422285Y-91550904D01*
X202422285Y-91265190D01*
X202469904Y-91169952D01*
X202517523Y-91122333D01*
X202612761Y-91074714D01*
X202803238Y-91074714D01*
X202898476Y-91122333D01*
X203803238Y-91074714D02*
X203803238Y-91741380D01*
X203565142Y-90693761D02*
X203327047Y-91408047D01*
X203946095Y-91408047D01*
%TO.C,Roo4*%
X196818571Y-91741380D02*
X196485238Y-91265190D01*
X196247142Y-91741380D02*
X196247142Y-90741380D01*
X196628095Y-90741380D01*
X196723333Y-90789000D01*
X196770952Y-90836619D01*
X196818571Y-90931857D01*
X196818571Y-91074714D01*
X196770952Y-91169952D01*
X196723333Y-91217571D01*
X196628095Y-91265190D01*
X196247142Y-91265190D01*
X197390000Y-91741380D02*
X197294761Y-91693761D01*
X197247142Y-91646142D01*
X197199523Y-91550904D01*
X197199523Y-91265190D01*
X197247142Y-91169952D01*
X197294761Y-91122333D01*
X197390000Y-91074714D01*
X197532857Y-91074714D01*
X197628095Y-91122333D01*
X197675714Y-91169952D01*
X197723333Y-91265190D01*
X197723333Y-91550904D01*
X197675714Y-91646142D01*
X197628095Y-91693761D01*
X197532857Y-91741380D01*
X197390000Y-91741380D01*
X198294761Y-91741380D02*
X198199523Y-91693761D01*
X198151904Y-91646142D01*
X198104285Y-91550904D01*
X198104285Y-91265190D01*
X198151904Y-91169952D01*
X198199523Y-91122333D01*
X198294761Y-91074714D01*
X198437619Y-91074714D01*
X198532857Y-91122333D01*
X198580476Y-91169952D01*
X198628095Y-91265190D01*
X198628095Y-91550904D01*
X198580476Y-91646142D01*
X198532857Y-91693761D01*
X198437619Y-91741380D01*
X198294761Y-91741380D01*
X199485238Y-91074714D02*
X199485238Y-91741380D01*
X199247142Y-90693761D02*
X199009047Y-91408047D01*
X199628095Y-91408047D01*
%TO.C,Q4*%
X200144261Y-86120619D02*
X200049023Y-86073000D01*
X199953785Y-85977761D01*
X199810928Y-85834904D01*
X199715690Y-85787285D01*
X199620452Y-85787285D01*
X199668071Y-86025380D02*
X199572833Y-85977761D01*
X199477595Y-85882523D01*
X199429976Y-85692047D01*
X199429976Y-85358714D01*
X199477595Y-85168238D01*
X199572833Y-85073000D01*
X199668071Y-85025380D01*
X199858547Y-85025380D01*
X199953785Y-85073000D01*
X200049023Y-85168238D01*
X200096642Y-85358714D01*
X200096642Y-85692047D01*
X200049023Y-85882523D01*
X199953785Y-85977761D01*
X199858547Y-86025380D01*
X199668071Y-86025380D01*
X200953785Y-85358714D02*
X200953785Y-86025380D01*
X200715690Y-84977761D02*
X200477595Y-85692047D01*
X201096642Y-85692047D01*
%TO.C,Dlj4*%
X211320404Y-91676880D02*
X211320404Y-90676880D01*
X211558500Y-90676880D01*
X211701357Y-90724500D01*
X211796595Y-90819738D01*
X211844214Y-90914976D01*
X211891833Y-91105452D01*
X211891833Y-91248309D01*
X211844214Y-91438785D01*
X211796595Y-91534023D01*
X211701357Y-91629261D01*
X211558500Y-91676880D01*
X211320404Y-91676880D01*
X212463261Y-91676880D02*
X212368023Y-91629261D01*
X212320404Y-91534023D01*
X212320404Y-90676880D01*
X212844214Y-91010214D02*
X212844214Y-91867357D01*
X212796595Y-91962595D01*
X212701357Y-92010214D01*
X212653738Y-92010214D01*
X212844214Y-90676880D02*
X212796595Y-90724500D01*
X212844214Y-90772119D01*
X212891833Y-90724500D01*
X212844214Y-90676880D01*
X212844214Y-90772119D01*
X213748976Y-91010214D02*
X213748976Y-91676880D01*
X213510880Y-90629261D02*
X213272785Y-91343547D01*
X213891833Y-91343547D01*
%TO.C,Rlj4*%
X205668833Y-91740380D02*
X205335500Y-91264190D01*
X205097404Y-91740380D02*
X205097404Y-90740380D01*
X205478357Y-90740380D01*
X205573595Y-90788000D01*
X205621214Y-90835619D01*
X205668833Y-90930857D01*
X205668833Y-91073714D01*
X205621214Y-91168952D01*
X205573595Y-91216571D01*
X205478357Y-91264190D01*
X205097404Y-91264190D01*
X206240261Y-91740380D02*
X206145023Y-91692761D01*
X206097404Y-91597523D01*
X206097404Y-90740380D01*
X206621214Y-91073714D02*
X206621214Y-91930857D01*
X206573595Y-92026095D01*
X206478357Y-92073714D01*
X206430738Y-92073714D01*
X206621214Y-90740380D02*
X206573595Y-90788000D01*
X206621214Y-90835619D01*
X206668833Y-90788000D01*
X206621214Y-90740380D01*
X206621214Y-90835619D01*
X207525976Y-91073714D02*
X207525976Y-91740380D01*
X207287880Y-90692761D02*
X207049785Y-91407047D01*
X207668833Y-91407047D01*
%TO.C,Dlj2*%
X211296404Y-71318380D02*
X211296404Y-70318380D01*
X211534500Y-70318380D01*
X211677357Y-70366000D01*
X211772595Y-70461238D01*
X211820214Y-70556476D01*
X211867833Y-70746952D01*
X211867833Y-70889809D01*
X211820214Y-71080285D01*
X211772595Y-71175523D01*
X211677357Y-71270761D01*
X211534500Y-71318380D01*
X211296404Y-71318380D01*
X212439261Y-71318380D02*
X212344023Y-71270761D01*
X212296404Y-71175523D01*
X212296404Y-70318380D01*
X212820214Y-70651714D02*
X212820214Y-71508857D01*
X212772595Y-71604095D01*
X212677357Y-71651714D01*
X212629738Y-71651714D01*
X212820214Y-70318380D02*
X212772595Y-70366000D01*
X212820214Y-70413619D01*
X212867833Y-70366000D01*
X212820214Y-70318380D01*
X212820214Y-70413619D01*
X213248785Y-70413619D02*
X213296404Y-70366000D01*
X213391642Y-70318380D01*
X213629738Y-70318380D01*
X213724976Y-70366000D01*
X213772595Y-70413619D01*
X213820214Y-70508857D01*
X213820214Y-70604095D01*
X213772595Y-70746952D01*
X213201166Y-71318380D01*
X213820214Y-71318380D01*
%TO.C,Q2*%
X200120261Y-65762119D02*
X200025023Y-65714500D01*
X199929785Y-65619261D01*
X199786928Y-65476404D01*
X199691690Y-65428785D01*
X199596452Y-65428785D01*
X199644071Y-65666880D02*
X199548833Y-65619261D01*
X199453595Y-65524023D01*
X199405976Y-65333547D01*
X199405976Y-65000214D01*
X199453595Y-64809738D01*
X199548833Y-64714500D01*
X199644071Y-64666880D01*
X199834547Y-64666880D01*
X199929785Y-64714500D01*
X200025023Y-64809738D01*
X200072642Y-65000214D01*
X200072642Y-65333547D01*
X200025023Y-65524023D01*
X199929785Y-65619261D01*
X199834547Y-65666880D01*
X199644071Y-65666880D01*
X200453595Y-64762119D02*
X200501214Y-64714500D01*
X200596452Y-64666880D01*
X200834547Y-64666880D01*
X200929785Y-64714500D01*
X200977404Y-64762119D01*
X201025023Y-64857357D01*
X201025023Y-64952595D01*
X200977404Y-65095452D01*
X200405976Y-65666880D01*
X201025023Y-65666880D01*
%TO.C,U_OC2*%
D15*
X190994362Y-66062371D02*
X190994362Y-66874126D01*
X191042112Y-66969627D01*
X191089862Y-67017377D01*
X191185363Y-67065127D01*
X191376364Y-67065127D01*
X191471864Y-67017377D01*
X191519615Y-66969627D01*
X191567365Y-66874126D01*
X191567365Y-66062371D01*
X191806116Y-67160628D02*
X192570121Y-67160628D01*
X192999874Y-66062371D02*
X193190875Y-66062371D01*
X193286375Y-66110122D01*
X193381876Y-66205622D01*
X193429626Y-66396623D01*
X193429626Y-66730875D01*
X193381876Y-66921876D01*
X193286375Y-67017377D01*
X193190875Y-67065127D01*
X192999874Y-67065127D01*
X192904373Y-67017377D01*
X192808872Y-66921876D01*
X192761122Y-66730875D01*
X192761122Y-66396623D01*
X192808872Y-66205622D01*
X192904373Y-66110122D01*
X192999874Y-66062371D01*
X194432382Y-66969627D02*
X194384632Y-67017377D01*
X194241381Y-67065127D01*
X194145880Y-67065127D01*
X194002630Y-67017377D01*
X193907129Y-66921876D01*
X193859379Y-66826376D01*
X193811628Y-66635375D01*
X193811628Y-66492124D01*
X193859379Y-66301123D01*
X193907129Y-66205622D01*
X194002630Y-66110122D01*
X194145880Y-66062371D01*
X194241381Y-66062371D01*
X194384632Y-66110122D01*
X194432382Y-66157872D01*
X194814384Y-66157872D02*
X194862135Y-66110122D01*
X194957635Y-66062371D01*
X195196387Y-66062371D01*
X195291887Y-66110122D01*
X195339638Y-66157872D01*
X195387388Y-66253372D01*
X195387388Y-66348873D01*
X195339638Y-66492124D01*
X194766634Y-67065127D01*
X195387388Y-67065127D01*
%TO.C,Rioc2*%
D10*
X190674785Y-71381880D02*
X190341452Y-70905690D01*
X190103357Y-71381880D02*
X190103357Y-70381880D01*
X190484309Y-70381880D01*
X190579547Y-70429500D01*
X190627166Y-70477119D01*
X190674785Y-70572357D01*
X190674785Y-70715214D01*
X190627166Y-70810452D01*
X190579547Y-70858071D01*
X190484309Y-70905690D01*
X190103357Y-70905690D01*
X191103357Y-71381880D02*
X191103357Y-70715214D01*
X191103357Y-70381880D02*
X191055738Y-70429500D01*
X191103357Y-70477119D01*
X191150976Y-70429500D01*
X191103357Y-70381880D01*
X191103357Y-70477119D01*
X191722404Y-71381880D02*
X191627166Y-71334261D01*
X191579547Y-71286642D01*
X191531928Y-71191404D01*
X191531928Y-70905690D01*
X191579547Y-70810452D01*
X191627166Y-70762833D01*
X191722404Y-70715214D01*
X191865261Y-70715214D01*
X191960500Y-70762833D01*
X192008119Y-70810452D01*
X192055738Y-70905690D01*
X192055738Y-71191404D01*
X192008119Y-71286642D01*
X191960500Y-71334261D01*
X191865261Y-71381880D01*
X191722404Y-71381880D01*
X192912880Y-71334261D02*
X192817642Y-71381880D01*
X192627166Y-71381880D01*
X192531928Y-71334261D01*
X192484309Y-71286642D01*
X192436690Y-71191404D01*
X192436690Y-70905690D01*
X192484309Y-70810452D01*
X192531928Y-70762833D01*
X192627166Y-70715214D01*
X192817642Y-70715214D01*
X192912880Y-70762833D01*
X193293833Y-70477119D02*
X193341452Y-70429500D01*
X193436690Y-70381880D01*
X193674785Y-70381880D01*
X193770023Y-70429500D01*
X193817642Y-70477119D01*
X193865261Y-70572357D01*
X193865261Y-70667595D01*
X193817642Y-70810452D01*
X193246214Y-71381880D01*
X193865261Y-71381880D01*
%TO.C,Rlj2*%
X205644833Y-71381880D02*
X205311500Y-70905690D01*
X205073404Y-71381880D02*
X205073404Y-70381880D01*
X205454357Y-70381880D01*
X205549595Y-70429500D01*
X205597214Y-70477119D01*
X205644833Y-70572357D01*
X205644833Y-70715214D01*
X205597214Y-70810452D01*
X205549595Y-70858071D01*
X205454357Y-70905690D01*
X205073404Y-70905690D01*
X206216261Y-71381880D02*
X206121023Y-71334261D01*
X206073404Y-71239023D01*
X206073404Y-70381880D01*
X206597214Y-70715214D02*
X206597214Y-71572357D01*
X206549595Y-71667595D01*
X206454357Y-71715214D01*
X206406738Y-71715214D01*
X206597214Y-70381880D02*
X206549595Y-70429500D01*
X206597214Y-70477119D01*
X206644833Y-70429500D01*
X206597214Y-70381880D01*
X206597214Y-70477119D01*
X207025785Y-70477119D02*
X207073404Y-70429500D01*
X207168642Y-70381880D01*
X207406738Y-70381880D01*
X207501976Y-70429500D01*
X207549595Y-70477119D01*
X207597214Y-70572357D01*
X207597214Y-70667595D01*
X207549595Y-70810452D01*
X206978166Y-71381880D01*
X207597214Y-71381880D01*
%TO.C,Rpd2*%
X201112571Y-71382880D02*
X200779238Y-70906690D01*
X200541142Y-71382880D02*
X200541142Y-70382880D01*
X200922095Y-70382880D01*
X201017333Y-70430500D01*
X201064952Y-70478119D01*
X201112571Y-70573357D01*
X201112571Y-70716214D01*
X201064952Y-70811452D01*
X201017333Y-70859071D01*
X200922095Y-70906690D01*
X200541142Y-70906690D01*
X201541142Y-70716214D02*
X201541142Y-71716214D01*
X201541142Y-70763833D02*
X201636380Y-70716214D01*
X201826857Y-70716214D01*
X201922095Y-70763833D01*
X201969714Y-70811452D01*
X202017333Y-70906690D01*
X202017333Y-71192404D01*
X201969714Y-71287642D01*
X201922095Y-71335261D01*
X201826857Y-71382880D01*
X201636380Y-71382880D01*
X201541142Y-71335261D01*
X202874476Y-71382880D02*
X202874476Y-70382880D01*
X202874476Y-71335261D02*
X202779238Y-71382880D01*
X202588761Y-71382880D01*
X202493523Y-71335261D01*
X202445904Y-71287642D01*
X202398285Y-71192404D01*
X202398285Y-70906690D01*
X202445904Y-70811452D01*
X202493523Y-70763833D01*
X202588761Y-70716214D01*
X202779238Y-70716214D01*
X202874476Y-70763833D01*
X203303047Y-70478119D02*
X203350666Y-70430500D01*
X203445904Y-70382880D01*
X203684000Y-70382880D01*
X203779238Y-70430500D01*
X203826857Y-70478119D01*
X203874476Y-70573357D01*
X203874476Y-70668595D01*
X203826857Y-70811452D01*
X203255428Y-71382880D01*
X203874476Y-71382880D01*
%TO.C,D2*%
X210891380Y-67667095D02*
X209891380Y-67667095D01*
X209891380Y-67429000D01*
X209939000Y-67286142D01*
X210034238Y-67190904D01*
X210129476Y-67143285D01*
X210319952Y-67095666D01*
X210462809Y-67095666D01*
X210653285Y-67143285D01*
X210748523Y-67190904D01*
X210843761Y-67286142D01*
X210891380Y-67429000D01*
X210891380Y-67667095D01*
X209986619Y-66714714D02*
X209939000Y-66667095D01*
X209891380Y-66571857D01*
X209891380Y-66333761D01*
X209939000Y-66238523D01*
X209986619Y-66190904D01*
X210081857Y-66143285D01*
X210177095Y-66143285D01*
X210319952Y-66190904D01*
X210891380Y-66762333D01*
X210891380Y-66143285D01*
%TO.C,Roo2*%
X196794571Y-71382880D02*
X196461238Y-70906690D01*
X196223142Y-71382880D02*
X196223142Y-70382880D01*
X196604095Y-70382880D01*
X196699333Y-70430500D01*
X196746952Y-70478119D01*
X196794571Y-70573357D01*
X196794571Y-70716214D01*
X196746952Y-70811452D01*
X196699333Y-70859071D01*
X196604095Y-70906690D01*
X196223142Y-70906690D01*
X197366000Y-71382880D02*
X197270761Y-71335261D01*
X197223142Y-71287642D01*
X197175523Y-71192404D01*
X197175523Y-70906690D01*
X197223142Y-70811452D01*
X197270761Y-70763833D01*
X197366000Y-70716214D01*
X197508857Y-70716214D01*
X197604095Y-70763833D01*
X197651714Y-70811452D01*
X197699333Y-70906690D01*
X197699333Y-71192404D01*
X197651714Y-71287642D01*
X197604095Y-71335261D01*
X197508857Y-71382880D01*
X197366000Y-71382880D01*
X198270761Y-71382880D02*
X198175523Y-71335261D01*
X198127904Y-71287642D01*
X198080285Y-71192404D01*
X198080285Y-70906690D01*
X198127904Y-70811452D01*
X198175523Y-70763833D01*
X198270761Y-70716214D01*
X198413619Y-70716214D01*
X198508857Y-70763833D01*
X198556476Y-70811452D01*
X198604095Y-70906690D01*
X198604095Y-71192404D01*
X198556476Y-71287642D01*
X198508857Y-71335261D01*
X198413619Y-71382880D01*
X198270761Y-71382880D01*
X198985047Y-70478119D02*
X199032666Y-70430500D01*
X199127904Y-70382880D01*
X199366000Y-70382880D01*
X199461238Y-70430500D01*
X199508857Y-70478119D01*
X199556476Y-70573357D01*
X199556476Y-70668595D01*
X199508857Y-70811452D01*
X198937428Y-71382880D01*
X199556476Y-71382880D01*
%TO.C,Rlpow1*%
X164449357Y-59443880D02*
X164116023Y-58967690D01*
X163877928Y-59443880D02*
X163877928Y-58443880D01*
X164258880Y-58443880D01*
X164354119Y-58491500D01*
X164401738Y-58539119D01*
X164449357Y-58634357D01*
X164449357Y-58777214D01*
X164401738Y-58872452D01*
X164354119Y-58920071D01*
X164258880Y-58967690D01*
X163877928Y-58967690D01*
X165020785Y-59443880D02*
X164925547Y-59396261D01*
X164877928Y-59301023D01*
X164877928Y-58443880D01*
X165401738Y-58777214D02*
X165401738Y-59777214D01*
X165401738Y-58824833D02*
X165496976Y-58777214D01*
X165687452Y-58777214D01*
X165782690Y-58824833D01*
X165830309Y-58872452D01*
X165877928Y-58967690D01*
X165877928Y-59253404D01*
X165830309Y-59348642D01*
X165782690Y-59396261D01*
X165687452Y-59443880D01*
X165496976Y-59443880D01*
X165401738Y-59396261D01*
X166449357Y-59443880D02*
X166354119Y-59396261D01*
X166306500Y-59348642D01*
X166258880Y-59253404D01*
X166258880Y-58967690D01*
X166306500Y-58872452D01*
X166354119Y-58824833D01*
X166449357Y-58777214D01*
X166592214Y-58777214D01*
X166687452Y-58824833D01*
X166735071Y-58872452D01*
X166782690Y-58967690D01*
X166782690Y-59253404D01*
X166735071Y-59348642D01*
X166687452Y-59396261D01*
X166592214Y-59443880D01*
X166449357Y-59443880D01*
X167116023Y-58777214D02*
X167306500Y-59443880D01*
X167496976Y-58967690D01*
X167687452Y-59443880D01*
X167877928Y-58777214D01*
X168782690Y-59443880D02*
X168211261Y-59443880D01*
X168496976Y-59443880D02*
X168496976Y-58443880D01*
X168401738Y-58586738D01*
X168306500Y-58681976D01*
X168211261Y-58729595D01*
%TO.C,Dlpow1*%
X163369928Y-53411380D02*
X163369928Y-52411380D01*
X163608023Y-52411380D01*
X163750880Y-52459000D01*
X163846119Y-52554238D01*
X163893738Y-52649476D01*
X163941357Y-52839952D01*
X163941357Y-52982809D01*
X163893738Y-53173285D01*
X163846119Y-53268523D01*
X163750880Y-53363761D01*
X163608023Y-53411380D01*
X163369928Y-53411380D01*
X164512785Y-53411380D02*
X164417547Y-53363761D01*
X164369928Y-53268523D01*
X164369928Y-52411380D01*
X164893738Y-52744714D02*
X164893738Y-53744714D01*
X164893738Y-52792333D02*
X164988976Y-52744714D01*
X165179452Y-52744714D01*
X165274690Y-52792333D01*
X165322309Y-52839952D01*
X165369928Y-52935190D01*
X165369928Y-53220904D01*
X165322309Y-53316142D01*
X165274690Y-53363761D01*
X165179452Y-53411380D01*
X164988976Y-53411380D01*
X164893738Y-53363761D01*
X165941357Y-53411380D02*
X165846119Y-53363761D01*
X165798500Y-53316142D01*
X165750880Y-53220904D01*
X165750880Y-52935190D01*
X165798500Y-52839952D01*
X165846119Y-52792333D01*
X165941357Y-52744714D01*
X166084214Y-52744714D01*
X166179452Y-52792333D01*
X166227071Y-52839952D01*
X166274690Y-52935190D01*
X166274690Y-53220904D01*
X166227071Y-53316142D01*
X166179452Y-53363761D01*
X166084214Y-53411380D01*
X165941357Y-53411380D01*
X166608023Y-52744714D02*
X166798500Y-53411380D01*
X166988976Y-52935190D01*
X167179452Y-53411380D01*
X167369928Y-52744714D01*
X168274690Y-53411380D02*
X167703261Y-53411380D01*
X167988976Y-53411380D02*
X167988976Y-52411380D01*
X167893738Y-52554238D01*
X167798500Y-52649476D01*
X167703261Y-52697095D01*
%TO.C,D1*%
X210891380Y-57253095D02*
X209891380Y-57253095D01*
X209891380Y-57015000D01*
X209939000Y-56872142D01*
X210034238Y-56776904D01*
X210129476Y-56729285D01*
X210319952Y-56681666D01*
X210462809Y-56681666D01*
X210653285Y-56729285D01*
X210748523Y-56776904D01*
X210843761Y-56872142D01*
X210891380Y-57015000D01*
X210891380Y-57253095D01*
X210891380Y-55729285D02*
X210891380Y-56300714D01*
X210891380Y-56015000D02*
X209891380Y-56015000D01*
X210034238Y-56110238D01*
X210129476Y-56205476D01*
X210177095Y-56300714D01*
%TO.C,Roo1*%
X196794571Y-60968880D02*
X196461238Y-60492690D01*
X196223142Y-60968880D02*
X196223142Y-59968880D01*
X196604095Y-59968880D01*
X196699333Y-60016500D01*
X196746952Y-60064119D01*
X196794571Y-60159357D01*
X196794571Y-60302214D01*
X196746952Y-60397452D01*
X196699333Y-60445071D01*
X196604095Y-60492690D01*
X196223142Y-60492690D01*
X197366000Y-60968880D02*
X197270761Y-60921261D01*
X197223142Y-60873642D01*
X197175523Y-60778404D01*
X197175523Y-60492690D01*
X197223142Y-60397452D01*
X197270761Y-60349833D01*
X197366000Y-60302214D01*
X197508857Y-60302214D01*
X197604095Y-60349833D01*
X197651714Y-60397452D01*
X197699333Y-60492690D01*
X197699333Y-60778404D01*
X197651714Y-60873642D01*
X197604095Y-60921261D01*
X197508857Y-60968880D01*
X197366000Y-60968880D01*
X198270761Y-60968880D02*
X198175523Y-60921261D01*
X198127904Y-60873642D01*
X198080285Y-60778404D01*
X198080285Y-60492690D01*
X198127904Y-60397452D01*
X198175523Y-60349833D01*
X198270761Y-60302214D01*
X198413619Y-60302214D01*
X198508857Y-60349833D01*
X198556476Y-60397452D01*
X198604095Y-60492690D01*
X198604095Y-60778404D01*
X198556476Y-60873642D01*
X198508857Y-60921261D01*
X198413619Y-60968880D01*
X198270761Y-60968880D01*
X199556476Y-60968880D02*
X198985047Y-60968880D01*
X199270761Y-60968880D02*
X199270761Y-59968880D01*
X199175523Y-60111738D01*
X199080285Y-60206976D01*
X198985047Y-60254595D01*
%TO.C,Rfbt1*%
X161623523Y-72334380D02*
X161290190Y-71858190D01*
X161052095Y-72334380D02*
X161052095Y-71334380D01*
X161433047Y-71334380D01*
X161528285Y-71382000D01*
X161575904Y-71429619D01*
X161623523Y-71524857D01*
X161623523Y-71667714D01*
X161575904Y-71762952D01*
X161528285Y-71810571D01*
X161433047Y-71858190D01*
X161052095Y-71858190D01*
X161909238Y-71667714D02*
X162290190Y-71667714D01*
X162052095Y-72334380D02*
X162052095Y-71477238D01*
X162099714Y-71382000D01*
X162194952Y-71334380D01*
X162290190Y-71334380D01*
X162623523Y-72334380D02*
X162623523Y-71334380D01*
X162623523Y-71715333D02*
X162718761Y-71667714D01*
X162909238Y-71667714D01*
X163004476Y-71715333D01*
X163052095Y-71762952D01*
X163099714Y-71858190D01*
X163099714Y-72143904D01*
X163052095Y-72239142D01*
X163004476Y-72286761D01*
X162909238Y-72334380D01*
X162718761Y-72334380D01*
X162623523Y-72286761D01*
X163385428Y-71667714D02*
X163766380Y-71667714D01*
X163528285Y-71334380D02*
X163528285Y-72191523D01*
X163575904Y-72286761D01*
X163671142Y-72334380D01*
X163766380Y-72334380D01*
X164623523Y-72334380D02*
X164052095Y-72334380D01*
X164337809Y-72334380D02*
X164337809Y-71334380D01*
X164242571Y-71477238D01*
X164147333Y-71572476D01*
X164052095Y-71620095D01*
%TO.C,Rfbb1*%
X166282857Y-72334380D02*
X165949523Y-71858190D01*
X165711428Y-72334380D02*
X165711428Y-71334380D01*
X166092380Y-71334380D01*
X166187619Y-71382000D01*
X166235238Y-71429619D01*
X166282857Y-71524857D01*
X166282857Y-71667714D01*
X166235238Y-71762952D01*
X166187619Y-71810571D01*
X166092380Y-71858190D01*
X165711428Y-71858190D01*
X166568571Y-71667714D02*
X166949523Y-71667714D01*
X166711428Y-72334380D02*
X166711428Y-71477238D01*
X166759047Y-71382000D01*
X166854285Y-71334380D01*
X166949523Y-71334380D01*
X167282857Y-72334380D02*
X167282857Y-71334380D01*
X167282857Y-71715333D02*
X167378095Y-71667714D01*
X167568571Y-71667714D01*
X167663809Y-71715333D01*
X167711428Y-71762952D01*
X167759047Y-71858190D01*
X167759047Y-72143904D01*
X167711428Y-72239142D01*
X167663809Y-72286761D01*
X167568571Y-72334380D01*
X167378095Y-72334380D01*
X167282857Y-72286761D01*
X168187619Y-72334380D02*
X168187619Y-71334380D01*
X168187619Y-71715333D02*
X168282857Y-71667714D01*
X168473333Y-71667714D01*
X168568571Y-71715333D01*
X168616190Y-71762952D01*
X168663809Y-71858190D01*
X168663809Y-72143904D01*
X168616190Y-72239142D01*
X168568571Y-72286761D01*
X168473333Y-72334380D01*
X168282857Y-72334380D01*
X168187619Y-72286761D01*
X169616190Y-72334380D02*
X169044761Y-72334380D01*
X169330476Y-72334380D02*
X169330476Y-71334380D01*
X169235238Y-71477238D01*
X169140000Y-71572476D01*
X169044761Y-71620095D01*
%TO.C,Rlj1*%
X205644833Y-60967880D02*
X205311500Y-60491690D01*
X205073404Y-60967880D02*
X205073404Y-59967880D01*
X205454357Y-59967880D01*
X205549595Y-60015500D01*
X205597214Y-60063119D01*
X205644833Y-60158357D01*
X205644833Y-60301214D01*
X205597214Y-60396452D01*
X205549595Y-60444071D01*
X205454357Y-60491690D01*
X205073404Y-60491690D01*
X206216261Y-60967880D02*
X206121023Y-60920261D01*
X206073404Y-60825023D01*
X206073404Y-59967880D01*
X206597214Y-60301214D02*
X206597214Y-61158357D01*
X206549595Y-61253595D01*
X206454357Y-61301214D01*
X206406738Y-61301214D01*
X206597214Y-59967880D02*
X206549595Y-60015500D01*
X206597214Y-60063119D01*
X206644833Y-60015500D01*
X206597214Y-59967880D01*
X206597214Y-60063119D01*
X207597214Y-60967880D02*
X207025785Y-60967880D01*
X207311500Y-60967880D02*
X207311500Y-59967880D01*
X207216261Y-60110738D01*
X207121023Y-60205976D01*
X207025785Y-60253595D01*
%TO.C,Rpd1*%
X201112571Y-60968880D02*
X200779238Y-60492690D01*
X200541142Y-60968880D02*
X200541142Y-59968880D01*
X200922095Y-59968880D01*
X201017333Y-60016500D01*
X201064952Y-60064119D01*
X201112571Y-60159357D01*
X201112571Y-60302214D01*
X201064952Y-60397452D01*
X201017333Y-60445071D01*
X200922095Y-60492690D01*
X200541142Y-60492690D01*
X201541142Y-60302214D02*
X201541142Y-61302214D01*
X201541142Y-60349833D02*
X201636380Y-60302214D01*
X201826857Y-60302214D01*
X201922095Y-60349833D01*
X201969714Y-60397452D01*
X202017333Y-60492690D01*
X202017333Y-60778404D01*
X201969714Y-60873642D01*
X201922095Y-60921261D01*
X201826857Y-60968880D01*
X201636380Y-60968880D01*
X201541142Y-60921261D01*
X202874476Y-60968880D02*
X202874476Y-59968880D01*
X202874476Y-60921261D02*
X202779238Y-60968880D01*
X202588761Y-60968880D01*
X202493523Y-60921261D01*
X202445904Y-60873642D01*
X202398285Y-60778404D01*
X202398285Y-60492690D01*
X202445904Y-60397452D01*
X202493523Y-60349833D01*
X202588761Y-60302214D01*
X202779238Y-60302214D01*
X202874476Y-60349833D01*
X203874476Y-60968880D02*
X203303047Y-60968880D01*
X203588761Y-60968880D02*
X203588761Y-59968880D01*
X203493523Y-60111738D01*
X203398285Y-60206976D01*
X203303047Y-60254595D01*
%TO.C,Rioc1*%
X190674785Y-60967880D02*
X190341452Y-60491690D01*
X190103357Y-60967880D02*
X190103357Y-59967880D01*
X190484309Y-59967880D01*
X190579547Y-60015500D01*
X190627166Y-60063119D01*
X190674785Y-60158357D01*
X190674785Y-60301214D01*
X190627166Y-60396452D01*
X190579547Y-60444071D01*
X190484309Y-60491690D01*
X190103357Y-60491690D01*
X191103357Y-60967880D02*
X191103357Y-60301214D01*
X191103357Y-59967880D02*
X191055738Y-60015500D01*
X191103357Y-60063119D01*
X191150976Y-60015500D01*
X191103357Y-59967880D01*
X191103357Y-60063119D01*
X191722404Y-60967880D02*
X191627166Y-60920261D01*
X191579547Y-60872642D01*
X191531928Y-60777404D01*
X191531928Y-60491690D01*
X191579547Y-60396452D01*
X191627166Y-60348833D01*
X191722404Y-60301214D01*
X191865261Y-60301214D01*
X191960500Y-60348833D01*
X192008119Y-60396452D01*
X192055738Y-60491690D01*
X192055738Y-60777404D01*
X192008119Y-60872642D01*
X191960500Y-60920261D01*
X191865261Y-60967880D01*
X191722404Y-60967880D01*
X192912880Y-60920261D02*
X192817642Y-60967880D01*
X192627166Y-60967880D01*
X192531928Y-60920261D01*
X192484309Y-60872642D01*
X192436690Y-60777404D01*
X192436690Y-60491690D01*
X192484309Y-60396452D01*
X192531928Y-60348833D01*
X192627166Y-60301214D01*
X192817642Y-60301214D01*
X192912880Y-60348833D01*
X193865261Y-60967880D02*
X193293833Y-60967880D01*
X193579547Y-60967880D02*
X193579547Y-59967880D01*
X193484309Y-60110738D01*
X193389071Y-60205976D01*
X193293833Y-60253595D01*
%TO.C,Cout1*%
X153265357Y-99514642D02*
X153217738Y-99562261D01*
X153074880Y-99609880D01*
X152979642Y-99609880D01*
X152836785Y-99562261D01*
X152741547Y-99467023D01*
X152693928Y-99371785D01*
X152646309Y-99181309D01*
X152646309Y-99038452D01*
X152693928Y-98847976D01*
X152741547Y-98752738D01*
X152836785Y-98657500D01*
X152979642Y-98609880D01*
X153074880Y-98609880D01*
X153217738Y-98657500D01*
X153265357Y-98705119D01*
X153836785Y-99609880D02*
X153741547Y-99562261D01*
X153693928Y-99514642D01*
X153646309Y-99419404D01*
X153646309Y-99133690D01*
X153693928Y-99038452D01*
X153741547Y-98990833D01*
X153836785Y-98943214D01*
X153979642Y-98943214D01*
X154074880Y-98990833D01*
X154122500Y-99038452D01*
X154170119Y-99133690D01*
X154170119Y-99419404D01*
X154122500Y-99514642D01*
X154074880Y-99562261D01*
X153979642Y-99609880D01*
X153836785Y-99609880D01*
X155027261Y-98943214D02*
X155027261Y-99609880D01*
X154598690Y-98943214D02*
X154598690Y-99467023D01*
X154646309Y-99562261D01*
X154741547Y-99609880D01*
X154884404Y-99609880D01*
X154979642Y-99562261D01*
X155027261Y-99514642D01*
X155360595Y-98943214D02*
X155741547Y-98943214D01*
X155503452Y-98609880D02*
X155503452Y-99467023D01*
X155551071Y-99562261D01*
X155646309Y-99609880D01*
X155741547Y-99609880D01*
X156598690Y-99609880D02*
X156027261Y-99609880D01*
X156312976Y-99609880D02*
X156312976Y-98609880D01*
X156217738Y-98752738D01*
X156122500Y-98847976D01*
X156027261Y-98895595D01*
%TO.C,Cboot1*%
X165449476Y-61952142D02*
X165401857Y-61999761D01*
X165259000Y-62047380D01*
X165163761Y-62047380D01*
X165020904Y-61999761D01*
X164925666Y-61904523D01*
X164878047Y-61809285D01*
X164830428Y-61618809D01*
X164830428Y-61475952D01*
X164878047Y-61285476D01*
X164925666Y-61190238D01*
X165020904Y-61095000D01*
X165163761Y-61047380D01*
X165259000Y-61047380D01*
X165401857Y-61095000D01*
X165449476Y-61142619D01*
X165878047Y-62047380D02*
X165878047Y-61047380D01*
X165878047Y-61428333D02*
X165973285Y-61380714D01*
X166163761Y-61380714D01*
X166259000Y-61428333D01*
X166306619Y-61475952D01*
X166354238Y-61571190D01*
X166354238Y-61856904D01*
X166306619Y-61952142D01*
X166259000Y-61999761D01*
X166163761Y-62047380D01*
X165973285Y-62047380D01*
X165878047Y-61999761D01*
X166925666Y-62047380D02*
X166830428Y-61999761D01*
X166782809Y-61952142D01*
X166735190Y-61856904D01*
X166735190Y-61571190D01*
X166782809Y-61475952D01*
X166830428Y-61428333D01*
X166925666Y-61380714D01*
X167068523Y-61380714D01*
X167163761Y-61428333D01*
X167211380Y-61475952D01*
X167259000Y-61571190D01*
X167259000Y-61856904D01*
X167211380Y-61952142D01*
X167163761Y-61999761D01*
X167068523Y-62047380D01*
X166925666Y-62047380D01*
X167830428Y-62047380D02*
X167735190Y-61999761D01*
X167687571Y-61952142D01*
X167639952Y-61856904D01*
X167639952Y-61571190D01*
X167687571Y-61475952D01*
X167735190Y-61428333D01*
X167830428Y-61380714D01*
X167973285Y-61380714D01*
X168068523Y-61428333D01*
X168116142Y-61475952D01*
X168163761Y-61571190D01*
X168163761Y-61856904D01*
X168116142Y-61952142D01*
X168068523Y-61999761D01*
X167973285Y-62047380D01*
X167830428Y-62047380D01*
X168449476Y-61380714D02*
X168830428Y-61380714D01*
X168592333Y-61047380D02*
X168592333Y-61904523D01*
X168639952Y-61999761D01*
X168735190Y-62047380D01*
X168830428Y-62047380D01*
X169687571Y-62047380D02*
X169116142Y-62047380D01*
X169401857Y-62047380D02*
X169401857Y-61047380D01*
X169306619Y-61190238D01*
X169211380Y-61285476D01*
X169116142Y-61333095D01*
%TO.C,C1*%
X156678333Y-114657142D02*
X156630714Y-114704761D01*
X156487857Y-114752380D01*
X156392619Y-114752380D01*
X156249761Y-114704761D01*
X156154523Y-114609523D01*
X156106904Y-114514285D01*
X156059285Y-114323809D01*
X156059285Y-114180952D01*
X156106904Y-113990476D01*
X156154523Y-113895238D01*
X156249761Y-113800000D01*
X156392619Y-113752380D01*
X156487857Y-113752380D01*
X156630714Y-113800000D01*
X156678333Y-113847619D01*
X157630714Y-114752380D02*
X157059285Y-114752380D01*
X157345000Y-114752380D02*
X157345000Y-113752380D01*
X157249761Y-113895238D01*
X157154523Y-113990476D01*
X157059285Y-114038095D01*
%TO.C,D7*%
X173632904Y-63952380D02*
X173632904Y-62952380D01*
X173871000Y-62952380D01*
X174013857Y-63000000D01*
X174109095Y-63095238D01*
X174156714Y-63190476D01*
X174204333Y-63380952D01*
X174204333Y-63523809D01*
X174156714Y-63714285D01*
X174109095Y-63809523D01*
X174013857Y-63904761D01*
X173871000Y-63952380D01*
X173632904Y-63952380D01*
X174537666Y-62952380D02*
X175204333Y-62952380D01*
X174775761Y-63952380D01*
%TO.C,U2*%
X163409380Y-67309904D02*
X164218904Y-67309904D01*
X164314142Y-67262285D01*
X164361761Y-67214666D01*
X164409380Y-67119428D01*
X164409380Y-66928952D01*
X164361761Y-66833714D01*
X164314142Y-66786095D01*
X164218904Y-66738476D01*
X163409380Y-66738476D01*
X163504619Y-66309904D02*
X163457000Y-66262285D01*
X163409380Y-66167047D01*
X163409380Y-65928952D01*
X163457000Y-65833714D01*
X163504619Y-65786095D01*
X163599857Y-65738476D01*
X163695095Y-65738476D01*
X163837952Y-65786095D01*
X164409380Y-66357523D01*
X164409380Y-65738476D01*
%TO.C,Cin1*%
X173767857Y-69318142D02*
X173720238Y-69365761D01*
X173577380Y-69413380D01*
X173482142Y-69413380D01*
X173339285Y-69365761D01*
X173244047Y-69270523D01*
X173196428Y-69175285D01*
X173148809Y-68984809D01*
X173148809Y-68841952D01*
X173196428Y-68651476D01*
X173244047Y-68556238D01*
X173339285Y-68461000D01*
X173482142Y-68413380D01*
X173577380Y-68413380D01*
X173720238Y-68461000D01*
X173767857Y-68508619D01*
X174196428Y-69413380D02*
X174196428Y-68746714D01*
X174196428Y-68413380D02*
X174148809Y-68461000D01*
X174196428Y-68508619D01*
X174244047Y-68461000D01*
X174196428Y-68413380D01*
X174196428Y-68508619D01*
X174672619Y-68746714D02*
X174672619Y-69413380D01*
X174672619Y-68841952D02*
X174720238Y-68794333D01*
X174815476Y-68746714D01*
X174958333Y-68746714D01*
X175053571Y-68794333D01*
X175101190Y-68889571D01*
X175101190Y-69413380D01*
X176101190Y-69413380D02*
X175529761Y-69413380D01*
X175815476Y-69413380D02*
X175815476Y-68413380D01*
X175720238Y-68556238D01*
X175625000Y-68651476D01*
X175529761Y-68699095D01*
%TO.C,U_OC1*%
D15*
X190994362Y-55648371D02*
X190994362Y-56460126D01*
X191042112Y-56555627D01*
X191089862Y-56603377D01*
X191185363Y-56651127D01*
X191376364Y-56651127D01*
X191471864Y-56603377D01*
X191519615Y-56555627D01*
X191567365Y-56460126D01*
X191567365Y-55648371D01*
X191806116Y-56746628D02*
X192570121Y-56746628D01*
X192999874Y-55648371D02*
X193190875Y-55648371D01*
X193286375Y-55696122D01*
X193381876Y-55791622D01*
X193429626Y-55982623D01*
X193429626Y-56316875D01*
X193381876Y-56507876D01*
X193286375Y-56603377D01*
X193190875Y-56651127D01*
X192999874Y-56651127D01*
X192904373Y-56603377D01*
X192808872Y-56507876D01*
X192761122Y-56316875D01*
X192761122Y-55982623D01*
X192808872Y-55791622D01*
X192904373Y-55696122D01*
X192999874Y-55648371D01*
X194432382Y-56555627D02*
X194384632Y-56603377D01*
X194241381Y-56651127D01*
X194145880Y-56651127D01*
X194002630Y-56603377D01*
X193907129Y-56507876D01*
X193859379Y-56412376D01*
X193811628Y-56221375D01*
X193811628Y-56078124D01*
X193859379Y-55887123D01*
X193907129Y-55791622D01*
X194002630Y-55696122D01*
X194145880Y-55648371D01*
X194241381Y-55648371D01*
X194384632Y-55696122D01*
X194432382Y-55743872D01*
X195387388Y-56651127D02*
X194814384Y-56651127D01*
X195100886Y-56651127D02*
X195100886Y-55648371D01*
X195005386Y-55791622D01*
X194909885Y-55887123D01*
X194814384Y-55934873D01*
%TO.C,Dlj1*%
D10*
X211296404Y-60904380D02*
X211296404Y-59904380D01*
X211534500Y-59904380D01*
X211677357Y-59952000D01*
X211772595Y-60047238D01*
X211820214Y-60142476D01*
X211867833Y-60332952D01*
X211867833Y-60475809D01*
X211820214Y-60666285D01*
X211772595Y-60761523D01*
X211677357Y-60856761D01*
X211534500Y-60904380D01*
X211296404Y-60904380D01*
X212439261Y-60904380D02*
X212344023Y-60856761D01*
X212296404Y-60761523D01*
X212296404Y-59904380D01*
X212820214Y-60237714D02*
X212820214Y-61094857D01*
X212772595Y-61190095D01*
X212677357Y-61237714D01*
X212629738Y-61237714D01*
X212820214Y-59904380D02*
X212772595Y-59952000D01*
X212820214Y-59999619D01*
X212867833Y-59952000D01*
X212820214Y-59904380D01*
X212820214Y-59999619D01*
X213820214Y-60904380D02*
X213248785Y-60904380D01*
X213534500Y-60904380D02*
X213534500Y-59904380D01*
X213439261Y-60047238D01*
X213344023Y-60142476D01*
X213248785Y-60190095D01*
%TO.C,Q1*%
X200120261Y-55348119D02*
X200025023Y-55300500D01*
X199929785Y-55205261D01*
X199786928Y-55062404D01*
X199691690Y-55014785D01*
X199596452Y-55014785D01*
X199644071Y-55252880D02*
X199548833Y-55205261D01*
X199453595Y-55110023D01*
X199405976Y-54919547D01*
X199405976Y-54586214D01*
X199453595Y-54395738D01*
X199548833Y-54300500D01*
X199644071Y-54252880D01*
X199834547Y-54252880D01*
X199929785Y-54300500D01*
X200025023Y-54395738D01*
X200072642Y-54586214D01*
X200072642Y-54919547D01*
X200025023Y-55110023D01*
X199929785Y-55205261D01*
X199834547Y-55252880D01*
X199644071Y-55252880D01*
X201025023Y-55252880D02*
X200453595Y-55252880D01*
X200739309Y-55252880D02*
X200739309Y-54252880D01*
X200644071Y-54395738D01*
X200548833Y-54490976D01*
X200453595Y-54538595D01*
%TD*%
M02*
