%TF.GenerationSoftware,KiCad,Pcbnew,(5.1.7)-1*%
%TF.CreationDate,2020-12-01T10:33:42+01:00*%
%TF.ProjectId,HeatController,48656174-436f-46e7-9472-6f6c6c65722e,rev?*%
%TF.SameCoordinates,Original*%
%TF.FileFunction,Soldermask,Bot*%
%TF.FilePolarity,Negative*%
%FSLAX46Y46*%
G04 Gerber Fmt 4.6, Leading zero omitted, Abs format (unit mm)*
G04 Created by KiCad (PCBNEW (5.1.7)-1) date 2020-12-01 10:33:42*
%MOMM*%
%LPD*%
G01*
G04 APERTURE LIST*
%ADD10R,3.000000X3.000000*%
%ADD11C,3.000000*%
%ADD12C,1.800000*%
%ADD13R,1.800000X1.800000*%
%ADD14O,1.800000X1.800000*%
%ADD15R,1.600000X1.600000*%
%ADD16C,1.600000*%
G04 APERTURE END LIST*
D10*
%TO.C,JP1*%
X157480000Y-61087000D03*
D11*
X157480000Y-56007000D03*
%TD*%
D10*
%TO.C,J6*%
X219075000Y-106807000D03*
D11*
X219075000Y-111887000D03*
%TD*%
D10*
%TO.C,J5*%
X219075000Y-96647000D03*
D11*
X219075000Y-101727000D03*
%TD*%
D10*
%TO.C,J4*%
X219075000Y-86487000D03*
D11*
X219075000Y-91567000D03*
%TD*%
D10*
%TO.C,J3*%
X219075000Y-76327000D03*
D11*
X219075000Y-81407000D03*
%TD*%
D10*
%TO.C,J2*%
X219075000Y-66167000D03*
D11*
X219075000Y-71247000D03*
%TD*%
D10*
%TO.C,J1*%
X219075000Y-56007000D03*
D11*
X219075000Y-61087000D03*
%TD*%
D12*
%TO.C,U1*%
X183896000Y-85090000D03*
X161036000Y-85090000D03*
X183896000Y-87630000D03*
X161036000Y-87630000D03*
X183896000Y-90170000D03*
X161036000Y-90170000D03*
X183896000Y-92710000D03*
X161036000Y-92710000D03*
X183896000Y-95250000D03*
X161036000Y-95250000D03*
X183896000Y-97790000D03*
X161036000Y-97790000D03*
X183896000Y-100330000D03*
X161036000Y-100330000D03*
X183896000Y-102870000D03*
X161036000Y-102870000D03*
%TD*%
D13*
%TO.C,Q5*%
X201573000Y-97574500D03*
D14*
X204113000Y-97574500D03*
X206653000Y-97574500D03*
%TD*%
D13*
%TO.C,Q6*%
X201573000Y-107671000D03*
D14*
X204113000Y-107671000D03*
X206653000Y-107671000D03*
%TD*%
D13*
%TO.C,Q3*%
X201573000Y-77254500D03*
D14*
X204113000Y-77254500D03*
X206653000Y-77254500D03*
%TD*%
D13*
%TO.C,Q4*%
X201573000Y-87414500D03*
D14*
X204113000Y-87414500D03*
X206653000Y-87414500D03*
%TD*%
D13*
%TO.C,Q2*%
X201549000Y-67056000D03*
D14*
X204089000Y-67056000D03*
X206629000Y-67056000D03*
%TD*%
D15*
%TO.C,C1*%
X156972000Y-108712000D03*
D16*
X156972000Y-111212000D03*
%TD*%
D13*
%TO.C,Q1*%
X201549000Y-56642000D03*
D14*
X204089000Y-56642000D03*
X206629000Y-56642000D03*
%TD*%
M02*
