M48
; DRILL file {KiCad (5.1.7)-1} date 12/01/20 10:33:45
; FORMAT={-:-/ absolute / inch / decimal}
; #@! TF.CreationDate,2020-12-01T10:33:45+01:00
; #@! TF.GenerationSoftware,Kicad,Pcbnew,(5.1.7)-1
FMAT,2
INCH
T1C0.0157
T2C0.0315
T3C0.0394
T4C0.0400
T5C0.0598
%
G90
G05
T1
X6.145Y-3.88
X6.1475Y-4.0625
X6.5225Y-3.99
X6.525Y-3.48
X6.605Y-3.9175
X6.63Y-2.2525
X6.6375Y-3.7
X6.6475Y-3.855
X6.765Y-2.845
X6.84Y-2.435
X7.385Y-4.43
X7.3875Y-4.0575
X7.395Y-2.7675
X7.4125Y-3.03
X7.464Y-3.26
X7.464Y-3.66
X7.99Y-2.75
X7.99Y-3.55
X7.995Y-2.34
X7.995Y-3.15
X7.995Y-3.95
X7.995Y-4.345
T2
X6.18Y-4.28
X6.18Y-4.3784
T3
X7.9359Y-4.239
X8.0359Y-4.239
X8.1359Y-4.239
X7.935Y-2.23
X8.035Y-2.23
X8.135Y-2.23
X7.9359Y-3.0415
X8.0359Y-3.0415
X8.1359Y-3.0415
X7.9359Y-3.8415
X8.0359Y-3.8415
X8.1359Y-3.8415
X7.9359Y-3.4415
X8.0359Y-3.4415
X8.1359Y-3.4415
X7.935Y-2.64
X8.035Y-2.64
X8.135Y-2.64
T4
X6.34Y-3.35
X6.34Y-3.45
X6.34Y-3.55
X6.34Y-3.65
X6.34Y-3.75
X6.34Y-3.85
X6.34Y-3.95
X6.34Y-4.05
X7.24Y-3.35
X7.24Y-3.45
X7.24Y-3.55
X7.24Y-3.65
X7.24Y-3.75
X7.24Y-3.85
X7.24Y-3.95
X7.24Y-4.05
T5
X8.625Y-4.205
X8.625Y-4.405
X8.625Y-2.205
X8.625Y-2.405
X8.625Y-2.605
X8.625Y-2.805
X8.625Y-3.405
X8.625Y-3.605
X8.625Y-3.805
X8.625Y-4.005
X6.2Y-2.205
X6.2Y-2.405
X8.625Y-3.005
X8.625Y-3.205
T0
M30
