%TF.GenerationSoftware,KiCad,Pcbnew,(5.1.7)-1*%
%TF.CreationDate,2020-12-01T10:33:41+01:00*%
%TF.ProjectId,HeatController,48656174-436f-46e7-9472-6f6c6c65722e,rev?*%
%TF.SameCoordinates,Original*%
%TF.FileFunction,Copper,L2,Bot*%
%TF.FilePolarity,Positive*%
%FSLAX46Y46*%
G04 Gerber Fmt 4.6, Leading zero omitted, Abs format (unit mm)*
G04 Created by KiCad (PCBNEW (5.1.7)-1) date 2020-12-01 10:33:41*
%MOMM*%
%LPD*%
G01*
G04 APERTURE LIST*
%TA.AperFunction,ComponentPad*%
%ADD10R,3.000000X3.000000*%
%TD*%
%TA.AperFunction,ComponentPad*%
%ADD11C,3.000000*%
%TD*%
%TA.AperFunction,ComponentPad*%
%ADD12C,1.800000*%
%TD*%
%TA.AperFunction,ComponentPad*%
%ADD13R,1.800000X1.800000*%
%TD*%
%TA.AperFunction,ComponentPad*%
%ADD14O,1.800000X1.800000*%
%TD*%
%TA.AperFunction,ComponentPad*%
%ADD15R,1.600000X1.600000*%
%TD*%
%TA.AperFunction,ComponentPad*%
%ADD16C,1.600000*%
%TD*%
%TA.AperFunction,ViaPad*%
%ADD17C,0.800000*%
%TD*%
%TA.AperFunction,Conductor*%
%ADD18C,0.250000*%
%TD*%
G04 APERTURE END LIST*
D10*
%TO.P,JP1,1*%
%TO.N,/24V*%
X157480000Y-61087000D03*
D11*
%TO.P,JP1,2*%
%TO.N,GND*%
X157480000Y-56007000D03*
%TD*%
D10*
%TO.P,J6,1*%
%TO.N,/24V*%
X219075000Y-106807000D03*
D11*
%TO.P,J6,2*%
%TO.N,Net-(D6-Pad2)*%
X219075000Y-111887000D03*
%TD*%
D10*
%TO.P,J5,1*%
%TO.N,/24V*%
X219075000Y-96647000D03*
D11*
%TO.P,J5,2*%
%TO.N,Net-(D5-Pad2)*%
X219075000Y-101727000D03*
%TD*%
D10*
%TO.P,J4,1*%
%TO.N,/24V*%
X219075000Y-86487000D03*
D11*
%TO.P,J4,2*%
%TO.N,Net-(D4-Pad2)*%
X219075000Y-91567000D03*
%TD*%
D10*
%TO.P,J3,1*%
%TO.N,/24V*%
X219075000Y-76327000D03*
D11*
%TO.P,J3,2*%
%TO.N,Net-(D3-Pad2)*%
X219075000Y-81407000D03*
%TD*%
D10*
%TO.P,J2,1*%
%TO.N,/24V*%
X219075000Y-66167000D03*
D11*
%TO.P,J2,2*%
%TO.N,Net-(D2-Pad2)*%
X219075000Y-71247000D03*
%TD*%
D10*
%TO.P,J1,1*%
%TO.N,/24V*%
X219075000Y-56007000D03*
D11*
%TO.P,J1,2*%
%TO.N,Net-(D1-Pad2)*%
X219075000Y-61087000D03*
%TD*%
D12*
%TO.P,U1,16*%
%TO.N,N/C*%
X183896000Y-85090000D03*
%TO.P,U1,1*%
X161036000Y-85090000D03*
%TO.P,U1,15*%
X183896000Y-87630000D03*
%TO.P,U1,2*%
X161036000Y-87630000D03*
%TO.P,U1,14*%
%TO.N,/D1*%
X183896000Y-90170000D03*
%TO.P,U1,3*%
%TO.N,N/C*%
X161036000Y-90170000D03*
%TO.P,U1,13*%
%TO.N,/D2*%
X183896000Y-92710000D03*
%TO.P,U1,4*%
%TO.N,/D5*%
X161036000Y-92710000D03*
%TO.P,U1,12*%
%TO.N,N/C*%
X183896000Y-95250000D03*
%TO.P,U1,5*%
%TO.N,/D6*%
X161036000Y-95250000D03*
%TO.P,U1,11*%
%TO.N,N/C*%
X183896000Y-97790000D03*
%TO.P,U1,6*%
%TO.N,/D7*%
X161036000Y-97790000D03*
%TO.P,U1,10*%
%TO.N,/GND2*%
X183896000Y-100330000D03*
%TO.P,U1,7*%
%TO.N,/D8*%
X161036000Y-100330000D03*
%TO.P,U1,9*%
%TO.N,N/C*%
X183896000Y-102870000D03*
%TO.P,U1,8*%
%TO.N,/3V3*%
X161036000Y-102870000D03*
%TD*%
D13*
%TO.P,Q5,1*%
%TO.N,Net-(Q5-Pad1)*%
X201573000Y-97574500D03*
D14*
%TO.P,Q5,2*%
%TO.N,Net-(D5-Pad2)*%
X204113000Y-97574500D03*
%TO.P,Q5,3*%
%TO.N,GND*%
X206653000Y-97574500D03*
%TD*%
D13*
%TO.P,Q6,1*%
%TO.N,Net-(Q6-Pad1)*%
X201573000Y-107671000D03*
D14*
%TO.P,Q6,2*%
%TO.N,Net-(D6-Pad2)*%
X204113000Y-107671000D03*
%TO.P,Q6,3*%
%TO.N,GND*%
X206653000Y-107671000D03*
%TD*%
D13*
%TO.P,Q3,1*%
%TO.N,Net-(Q3-Pad1)*%
X201573000Y-77254500D03*
D14*
%TO.P,Q3,2*%
%TO.N,Net-(D3-Pad2)*%
X204113000Y-77254500D03*
%TO.P,Q3,3*%
%TO.N,GND*%
X206653000Y-77254500D03*
%TD*%
D13*
%TO.P,Q4,1*%
%TO.N,Net-(Q4-Pad1)*%
X201573000Y-87414500D03*
D14*
%TO.P,Q4,2*%
%TO.N,Net-(D4-Pad2)*%
X204113000Y-87414500D03*
%TO.P,Q4,3*%
%TO.N,GND*%
X206653000Y-87414500D03*
%TD*%
D13*
%TO.P,Q2,1*%
%TO.N,Net-(Q2-Pad1)*%
X201549000Y-67056000D03*
D14*
%TO.P,Q2,2*%
%TO.N,Net-(D2-Pad2)*%
X204089000Y-67056000D03*
%TO.P,Q2,3*%
%TO.N,GND*%
X206629000Y-67056000D03*
%TD*%
D15*
%TO.P,C1,1*%
%TO.N,/3V3*%
X156972000Y-108712000D03*
D16*
%TO.P,C1,2*%
%TO.N,GND*%
X156972000Y-111212000D03*
%TD*%
D13*
%TO.P,Q1,1*%
%TO.N,Net-(Q1-Pad1)*%
X201549000Y-56642000D03*
D14*
%TO.P,Q1,2*%
%TO.N,Net-(D1-Pad2)*%
X204089000Y-56642000D03*
%TO.P,Q1,3*%
%TO.N,GND*%
X206629000Y-56642000D03*
%TD*%
D17*
%TO.N,GND*%
X202946000Y-69850000D03*
X202946000Y-90170000D03*
X203073000Y-80010000D03*
X203073000Y-110363000D03*
X203073000Y-100330000D03*
X173736000Y-61849000D03*
X168402000Y-57213500D03*
X203073000Y-59436000D03*
X156146500Y-103187500D03*
X156083000Y-98552000D03*
X171831000Y-72263000D03*
%TO.N,/GND2*%
X188277500Y-76962000D03*
X187833000Y-70294500D03*
X168846500Y-97917000D03*
%TO.N,/D5*%
X165735000Y-88392000D03*
X189586009Y-82804000D03*
%TO.N,/D6*%
X168592500Y-93980000D03*
X189586009Y-92964000D03*
%TO.N,/D7*%
X167767000Y-99504500D03*
X187642500Y-103060500D03*
%TO.N,/D8*%
X165671500Y-101346000D03*
X187579000Y-112522000D03*
%TD*%
D18*
%TO.N,GND*%
X156146500Y-98615500D02*
X156083000Y-98552000D01*
X156146500Y-100774500D02*
X156146500Y-98615500D01*
X156146500Y-103187500D02*
X156146500Y-100774500D01*
X156146500Y-100774500D02*
X154686000Y-100774500D01*
%TO.N,/GND2*%
X187833000Y-76517500D02*
X187833000Y-70294500D01*
X188277500Y-76962000D02*
X187833000Y-76517500D01*
X171259500Y-100330000D02*
X183896000Y-100330000D01*
X168846500Y-97917000D02*
X171259500Y-100330000D01*
%TO.N,/D5*%
X165735000Y-88392000D02*
X171323000Y-82804000D01*
X171323000Y-82804000D02*
X189586009Y-82804000D01*
%TO.N,/D6*%
X168592500Y-93980000D02*
X188570009Y-93980000D01*
X188570009Y-93980000D02*
X189586009Y-92964000D01*
%TO.N,/D7*%
X167767000Y-99504500D02*
X172357501Y-104095001D01*
X172357501Y-104095001D02*
X186607999Y-104095001D01*
X186607999Y-104095001D02*
X187642500Y-103060500D01*
%TO.N,/D8*%
X176847500Y-112522000D02*
X187579000Y-112522000D01*
X165671500Y-101346000D02*
X176847500Y-112522000D01*
%TD*%
M02*
