%TF.GenerationSoftware,KiCad,Pcbnew,(5.1.7)-1*%
%TF.CreationDate,2020-12-01T10:33:41+01:00*%
%TF.ProjectId,HeatController,48656174-436f-46e7-9472-6f6c6c65722e,rev?*%
%TF.SameCoordinates,Original*%
%TF.FileFunction,Copper,L1,Top*%
%TF.FilePolarity,Positive*%
%FSLAX46Y46*%
G04 Gerber Fmt 4.6, Leading zero omitted, Abs format (unit mm)*
G04 Created by KiCad (PCBNEW (5.1.7)-1) date 2020-12-01 10:33:41*
%MOMM*%
%LPD*%
G01*
G04 APERTURE LIST*
%TA.AperFunction,SMDPad,CuDef*%
%ADD10R,1.300000X1.200000*%
%TD*%
%TA.AperFunction,ComponentPad*%
%ADD11R,3.000000X3.000000*%
%TD*%
%TA.AperFunction,ComponentPad*%
%ADD12C,3.000000*%
%TD*%
%TA.AperFunction,ComponentPad*%
%ADD13C,1.800000*%
%TD*%
%TA.AperFunction,SMDPad,CuDef*%
%ADD14R,1.250000X1.200000*%
%TD*%
%TA.AperFunction,SMDPad,CuDef*%
%ADD15R,1.200000X1.200000*%
%TD*%
%TA.AperFunction,ComponentPad*%
%ADD16R,1.800000X1.800000*%
%TD*%
%TA.AperFunction,ComponentPad*%
%ADD17O,1.800000X1.800000*%
%TD*%
%TA.AperFunction,SMDPad,CuDef*%
%ADD18R,1.930000X0.590000*%
%TD*%
%TA.AperFunction,SMDPad,CuDef*%
%ADD19R,1.000000X1.300000*%
%TD*%
%TA.AperFunction,SMDPad,CuDef*%
%ADD20R,2.100000X2.200000*%
%TD*%
%TA.AperFunction,SMDPad,CuDef*%
%ADD21R,1.200000X1.250000*%
%TD*%
%TA.AperFunction,ComponentPad*%
%ADD22R,1.600000X1.600000*%
%TD*%
%TA.AperFunction,ComponentPad*%
%ADD23C,1.600000*%
%TD*%
%TA.AperFunction,SMDPad,CuDef*%
%ADD24R,1.400000X2.300000*%
%TD*%
%TA.AperFunction,SMDPad,CuDef*%
%ADD25R,1.400000X1.250000*%
%TD*%
%TA.AperFunction,SMDPad,CuDef*%
%ADD26R,1.600000X1.400000*%
%TD*%
%TA.AperFunction,ViaPad*%
%ADD27C,0.800000*%
%TD*%
%TA.AperFunction,Conductor*%
%ADD28C,0.250000*%
%TD*%
%TA.AperFunction,Conductor*%
%ADD29C,1.500000*%
%TD*%
G04 APERTURE END LIST*
%TO.P,L1,2*%
%TO.N,/SW*%
%TA.AperFunction,SMDPad,CuDef*%
G36*
G01*
X158942000Y-68523000D02*
X153440000Y-68523000D01*
G75*
G02*
X153191000Y-68274000I0J249000D01*
G01*
X153191000Y-65772000D01*
G75*
G02*
X153440000Y-65523000I249000J0D01*
G01*
X158942000Y-65523000D01*
G75*
G02*
X159191000Y-65772000I0J-249000D01*
G01*
X159191000Y-68274000D01*
G75*
G02*
X158942000Y-68523000I-249000J0D01*
G01*
G37*
%TD.AperFunction*%
%TO.P,L1,1*%
%TO.N,/3V3*%
%TA.AperFunction,SMDPad,CuDef*%
G36*
G01*
X158961000Y-73823000D02*
X153459000Y-73823000D01*
G75*
G02*
X153210000Y-73574000I0J249000D01*
G01*
X153210000Y-71072000D01*
G75*
G02*
X153459000Y-70823000I249000J0D01*
G01*
X158961000Y-70823000D01*
G75*
G02*
X159210000Y-71072000I0J-249000D01*
G01*
X159210000Y-73574000D01*
G75*
G02*
X158961000Y-73823000I-249000J0D01*
G01*
G37*
%TD.AperFunction*%
%TD*%
D10*
%TO.P,E_33,2*%
%TO.N,GND*%
X157607000Y-94234000D03*
%TO.P,E_33,1*%
%TO.N,/GND2*%
X157607000Y-95834000D03*
%TD*%
D11*
%TO.P,JP1,1*%
%TO.N,/24V*%
X157480000Y-61087000D03*
D12*
%TO.P,JP1,2*%
%TO.N,GND*%
X157480000Y-56007000D03*
%TD*%
D11*
%TO.P,J6,1*%
%TO.N,/24V*%
X219075000Y-106807000D03*
D12*
%TO.P,J6,2*%
%TO.N,Net-(D6-Pad2)*%
X219075000Y-111887000D03*
%TD*%
D11*
%TO.P,J5,1*%
%TO.N,/24V*%
X219075000Y-96647000D03*
D12*
%TO.P,J5,2*%
%TO.N,Net-(D5-Pad2)*%
X219075000Y-101727000D03*
%TD*%
D11*
%TO.P,J4,1*%
%TO.N,/24V*%
X219075000Y-86487000D03*
D12*
%TO.P,J4,2*%
%TO.N,Net-(D4-Pad2)*%
X219075000Y-91567000D03*
%TD*%
D11*
%TO.P,J3,1*%
%TO.N,/24V*%
X219075000Y-76327000D03*
D12*
%TO.P,J3,2*%
%TO.N,Net-(D3-Pad2)*%
X219075000Y-81407000D03*
%TD*%
D11*
%TO.P,J2,1*%
%TO.N,/24V*%
X219075000Y-66167000D03*
D12*
%TO.P,J2,2*%
%TO.N,Net-(D2-Pad2)*%
X219075000Y-71247000D03*
%TD*%
D11*
%TO.P,J1,1*%
%TO.N,/24V*%
X219075000Y-56007000D03*
D12*
%TO.P,J1,2*%
%TO.N,Net-(D1-Pad2)*%
X219075000Y-61087000D03*
%TD*%
D13*
%TO.P,U1,16*%
%TO.N,N/C*%
X183896000Y-85090000D03*
%TO.P,U1,1*%
X161036000Y-85090000D03*
%TO.P,U1,15*%
X183896000Y-87630000D03*
%TO.P,U1,2*%
X161036000Y-87630000D03*
%TO.P,U1,14*%
%TO.N,/D1*%
X183896000Y-90170000D03*
%TO.P,U1,3*%
%TO.N,N/C*%
X161036000Y-90170000D03*
%TO.P,U1,13*%
%TO.N,/D2*%
X183896000Y-92710000D03*
%TO.P,U1,4*%
%TO.N,/D5*%
X161036000Y-92710000D03*
%TO.P,U1,12*%
%TO.N,N/C*%
X183896000Y-95250000D03*
%TO.P,U1,5*%
%TO.N,/D6*%
X161036000Y-95250000D03*
%TO.P,U1,11*%
%TO.N,N/C*%
X183896000Y-97790000D03*
%TO.P,U1,6*%
%TO.N,/D7*%
X161036000Y-97790000D03*
%TO.P,U1,10*%
%TO.N,/GND2*%
X183896000Y-100330000D03*
%TO.P,U1,7*%
%TO.N,/D8*%
X161036000Y-100330000D03*
%TO.P,U1,9*%
%TO.N,N/C*%
X183896000Y-102870000D03*
%TO.P,U1,8*%
%TO.N,/3V3*%
X161036000Y-102870000D03*
%TD*%
D14*
%TO.P,Cout2,1*%
%TO.N,/3V3*%
X157670500Y-103217000D03*
%TO.P,Cout2,2*%
%TO.N,GND*%
X157670500Y-105317000D03*
%TD*%
D15*
%TO.P,Dlj5,2*%
%TO.N,/24V*%
X213658500Y-103099000D03*
%TO.P,Dlj5,1*%
%TO.N,Net-(Dlj5-Pad1)*%
X211458500Y-103099000D03*
%TD*%
D16*
%TO.P,Q5,1*%
%TO.N,Net-(Q5-Pad1)*%
X201573000Y-97574500D03*
D17*
%TO.P,Q5,2*%
%TO.N,Net-(D5-Pad2)*%
X204113000Y-97574500D03*
%TO.P,Q5,3*%
%TO.N,GND*%
X206653000Y-97574500D03*
%TD*%
D18*
%TO.P,U_OC5,4*%
%TO.N,/24V*%
X196231000Y-95796500D03*
%TO.P,U_OC5,3*%
%TO.N,Net-(Roo5-Pad1)*%
X196231000Y-98336500D03*
%TO.P,U_OC5,2*%
%TO.N,/GND2*%
X190151000Y-98336500D03*
%TO.P,U_OC5,1*%
%TO.N,Net-(Rioc5-Pad1)*%
X190151000Y-95796500D03*
%TD*%
D19*
%TO.P,Rioc5,1*%
%TO.N,Net-(Rioc5-Pad1)*%
X192974000Y-103099000D03*
%TO.P,Rioc5,2*%
%TO.N,/D7*%
X191074000Y-103099000D03*
%TD*%
%TO.P,Rlj5,1*%
%TO.N,Net-(Dlj5-Pad1)*%
X207349000Y-103099000D03*
%TO.P,Rlj5,2*%
%TO.N,Net-(D5-Pad2)*%
X205449000Y-103099000D03*
%TD*%
%TO.P,Rpd5,1*%
%TO.N,Net-(Q5-Pad1)*%
X201258000Y-103099000D03*
%TO.P,Rpd5,2*%
%TO.N,GND*%
X203158000Y-103099000D03*
%TD*%
D20*
%TO.P,D5,1*%
%TO.N,/24V*%
X212749000Y-95647500D03*
%TO.P,D5,2*%
%TO.N,Net-(D5-Pad2)*%
X212749000Y-99447500D03*
%TD*%
D19*
%TO.P,Roo5,1*%
%TO.N,Net-(Roo5-Pad1)*%
X196940000Y-103099000D03*
%TO.P,Roo5,2*%
%TO.N,Net-(Q5-Pad1)*%
X198840000Y-103099000D03*
%TD*%
D20*
%TO.P,D6,1*%
%TO.N,/24V*%
X212749000Y-105744000D03*
%TO.P,D6,2*%
%TO.N,Net-(D6-Pad2)*%
X212749000Y-109544000D03*
%TD*%
D18*
%TO.P,U_OC6,4*%
%TO.N,/24V*%
X196231000Y-105893000D03*
%TO.P,U_OC6,3*%
%TO.N,Net-(Roo6-Pad1)*%
X196231000Y-108433000D03*
%TO.P,U_OC6,2*%
%TO.N,/GND2*%
X190151000Y-108433000D03*
%TO.P,U_OC6,1*%
%TO.N,Net-(Rioc6-Pad1)*%
X190151000Y-105893000D03*
%TD*%
D19*
%TO.P,Rioc6,1*%
%TO.N,Net-(Rioc6-Pad1)*%
X192974000Y-113195500D03*
%TO.P,Rioc6,2*%
%TO.N,/D8*%
X191074000Y-113195500D03*
%TD*%
%TO.P,Rpd6,1*%
%TO.N,Net-(Q6-Pad1)*%
X201258000Y-113195500D03*
%TO.P,Rpd6,2*%
%TO.N,GND*%
X203158000Y-113195500D03*
%TD*%
%TO.P,Roo6,1*%
%TO.N,Net-(Roo6-Pad1)*%
X196940000Y-113195500D03*
%TO.P,Roo6,2*%
%TO.N,Net-(Q6-Pad1)*%
X198840000Y-113195500D03*
%TD*%
D16*
%TO.P,Q6,1*%
%TO.N,Net-(Q6-Pad1)*%
X201573000Y-107671000D03*
D17*
%TO.P,Q6,2*%
%TO.N,Net-(D6-Pad2)*%
X204113000Y-107671000D03*
%TO.P,Q6,3*%
%TO.N,GND*%
X206653000Y-107671000D03*
%TD*%
D15*
%TO.P,Dlj6,2*%
%TO.N,/24V*%
X213658500Y-113195500D03*
%TO.P,Dlj6,1*%
%TO.N,Net-(Dlj6-Pad1)*%
X211458500Y-113195500D03*
%TD*%
D19*
%TO.P,Rlj6,1*%
%TO.N,Net-(Dlj6-Pad1)*%
X207349000Y-113195500D03*
%TO.P,Rlj6,2*%
%TO.N,Net-(D6-Pad2)*%
X205449000Y-113195500D03*
%TD*%
D15*
%TO.P,Dlj3,2*%
%TO.N,/24V*%
X213658500Y-82779000D03*
%TO.P,Dlj3,1*%
%TO.N,Net-(Dlj3-Pad1)*%
X211458500Y-82779000D03*
%TD*%
D16*
%TO.P,Q3,1*%
%TO.N,Net-(Q3-Pad1)*%
X201573000Y-77254500D03*
D17*
%TO.P,Q3,2*%
%TO.N,Net-(D3-Pad2)*%
X204113000Y-77254500D03*
%TO.P,Q3,3*%
%TO.N,GND*%
X206653000Y-77254500D03*
%TD*%
D18*
%TO.P,U_OC3,4*%
%TO.N,/24V*%
X196231000Y-75476500D03*
%TO.P,U_OC3,3*%
%TO.N,Net-(Roo3-Pad1)*%
X196231000Y-78016500D03*
%TO.P,U_OC3,2*%
%TO.N,/GND2*%
X190151000Y-78016500D03*
%TO.P,U_OC3,1*%
%TO.N,Net-(Rioc3-Pad1)*%
X190151000Y-75476500D03*
%TD*%
D19*
%TO.P,Rioc3,1*%
%TO.N,Net-(Rioc3-Pad1)*%
X192974000Y-82779000D03*
%TO.P,Rioc3,2*%
%TO.N,/D5*%
X191074000Y-82779000D03*
%TD*%
%TO.P,Rlj3,1*%
%TO.N,Net-(Dlj3-Pad1)*%
X207349000Y-82779000D03*
%TO.P,Rlj3,2*%
%TO.N,Net-(D3-Pad2)*%
X205449000Y-82779000D03*
%TD*%
%TO.P,Rpd3,1*%
%TO.N,Net-(Q3-Pad1)*%
X201258000Y-82779000D03*
%TO.P,Rpd3,2*%
%TO.N,GND*%
X203158000Y-82779000D03*
%TD*%
D20*
%TO.P,D3,1*%
%TO.N,/24V*%
X212749000Y-75327500D03*
%TO.P,D3,2*%
%TO.N,Net-(D3-Pad2)*%
X212749000Y-79127500D03*
%TD*%
D19*
%TO.P,Roo3,1*%
%TO.N,Net-(Roo3-Pad1)*%
X196940000Y-82779000D03*
%TO.P,Roo3,2*%
%TO.N,Net-(Q3-Pad1)*%
X198840000Y-82779000D03*
%TD*%
D20*
%TO.P,D4,1*%
%TO.N,/24V*%
X212749000Y-85487500D03*
%TO.P,D4,2*%
%TO.N,Net-(D4-Pad2)*%
X212749000Y-89287500D03*
%TD*%
D18*
%TO.P,U_OC4,4*%
%TO.N,/24V*%
X196231000Y-85636500D03*
%TO.P,U_OC4,3*%
%TO.N,Net-(Roo4-Pad1)*%
X196231000Y-88176500D03*
%TO.P,U_OC4,2*%
%TO.N,/GND2*%
X190151000Y-88176500D03*
%TO.P,U_OC4,1*%
%TO.N,Net-(Rioc4-Pad1)*%
X190151000Y-85636500D03*
%TD*%
D19*
%TO.P,Rioc4,1*%
%TO.N,Net-(Rioc4-Pad1)*%
X192974000Y-92939000D03*
%TO.P,Rioc4,2*%
%TO.N,/D6*%
X191074000Y-92939000D03*
%TD*%
%TO.P,Rpd4,1*%
%TO.N,Net-(Q4-Pad1)*%
X201258000Y-92939000D03*
%TO.P,Rpd4,2*%
%TO.N,GND*%
X203158000Y-92939000D03*
%TD*%
%TO.P,Roo4,1*%
%TO.N,Net-(Roo4-Pad1)*%
X196940000Y-92939000D03*
%TO.P,Roo4,2*%
%TO.N,Net-(Q4-Pad1)*%
X198840000Y-92939000D03*
%TD*%
D16*
%TO.P,Q4,1*%
%TO.N,Net-(Q4-Pad1)*%
X201573000Y-87414500D03*
D17*
%TO.P,Q4,2*%
%TO.N,Net-(D4-Pad2)*%
X204113000Y-87414500D03*
%TO.P,Q4,3*%
%TO.N,GND*%
X206653000Y-87414500D03*
%TD*%
D15*
%TO.P,Dlj4,2*%
%TO.N,/24V*%
X213658500Y-92939000D03*
%TO.P,Dlj4,1*%
%TO.N,Net-(Dlj4-Pad1)*%
X211458500Y-92939000D03*
%TD*%
D19*
%TO.P,Rlj4,1*%
%TO.N,Net-(Dlj4-Pad1)*%
X207349000Y-92939000D03*
%TO.P,Rlj4,2*%
%TO.N,Net-(D4-Pad2)*%
X205449000Y-92939000D03*
%TD*%
D15*
%TO.P,Dlj2,2*%
%TO.N,/24V*%
X213634500Y-72580500D03*
%TO.P,Dlj2,1*%
%TO.N,Net-(Dlj2-Pad1)*%
X211434500Y-72580500D03*
%TD*%
D16*
%TO.P,Q2,1*%
%TO.N,Net-(Q2-Pad1)*%
X201549000Y-67056000D03*
D17*
%TO.P,Q2,2*%
%TO.N,Net-(D2-Pad2)*%
X204089000Y-67056000D03*
%TO.P,Q2,3*%
%TO.N,GND*%
X206629000Y-67056000D03*
%TD*%
D18*
%TO.P,U_OC2,4*%
%TO.N,/24V*%
X196207000Y-65278000D03*
%TO.P,U_OC2,3*%
%TO.N,Net-(Roo2-Pad1)*%
X196207000Y-67818000D03*
%TO.P,U_OC2,2*%
%TO.N,/GND2*%
X190127000Y-67818000D03*
%TO.P,U_OC2,1*%
%TO.N,Net-(Rioc2-Pad1)*%
X190127000Y-65278000D03*
%TD*%
D19*
%TO.P,Rioc2,1*%
%TO.N,Net-(Rioc2-Pad1)*%
X192950000Y-72580500D03*
%TO.P,Rioc2,2*%
%TO.N,/D2*%
X191050000Y-72580500D03*
%TD*%
%TO.P,Rlj2,1*%
%TO.N,Net-(Dlj2-Pad1)*%
X207325000Y-72580500D03*
%TO.P,Rlj2,2*%
%TO.N,Net-(D2-Pad2)*%
X205425000Y-72580500D03*
%TD*%
%TO.P,Rpd2,1*%
%TO.N,Net-(Q2-Pad1)*%
X201234000Y-72580500D03*
%TO.P,Rpd2,2*%
%TO.N,GND*%
X203134000Y-72580500D03*
%TD*%
D20*
%TO.P,D2,1*%
%TO.N,/24V*%
X212725000Y-65129000D03*
%TO.P,D2,2*%
%TO.N,Net-(D2-Pad2)*%
X212725000Y-68929000D03*
%TD*%
D19*
%TO.P,Roo2,1*%
%TO.N,Net-(Roo2-Pad1)*%
X196916000Y-72580500D03*
%TO.P,Roo2,2*%
%TO.N,Net-(Q2-Pad1)*%
X198816000Y-72580500D03*
%TD*%
%TO.P,Rlpow1,1*%
%TO.N,GND*%
X166621500Y-57213500D03*
%TO.P,Rlpow1,2*%
%TO.N,Net-(Dlpow1-Pad1)*%
X164721500Y-57213500D03*
%TD*%
D15*
%TO.P,Dlpow1,2*%
%TO.N,/24V*%
X166835000Y-54737000D03*
%TO.P,Dlpow1,1*%
%TO.N,Net-(Dlpow1-Pad1)*%
X164635000Y-54737000D03*
%TD*%
D20*
%TO.P,D1,1*%
%TO.N,/24V*%
X212725000Y-54715000D03*
%TO.P,D1,2*%
%TO.N,Net-(D1-Pad2)*%
X212725000Y-58515000D03*
%TD*%
D19*
%TO.P,Roo1,1*%
%TO.N,Net-(Roo1-Pad1)*%
X196916000Y-62166500D03*
%TO.P,Roo1,2*%
%TO.N,Net-(Q1-Pad1)*%
X198816000Y-62166500D03*
%TD*%
%TO.P,Rfbt1,1*%
%TO.N,/3V3*%
X161864000Y-69850000D03*
%TO.P,Rfbt1,2*%
%TO.N,Net-(Rfbb1-Pad1)*%
X163764000Y-69850000D03*
%TD*%
%TO.P,Rfbb1,1*%
%TO.N,Net-(Rfbb1-Pad1)*%
X166436000Y-69850000D03*
%TO.P,Rfbb1,2*%
%TO.N,GND*%
X168336000Y-69850000D03*
%TD*%
%TO.P,Rlj1,1*%
%TO.N,Net-(Dlj1-Pad1)*%
X207325000Y-62166500D03*
%TO.P,Rlj1,2*%
%TO.N,Net-(D1-Pad2)*%
X205425000Y-62166500D03*
%TD*%
%TO.P,Rpd1,1*%
%TO.N,Net-(Q1-Pad1)*%
X201234000Y-62166500D03*
%TO.P,Rpd1,2*%
%TO.N,GND*%
X203134000Y-62166500D03*
%TD*%
%TO.P,Rioc1,1*%
%TO.N,Net-(Rioc1-Pad1)*%
X192950000Y-62166500D03*
%TO.P,Rioc1,2*%
%TO.N,/D1*%
X191050000Y-62166500D03*
%TD*%
D14*
%TO.P,Cout1,1*%
%TO.N,/3V3*%
X157734000Y-100271000D03*
%TO.P,Cout1,2*%
%TO.N,GND*%
X157734000Y-98171000D03*
%TD*%
D21*
%TO.P,Cboot1,1*%
%TO.N,Net-(Cboot1-Pad1)*%
X166209000Y-63373000D03*
%TO.P,Cboot1,2*%
%TO.N,/SW*%
X168309000Y-63373000D03*
%TD*%
D22*
%TO.P,C1,1*%
%TO.N,/3V3*%
X156972000Y-108712000D03*
D23*
%TO.P,C1,2*%
%TO.N,GND*%
X156972000Y-111212000D03*
%TD*%
D24*
%TO.P,D7,1*%
%TO.N,/SW*%
X171704000Y-64269000D03*
D25*
%TO.P,D7,2*%
%TO.N,GND*%
X171704000Y-61944000D03*
%TD*%
%TO.P,U2,3*%
%TO.N,Net-(Rfbb1-Pad1)*%
%TA.AperFunction,SMDPad,CuDef*%
G36*
G01*
X165408800Y-67198000D02*
X166409200Y-67198000D01*
G75*
G02*
X166459000Y-67247800I0J-49800D01*
G01*
X166459000Y-67748200D01*
G75*
G02*
X166409200Y-67798000I-49800J0D01*
G01*
X165408800Y-67798000D01*
G75*
G02*
X165359000Y-67748200I0J49800D01*
G01*
X165359000Y-67247800D01*
G75*
G02*
X165408800Y-67198000I49800J0D01*
G01*
G37*
%TD.AperFunction*%
%TO.P,U2,4*%
%TO.N,N/C*%
%TA.AperFunction,SMDPad,CuDef*%
G36*
G01*
X168108800Y-67198000D02*
X169109200Y-67198000D01*
G75*
G02*
X169159000Y-67247800I0J-49800D01*
G01*
X169159000Y-67748200D01*
G75*
G02*
X169109200Y-67798000I-49800J0D01*
G01*
X168108800Y-67798000D01*
G75*
G02*
X168059000Y-67748200I0J49800D01*
G01*
X168059000Y-67247800D01*
G75*
G02*
X168108800Y-67198000I49800J0D01*
G01*
G37*
%TD.AperFunction*%
%TO.P,U2,2*%
%TO.N,GND*%
%TA.AperFunction,SMDPad,CuDef*%
G36*
G01*
X165408800Y-66248000D02*
X166409200Y-66248000D01*
G75*
G02*
X166459000Y-66297800I0J-49800D01*
G01*
X166459000Y-66798200D01*
G75*
G02*
X166409200Y-66848000I-49800J0D01*
G01*
X165408800Y-66848000D01*
G75*
G02*
X165359000Y-66798200I0J49800D01*
G01*
X165359000Y-66297800D01*
G75*
G02*
X165408800Y-66248000I49800J0D01*
G01*
G37*
%TD.AperFunction*%
%TO.P,U2,5*%
%TO.N,/24V*%
%TA.AperFunction,SMDPad,CuDef*%
G36*
G01*
X168108800Y-66248000D02*
X169109200Y-66248000D01*
G75*
G02*
X169159000Y-66297800I0J-49800D01*
G01*
X169159000Y-66798200D01*
G75*
G02*
X169109200Y-66848000I-49800J0D01*
G01*
X168108800Y-66848000D01*
G75*
G02*
X168059000Y-66798200I0J49800D01*
G01*
X168059000Y-66297800D01*
G75*
G02*
X168108800Y-66248000I49800J0D01*
G01*
G37*
%TD.AperFunction*%
%TO.P,U2,1*%
%TO.N,Net-(Cboot1-Pad1)*%
%TA.AperFunction,SMDPad,CuDef*%
G36*
G01*
X165408800Y-65298000D02*
X166409200Y-65298000D01*
G75*
G02*
X166459000Y-65347800I0J-49800D01*
G01*
X166459000Y-65848200D01*
G75*
G02*
X166409200Y-65898000I-49800J0D01*
G01*
X165408800Y-65898000D01*
G75*
G02*
X165359000Y-65848200I0J49800D01*
G01*
X165359000Y-65347800D01*
G75*
G02*
X165408800Y-65298000I49800J0D01*
G01*
G37*
%TD.AperFunction*%
%TO.P,U2,6*%
%TO.N,/SW*%
%TA.AperFunction,SMDPad,CuDef*%
G36*
G01*
X168108800Y-65298000D02*
X169109200Y-65298000D01*
G75*
G02*
X169159000Y-65347800I0J-49800D01*
G01*
X169159000Y-65848200D01*
G75*
G02*
X169109200Y-65898000I-49800J0D01*
G01*
X168108800Y-65898000D01*
G75*
G02*
X168059000Y-65848200I0J49800D01*
G01*
X168059000Y-65347800D01*
G75*
G02*
X168108800Y-65298000I49800J0D01*
G01*
G37*
%TD.AperFunction*%
%TD*%
D26*
%TO.P,Cin1,1*%
%TO.N,/24V*%
X171831000Y-67461000D03*
%TO.P,Cin1,2*%
%TO.N,GND*%
X171831000Y-70461000D03*
%TD*%
D18*
%TO.P,U_OC1,4*%
%TO.N,/24V*%
X196207000Y-54864000D03*
%TO.P,U_OC1,3*%
%TO.N,Net-(Roo1-Pad1)*%
X196207000Y-57404000D03*
%TO.P,U_OC1,2*%
%TO.N,/GND2*%
X190127000Y-57404000D03*
%TO.P,U_OC1,1*%
%TO.N,Net-(Rioc1-Pad1)*%
X190127000Y-54864000D03*
%TD*%
D15*
%TO.P,Dlj1,2*%
%TO.N,/24V*%
X213634500Y-62166500D03*
%TO.P,Dlj1,1*%
%TO.N,Net-(Dlj1-Pad1)*%
X211434500Y-62166500D03*
%TD*%
D16*
%TO.P,Q1,1*%
%TO.N,Net-(Q1-Pad1)*%
X201549000Y-56642000D03*
D17*
%TO.P,Q1,2*%
%TO.N,Net-(D1-Pad2)*%
X204089000Y-56642000D03*
%TO.P,Q1,3*%
%TO.N,GND*%
X206629000Y-56642000D03*
%TD*%
D27*
%TO.N,GND*%
X202946000Y-69850000D03*
X202946000Y-90170000D03*
X203073000Y-80010000D03*
X203073000Y-110363000D03*
X203073000Y-100330000D03*
X173736000Y-61849000D03*
X168402000Y-57213500D03*
X203073000Y-59436000D03*
X156146500Y-103187500D03*
X156083000Y-98552000D03*
X171831000Y-72263000D03*
%TO.N,/GND2*%
X188277500Y-76962000D03*
X187833000Y-70294500D03*
X168846500Y-97917000D03*
%TO.N,/D5*%
X165735000Y-88392000D03*
X189586009Y-82804000D03*
%TO.N,/D6*%
X168592500Y-93980000D03*
X189586009Y-92964000D03*
%TO.N,/D7*%
X167767000Y-99504500D03*
X187642500Y-103060500D03*
%TO.N,/D8*%
X165671500Y-101346000D03*
X187579000Y-112522000D03*
%TD*%
D28*
%TO.N,GND*%
X203134000Y-69789000D02*
X203200000Y-69723000D01*
X203134000Y-72580500D02*
X203134000Y-69789000D01*
X203158000Y-90147500D02*
X203224000Y-90081500D01*
X203158000Y-92939000D02*
X203158000Y-90147500D01*
X203158000Y-79987500D02*
X203224000Y-79921500D01*
X203158000Y-82779000D02*
X203158000Y-79987500D01*
X203158000Y-110404000D02*
X203224000Y-110338000D01*
X203158000Y-113195500D02*
X203158000Y-110404000D01*
X203158000Y-100307500D02*
X203224000Y-100241500D01*
X203158000Y-103099000D02*
X203158000Y-100307500D01*
X168082000Y-69850000D02*
X168275000Y-69850000D01*
X166621500Y-57213500D02*
X168402000Y-57213500D01*
X203134000Y-59375000D02*
X203200000Y-59309000D01*
X203134000Y-62166500D02*
X203134000Y-59375000D01*
X156146500Y-103793000D02*
X156146500Y-103187500D01*
X157670500Y-105317000D02*
X156146500Y-103793000D01*
X166239462Y-66548000D02*
X168082000Y-68390538D01*
X165909000Y-66548000D02*
X166239462Y-66548000D01*
X173641000Y-61944000D02*
X173736000Y-61849000D01*
X171704000Y-61944000D02*
X173641000Y-61944000D01*
X171831000Y-70461000D02*
X171831000Y-72263000D01*
X156707000Y-94577000D02*
X157607000Y-94577000D01*
X156083000Y-95201000D02*
X156707000Y-94577000D01*
X156083000Y-98552000D02*
X156083000Y-95201000D01*
X157641000Y-98552000D02*
X157734000Y-98645000D01*
X156083000Y-98552000D02*
X157641000Y-98552000D01*
X169541462Y-69850000D02*
X168336000Y-69850000D01*
X170152462Y-70461000D02*
X169541462Y-69850000D01*
X171831000Y-70461000D02*
X170152462Y-70461000D01*
X169760538Y-68390538D02*
X171831000Y-70461000D01*
X168082000Y-68390538D02*
X169760538Y-68390538D01*
%TO.N,/3V3*%
X160015500Y-71188000D02*
X156210000Y-71188000D01*
X160015500Y-71188000D02*
X160015500Y-79243500D01*
X170908000Y-90136000D02*
X170908000Y-99060000D01*
X160015500Y-79243500D02*
X170908000Y-90136000D01*
X170908000Y-99060000D02*
X170908000Y-101219000D01*
X169257000Y-102870000D02*
X170908000Y-101219000D01*
X161036000Y-102870000D02*
X169257000Y-102870000D01*
X161036000Y-104648000D02*
X156972000Y-108712000D01*
X161036000Y-102870000D02*
X161036000Y-104648000D01*
X160689000Y-103217000D02*
X161036000Y-102870000D01*
X157670500Y-103217000D02*
X160689000Y-103217000D01*
X156210000Y-71188000D02*
X155389000Y-71188000D01*
X153289000Y-98835500D02*
X157670500Y-103217000D01*
X153289000Y-96998500D02*
X153289000Y-98835500D01*
X153289000Y-98835500D02*
X153887001Y-99433501D01*
X153887001Y-99433501D02*
X153887001Y-106677001D01*
X153887001Y-106677001D02*
X155922000Y-108712000D01*
X155922000Y-108712000D02*
X156972000Y-108712000D01*
X161353500Y-69850000D02*
X160015500Y-71188000D01*
X161864000Y-69850000D02*
X161353500Y-69850000D01*
X153289000Y-75244000D02*
X156210000Y-72323000D01*
X153289000Y-96998500D02*
X153289000Y-75244000D01*
X158437000Y-100271000D02*
X157734000Y-100271000D01*
X161036000Y-102870000D02*
X158437000Y-100271000D01*
X153289000Y-98835500D02*
X154334500Y-98835500D01*
X155770000Y-100271000D02*
X157734000Y-100271000D01*
X154334500Y-98835500D02*
X155770000Y-100271000D01*
%TO.N,/24V*%
X170918000Y-66548000D02*
X171831000Y-67461000D01*
X168609000Y-66548000D02*
X170918000Y-66548000D01*
%TO.N,/GND2*%
X188157500Y-100330000D02*
X190151000Y-98336500D01*
X183896000Y-100330000D02*
X188157500Y-100330000D01*
X185121001Y-103403001D02*
X190151000Y-108433000D01*
X185121001Y-101555001D02*
X185121001Y-103403001D01*
X183896000Y-100330000D02*
X185121001Y-101555001D01*
X188860999Y-98261499D02*
X188860999Y-89466501D01*
X188936000Y-98336500D02*
X188860999Y-98261499D01*
X190151000Y-98336500D02*
X188936000Y-98336500D01*
X188860999Y-89466501D02*
X190151000Y-88176500D01*
X188860999Y-79306501D02*
X190151000Y-78016500D01*
X188860999Y-88101499D02*
X188860999Y-79306501D01*
X188936000Y-88176500D02*
X188860999Y-88101499D01*
X190151000Y-88176500D02*
X188936000Y-88176500D01*
X189332000Y-78016500D02*
X188277500Y-76962000D01*
X190151000Y-78016500D02*
X189332000Y-78016500D01*
X190127000Y-68000500D02*
X190127000Y-67818000D01*
X187833000Y-70294500D02*
X190127000Y-68000500D01*
X182670999Y-99104999D02*
X182670999Y-64915501D01*
X183896000Y-100330000D02*
X182670999Y-99104999D01*
X190127000Y-57459500D02*
X190127000Y-57404000D01*
X182670999Y-64915501D02*
X190127000Y-57459500D01*
X167494499Y-96564999D02*
X168846500Y-97917000D01*
X158337999Y-96564999D02*
X167494499Y-96564999D01*
X157607000Y-95834000D02*
X158337999Y-96564999D01*
%TO.N,Net-(Q1-Pad1)*%
X201549000Y-61851500D02*
X201234000Y-62166500D01*
X201549000Y-56642000D02*
X201549000Y-61851500D01*
X199197000Y-62166500D02*
X201234000Y-62166500D01*
%TO.N,Net-(Cboot1-Pad1)*%
X166209000Y-65298000D02*
X165909000Y-65598000D01*
X166209000Y-63373000D02*
X166209000Y-65298000D01*
%TO.N,Net-(Rfbb1-Pad1)*%
X164145000Y-69850000D02*
X166182000Y-69850000D01*
X165909000Y-69323000D02*
X166436000Y-69850000D01*
X165909000Y-67498000D02*
X165909000Y-69323000D01*
%TO.N,/SW*%
X169740000Y-65598000D02*
X171196000Y-64142000D01*
X168609000Y-65598000D02*
X169740000Y-65598000D01*
X168309000Y-65298000D02*
X168609000Y-65598000D01*
X168309000Y-63373000D02*
X168309000Y-65298000D01*
X167358999Y-62422999D02*
X164335501Y-62422999D01*
X168309000Y-63373000D02*
X167358999Y-62422999D01*
X159870500Y-66888000D02*
X156191000Y-66888000D01*
X164335501Y-62422999D02*
X159870500Y-66888000D01*
D29*
%TO.N,Net-(D2-Pad2)*%
X204089000Y-67056000D02*
X204089000Y-68834000D01*
X217932000Y-70358000D02*
X219075000Y-71501000D01*
X204089000Y-68834000D02*
X205613000Y-70358000D01*
D28*
X204089000Y-67056000D02*
X204089000Y-71625500D01*
X204089000Y-71625500D02*
X205044000Y-72580500D01*
X212725000Y-70231000D02*
X212598000Y-70358000D01*
X212725000Y-68929000D02*
X212725000Y-70231000D01*
D29*
X212598000Y-70358000D02*
X217932000Y-70358000D01*
X205613000Y-70358000D02*
X212598000Y-70358000D01*
D28*
%TO.N,Net-(D1-Pad2)*%
X204089000Y-61211500D02*
X205044000Y-62166500D01*
X204089000Y-56642000D02*
X204089000Y-61211500D01*
D29*
X204089000Y-56642000D02*
X204089000Y-58420000D01*
X204089000Y-58420000D02*
X205613000Y-59944000D01*
X217932000Y-59944000D02*
X219075000Y-61087000D01*
X205613000Y-59944000D02*
X217932000Y-59944000D01*
D28*
%TO.N,Net-(Dlj1-Pad1)*%
X206944000Y-62166500D02*
X211434500Y-62166500D01*
%TO.N,Net-(Dlpow1-Pad1)*%
X164952500Y-56982500D02*
X164721500Y-57213500D01*
X164952500Y-54927500D02*
X164952500Y-56982500D01*
%TO.N,Net-(Rioc1-Pad1)*%
X192950000Y-57687000D02*
X190127000Y-54864000D01*
X192950000Y-62166500D02*
X192950000Y-57687000D01*
%TO.N,Net-(Roo1-Pad1)*%
X196207000Y-61076500D02*
X197297000Y-62166500D01*
X196207000Y-57404000D02*
X196207000Y-61076500D01*
%TO.N,Net-(Dlj2-Pad1)*%
X206944000Y-72580500D02*
X211434500Y-72580500D01*
%TO.N,Net-(Q2-Pad1)*%
X199197000Y-72580500D02*
X201234000Y-72580500D01*
X201549000Y-72265500D02*
X201234000Y-72580500D01*
X201549000Y-67056000D02*
X201549000Y-72265500D01*
%TO.N,Net-(Rioc2-Pad1)*%
X192950000Y-68101000D02*
X190127000Y-65278000D01*
X192950000Y-68101000D02*
X192950000Y-72580500D01*
%TO.N,Net-(Roo2-Pad1)*%
X196207000Y-67818000D02*
X196207000Y-71490500D01*
X196207000Y-71490500D02*
X197297000Y-72580500D01*
%TO.N,Net-(D3-Pad2)*%
X204113000Y-77254500D02*
X204113000Y-81824000D01*
X204113000Y-81824000D02*
X205068000Y-82779000D01*
D29*
X204089000Y-77216000D02*
X204089000Y-78994000D01*
X204089000Y-78994000D02*
X205613000Y-80518000D01*
X217932000Y-80518000D02*
X219075000Y-81661000D01*
D28*
X212749000Y-80240000D02*
X212471000Y-80518000D01*
X212749000Y-79127500D02*
X212749000Y-80240000D01*
D29*
X212471000Y-80518000D02*
X217932000Y-80518000D01*
X205613000Y-80518000D02*
X212471000Y-80518000D01*
%TO.N,Net-(D4-Pad2)*%
X204089000Y-87376000D02*
X204089000Y-89154000D01*
X217932000Y-90678000D02*
X219075000Y-91821000D01*
X204089000Y-89154000D02*
X205613000Y-90678000D01*
D28*
X204113000Y-91984000D02*
X205068000Y-92939000D01*
X204113000Y-87414500D02*
X204113000Y-91984000D01*
X212749000Y-90527000D02*
X212598000Y-90678000D01*
X212749000Y-89287500D02*
X212749000Y-90527000D01*
D29*
X212598000Y-90678000D02*
X217932000Y-90678000D01*
X205613000Y-90678000D02*
X212598000Y-90678000D01*
%TO.N,Net-(D5-Pad2)*%
X204089000Y-97536000D02*
X204089000Y-99314000D01*
X217932000Y-100838000D02*
X219075000Y-101981000D01*
X204089000Y-99314000D02*
X205613000Y-100838000D01*
D28*
X204113000Y-97574500D02*
X204113000Y-102144000D01*
X204113000Y-102144000D02*
X205068000Y-103099000D01*
X212749000Y-100608000D02*
X212979000Y-100838000D01*
X212749000Y-99447500D02*
X212749000Y-100608000D01*
D29*
X212979000Y-100838000D02*
X217932000Y-100838000D01*
X205613000Y-100838000D02*
X212979000Y-100838000D01*
%TO.N,Net-(D6-Pad2)*%
X204089000Y-107696000D02*
X204089000Y-109474000D01*
X217932000Y-110998000D02*
X219075000Y-112141000D01*
X204089000Y-109474000D02*
X205613000Y-110998000D01*
D28*
X204113000Y-112240500D02*
X205068000Y-113195500D01*
X204113000Y-107671000D02*
X204113000Y-112240500D01*
X212749000Y-110974000D02*
X212725000Y-110998000D01*
X212749000Y-109544000D02*
X212749000Y-110974000D01*
D29*
X212725000Y-110998000D02*
X217932000Y-110998000D01*
X205613000Y-110998000D02*
X212725000Y-110998000D01*
D28*
%TO.N,Net-(Dlj3-Pad1)*%
X206968000Y-82779000D02*
X211458500Y-82779000D01*
%TO.N,Net-(Dlj4-Pad1)*%
X206968000Y-92939000D02*
X211458500Y-92939000D01*
%TO.N,Net-(Dlj5-Pad1)*%
X206968000Y-103099000D02*
X211458500Y-103099000D01*
%TO.N,Net-(Dlj6-Pad1)*%
X206968000Y-113195500D02*
X211458500Y-113195500D01*
%TO.N,Net-(Q3-Pad1)*%
X199221000Y-82779000D02*
X201258000Y-82779000D01*
X201573000Y-82464000D02*
X201258000Y-82779000D01*
X201573000Y-77254500D02*
X201573000Y-82464000D01*
%TO.N,Net-(Q4-Pad1)*%
X201573000Y-87414500D02*
X201573000Y-92624000D01*
X199221000Y-92939000D02*
X201258000Y-92939000D01*
X201573000Y-92624000D02*
X201258000Y-92939000D01*
%TO.N,Net-(Q5-Pad1)*%
X199221000Y-103099000D02*
X201258000Y-103099000D01*
X201573000Y-102784000D02*
X201258000Y-103099000D01*
X201573000Y-97574500D02*
X201573000Y-102784000D01*
%TO.N,Net-(Q6-Pad1)*%
X201573000Y-107671000D02*
X201573000Y-112880500D01*
X199221000Y-113195500D02*
X201258000Y-113195500D01*
X201573000Y-112880500D02*
X201258000Y-113195500D01*
%TO.N,/D1*%
X185121001Y-68095499D02*
X191050000Y-62166500D01*
X185121001Y-88944999D02*
X185121001Y-68095499D01*
X183896000Y-90170000D02*
X185121001Y-88944999D01*
%TO.N,/D2*%
X185571012Y-78059488D02*
X191050000Y-72580500D01*
X185571012Y-91034988D02*
X185571012Y-78059488D01*
X183896000Y-92710000D02*
X185571012Y-91034988D01*
%TO.N,Net-(Rioc3-Pad1)*%
X192974000Y-78299500D02*
X190151000Y-75476500D01*
X192974000Y-82779000D02*
X192974000Y-78299500D01*
%TO.N,Net-(Rioc4-Pad1)*%
X192974000Y-88459500D02*
X190151000Y-85636500D01*
X192974000Y-92939000D02*
X192974000Y-88459500D01*
%TO.N,/D5*%
X165354000Y-88392000D02*
X165735000Y-88392000D01*
X161036000Y-92710000D02*
X165354000Y-88392000D01*
X191074000Y-82779000D02*
X189611009Y-82779000D01*
X189611009Y-82779000D02*
X189586009Y-82804000D01*
%TO.N,Net-(Rioc5-Pad1)*%
X192974000Y-98619500D02*
X190151000Y-95796500D01*
X192974000Y-103099000D02*
X192974000Y-98619500D01*
%TO.N,Net-(Rioc6-Pad1)*%
X192974000Y-108716000D02*
X190151000Y-105893000D01*
X192974000Y-113195500D02*
X192974000Y-108716000D01*
%TO.N,/D6*%
X161036000Y-95250000D02*
X161036000Y-94932500D01*
X167322500Y-95250000D02*
X168592500Y-93980000D01*
X161036000Y-95250000D02*
X167322500Y-95250000D01*
X191074000Y-92939000D02*
X189611009Y-92939000D01*
X189611009Y-92939000D02*
X189586009Y-92964000D01*
%TO.N,Net-(Roo3-Pad1)*%
X196231000Y-78016500D02*
X196231000Y-81689000D01*
X196231000Y-81689000D02*
X197321000Y-82779000D01*
%TO.N,Net-(Roo4-Pad1)*%
X196231000Y-88176500D02*
X196231000Y-91849000D01*
X196231000Y-91849000D02*
X197321000Y-92939000D01*
%TO.N,Net-(Roo5-Pad1)*%
X196231000Y-98336500D02*
X196231000Y-102009000D01*
X196231000Y-102009000D02*
X197321000Y-103099000D01*
%TO.N,Net-(Roo6-Pad1)*%
X196231000Y-108433000D02*
X196231000Y-112105500D01*
X196231000Y-112105500D02*
X197321000Y-113195500D01*
%TO.N,/D7*%
X166052500Y-97790000D02*
X167767000Y-99504500D01*
X161036000Y-97790000D02*
X166052500Y-97790000D01*
X191035500Y-103060500D02*
X191074000Y-103099000D01*
X187642500Y-103060500D02*
X191035500Y-103060500D01*
%TO.N,/D8*%
X164655500Y-100330000D02*
X165671500Y-101346000D01*
X161036000Y-100330000D02*
X164655500Y-100330000D01*
X190400500Y-112522000D02*
X191074000Y-113195500D01*
X187579000Y-112522000D02*
X190400500Y-112522000D01*
%TD*%
M02*
